<?xml version="1.0" encoding="utf-8"?>
<!-- Generator: Adobe Illustrator 25.2.0, SVG Export Plug-In . SVG Version: 6.00 Build 0)  -->
<svg version="1.1" id="圖層_1" xmlns="http://www.w3.org/2000/svg" xmlns:xlink="http://www.w3.org/1999/xlink" x="0px" y="0px"
	 viewBox="0 0 147.7 153.5" style="enable-background:new 0 0 147.7 153.5;" xml:space="preserve">
<style type="text/css">
	.st0{display:none;}
	.st1{display:inline;}
	.st2{fill:url(#SVGID_1_);}
	.st3{fill:url(#SVGID_2_);}
	.st4{fill:url(#SVGID_3_);}
	.st5{fill:url(#SVGID_4_);}
	.st6{fill:url(#SVGID_5_);}
	.st7{fill:url(#SVGID_6_);}
	.st8{fill:url(#SVGID_7_);}
	.st9{fill:url(#SVGID_8_);}
	.st10{fill:url(#SVGID_9_);}
	.st11{fill:url(#SVGID_10_);}
	.st12{fill:url(#SVGID_11_);}
	.st13{fill:url(#SVGID_12_);}
	.st14{fill:url(#SVGID_13_);}
	.st15{fill:url(#SVGID_14_);}
	.st16{fill:url(#SVGID_15_);}
	.st17{fill:url(#SVGID_16_);}
	.st18{fill:url(#SVGID_17_);}
	.st19{fill:url(#SVGID_18_);}
	.st20{fill:url(#SVGID_19_);}
	.st21{fill:url(#SVGID_20_);}
	.st22{fill:url(#SVGID_21_);}
</style>
<g id="圖層_1_1_" class="st0">
	<g id="ZVYF79.tif" class="st1">
		<g>
			
				<linearGradient id="SVGID_1_" gradientUnits="userSpaceOnUse" x1="35.2765" y1="133.9564" x2="95.0168" y2="45.6447" gradientTransform="matrix(1 0 0 -1 0 153.8898)">
				<stop  offset="0" style="stop-color:#1E3A93"/>
				<stop  offset="0.9987" style="stop-color:#182446"/>
			</linearGradient>
			<path class="st2" d="M100.3,133.5c-0.4,1.4-0.7,2.6-1.1,3.7c-1,3.1-3.1,3.9-5.9,2.2c-0.6-0.4-1.2-0.8-1.8-1.3
				c-1.1-0.9-1.8-0.7-2.2,0.6c-0.1,0.2-0.1,0.3-0.2,0.5c-2.1,4.9-4.6,5.3-8.3,1.4c-0.4-0.4-0.8-0.8-1-1.1c-2,1.6-3.9,4.2-5.9,4.3
				c-1.8,0.1-3.8-2.5-5.7-3.9c-1.6,0.9-3.9,3.1-5.9,2.9c-1.8-0.2-3.3-3.1-5.3-5.1c-0.3,0.2-1.2,0.8-2.2,1.4
				c-3.3,2.2-5.7,1.2-6.6-2.6c-0.7-3.1-0.7-3.1-3.5-1.8c-4,1.8-6.2,0.5-6.5-3.9c0-0.8-0.1-1.6-0.1-2.3c-2.6,0-5.7,0.9-7.3-0.3
				c-1.5-1.1-1.3-4.4-1.9-7.1c-0.6,0-1.9,0.1-3.2,0.1c-3.4,0.1-4.7-1.7-4-4.9c0.2-0.7,0.7-1.5,0.6-2.1c-0.1-0.6-0.7-1.6-1.2-1.7
				c-6.7-1.1-7.2-2-4.2-8.2c0.1-0.3,0.2-0.6,0.3-1.1c-1.2-0.3-2.3-0.7-3.4-1c-3.7-1.1-4.4-3.1-2.3-6.3c0.4-0.6,0.8-1.1,1.2-1.6
				c0.9-1,0.5-1.6-0.5-2.1C6,89.1,5.9,88.1,11,83.3c0.2-0.2,0.3-0.4,0.3-0.4C9.6,80.9,7,79,6.8,77c-0.1-1.8,2.5-3.8,4.1-5.7
				c-0.9-1.6-3.3-3.9-3.1-5.8s3.3-3.4,5.4-5.3c-0.3-0.4-0.9-1.2-1.5-2.1c-2.3-3.4-1.4-5.8,2.6-6.8c3.1-0.7,3.1-0.7,1.8-3.5
				c-1.9-3.9-0.6-6.3,3.8-6.5c0.8,0,1.6-0.1,2.8-0.2c-0.3-1.1-0.4-2.1-0.7-3c-1.2-4.1,0.4-6.1,4.6-5.8c3.1,0.3,3.1,0.3,2.8-2.8
				c-0.4-4.3,1.6-5.9,5.7-4.7c0.9,0.3,1.7,0.5,3,0.8c0.1-1.2,0.2-2.1,0.2-3.1c0.3-4.1,2.5-5.5,6.2-3.7c3,1.4,3,1.4,3.8-1.8
				c1-3.9,3.4-4.8,6.7-2.5c0.8,0.6,1.7,1.2,2.7,2c0.7-1.4,1.1-2.6,1.7-3.6c1.6-3,3.7-3.3,6.2-1.1c0.6,0.5,1.1,1.1,1.6,1.6
				c0.9,1,1.6,1.1,2.2-0.2c0-0.1,0.1-0.1,0.1-0.2c3.3-4.9,5.4-4.9,8.6,0c0.3,0.5,0.7,0.9,1.3,1.6c0.7-0.7,1.2-1.3,1.8-1.9
				c3.3-3.4,6-3.1,7.6,1.4c0.8,2.2,1.4,2.6,3.3,1c3.8-3.1,6-2.2,7.3,2.5c0.2,0.9,0.5,1.7,0.8,2.8c1.1-0.6,2-1,2.9-1.5
				c3.7-1.8,5.7-0.6,6.2,3.5c0.3,3.4,0.3,3.4,3.6,2.5c3.7-1,5.5,0.3,5.3,4.1c0,0.7-0.1,1.3-0.2,2c-0.1,1.2,0.2,2,1.7,1.6
				c0.2,0,0.3-0.1,0.5-0.1c5.3-0.6,7,1.4,5.3,6.4c-0.2,0.6-0.3,1.2-0.5,2.2c1.1,0.1,2,0.1,2.9,0.2c4.3,0.3,5.6,2.4,3.9,6.3
				c-1.3,2.9-1.3,2.9,1.7,3.7c3.8,0.9,4.8,3.4,2.5,6.7c-0.6,0.9-1.2,1.7-1.5,2.1c2,1.9,4.9,3.3,5.3,5.3c0.4,1.8-2,4.1-3,6
				c1.3,1.7,4,3.6,4,5.5c0,1.9-2.7,3.8-4.4,6c0.6,0.6,1.6,1.3,2.4,2.2c2.1,2.4,1.8,4.5-1,6.1c-0.7,0.4-1.6,0.5-2.2,1
				c-0.4,0.4-0.9,1.4-0.7,1.8c3.5,6.5,3.5,6.5-3.7,8.9c-0.1,0.1-0.3,0.2-0.1,0.1c0.4,2.6,1.7,5.6,0.7,7.3c-0.9,1.6-4.1,1.9-6.3,2.8
				c0,2.1,0.9,5.2-0.3,6.6c-1.2,1.5-4.4,1.3-7.1,1.9c0,0.4-0.1,1.3,0,2.3c0.2,4.5-1.6,6.2-5.8,4.7c-2.5-0.9-3-0.3-3.1,2.1
				c-0.2,4.7-2.5,5.9-6.8,3.8C101.9,134.3,101.2,134,100.3,133.5z M73.8,127.1c27.6,0,50.2-22.4,50.2-49.9
				c0-27.5-22.4-50.1-49.7-50.2c-28-0.1-50.4,22.2-50.5,50.2C23.8,104.5,46.3,127,73.8,127.1z"/>
			
				<linearGradient id="SVGID_2_" gradientUnits="userSpaceOnUse" x1="35.2591" y1="133.9446" x2="94.9993" y2="45.6329" gradientTransform="matrix(1 0 0 -1 0 153.8898)">
				<stop  offset="0" style="stop-color:#1E3A93"/>
				<stop  offset="0.9987" style="stop-color:#182446"/>
			</linearGradient>
			<path class="st3" d="M73.9,119.2c-23.4-0.1-42.5-18.9-42.4-41.9c0-23.9,18.9-42.8,42.7-42.7c23.1,0,42,19.1,42,42.4
				C116.1,100.5,97.3,119.3,73.9,119.2z M73.9,41c-20.3,0.1-36.1,16.2-36,36.4c0.1,19.7,16.6,35.7,36.5,35.5
				c19.2-0.1,35.7-16.8,35.5-35.9C109.7,57.1,93.6,40.9,73.9,41z"/>
			
				<linearGradient id="SVGID_3_" gradientUnits="userSpaceOnUse" x1="38.2609" y1="135.9753" x2="98.0011" y2="47.6636" gradientTransform="matrix(1 0 0 -1 0 153.8898)">
				<stop  offset="0" style="stop-color:#1E3A93"/>
				<stop  offset="0.9987" style="stop-color:#182446"/>
			</linearGradient>
			<path class="st4" d="M100.7,63c-0.5,0.7-0.8,1.2-1.2,1.7c-8.8,10.6-17.7,21.1-26.6,31.7c-1.2,1.4-2,1.5-3.4,0.3
				c-6.9-5.6-13.8-11.2-20.8-16.6c-1.6-1.2-1.7-2.2-0.4-3.6c1.5-1.6,2.8-3.3,4.1-5c0.9-1.2,1.7-1.3,2.9-0.4
				c4.3,3.2,8.8,6.3,13.1,9.6c1.7,1.3,2.7,1.3,4.1-0.5c5.9-7.4,11.9-14.7,17.8-22.1c1.4-1.7,2.4-2.2,4.2-0.5c1.6,1.5,3.4,2.7,5,4
				C99.8,61.9,100.2,62.5,100.7,63z"/>
		</g>
	</g>
</g>
<g id="圖層_2_1_" class="st0">
	<g class="st1">
		<g id="PAMslD.tif">
			<g>
				
					<linearGradient id="SVGID_4_" gradientUnits="userSpaceOnUse" x1="19.0287" y1="125.3075" x2="85.2898" y2="5.6419" gradientTransform="matrix(1 0 0 -1 0 153.8898)">
					<stop  offset="0" style="stop-color:#1E3A93"/>
					<stop  offset="0.9987" style="stop-color:#182446"/>
				</linearGradient>
				<path class="st5" d="M68.6,48.8c-0.9,0.8-1.8,1.6-2.6,2.5c-2.3,2.2-4.1,4.8-5,7.9c-1.6,5.9-0.4,13,5.1,17.3
					c1.2,0.9,2.6,1.6,3.9,2.3c0.4,0.2,0.6,0.5,0.4,1c-2.6,6-5.2,11.9-10,16.5c-1.6,1.6-3.5,2.7-5.8,3.2c-1.9,0.4-3.7,0-5.5-0.7
					c-1.5-0.6-3-1.3-4.5-1.8c-0.7-0.3-1.5-0.4-2.3-0.4c-2.3,0-4.6-0.3-6.8,0.5c-1.8,0.6-3.4,1.4-5.2,2c-2.4,0.8-4.8,0.7-7.1-0.5
					c-3.2-1.7-5.5-4.5-7.5-7.4c-3.1-4.5-5.6-9.4-7.2-14.7C6.9,71,6.3,65.4,7.1,59.7c0.8-5.3,2.9-9.9,6.9-13.5
					c3.9-3.6,8.6-5,13.9-4.4c2.4,0.3,4.7,1,7,1.9c3.2,1.2,6.2,1.2,9.4,0c2.2-0.8,4.4-1.5,6.7-2C57.7,40.6,64.6,43.1,68.6,48.8z"/>
				
					<linearGradient id="SVGID_5_" gradientUnits="userSpaceOnUse" x1="37.6702" y1="135.6297" x2="103.9314" y2="15.9641" gradientTransform="matrix(1 0 0 -1 0 153.8898)">
					<stop  offset="0" style="stop-color:#1E3A93"/>
					<stop  offset="0.9987" style="stop-color:#182446"/>
				</linearGradient>
				<path class="st6" d="M38.3,40.3c0.5-5.8,3.1-10.9,9-13.9c1.8-0.9,3.8-1.3,5.8-1.9c0.6-0.2,0.7,0.2,0.7,0.7c0,4.3-1.3,8.1-4,11.4
					c-2.3,2.8-5.2,4.8-8.8,5.6c-0.3,0.1-0.7,0.1-1,0.1C38.3,42.5,38.3,42.5,38.3,40.3z"/>
			</g>
		</g>
		<g>
			<g>
				
					<linearGradient id="SVGID_6_" gradientUnits="userSpaceOnUse" x1="32.1964" y1="132.5987" x2="98.4575" y2="12.9331" gradientTransform="matrix(1 0 0 -1 0 153.8898)">
					<stop  offset="0" style="stop-color:#1E3A93"/>
					<stop  offset="0.9987" style="stop-color:#182446"/>
				</linearGradient>
				<path class="st7" d="M76.3,85.4c-1.4,0-2.6,0.5-3.6,1.5s-1.5,2.1-1.5,3.5v20.9c0,1.4,0.5,2.6,1.5,3.6s2.2,1.5,3.6,1.5
					s2.6-0.5,3.5-1.5s1.4-2.2,1.4-3.6V90.3c0-1.4-0.5-2.5-1.5-3.5C78.8,85.9,77.6,85.4,76.3,85.4z"/>
				
					<linearGradient id="SVGID_7_" gradientUnits="userSpaceOnUse" x1="63.7363" y1="150.063" x2="129.9974" y2="30.3974" gradientTransform="matrix(1 0 0 -1 0 153.8898)">
					<stop  offset="0" style="stop-color:#1E3A93"/>
					<stop  offset="0.9987" style="stop-color:#182446"/>
				</linearGradient>
				<path class="st8" d="M116.5,66.6l3.4-6.4c0.2-0.4,0.2-0.8-0.2-1c-0.4-0.2-0.8-0.1-1,0.3l-3.5,6.4c-3.1-1.4-6.3-2-9.8-2
					s-6.7,0.7-9.8,2l-3.5-6.4c-0.2-0.4-0.6-0.5-1-0.3c-0.4,0.2-0.5,0.5-0.2,1l3.4,6.4c-3.5,1.8-6.3,4.3-8.4,7.5
					C84,77.3,83,80.8,83,84.6h45c0-3.8-1-7.3-3.1-10.5C122.8,70.9,120,68.4,116.5,66.6z M96.6,75.9c-0.4,0.4-0.8,0.6-1.3,0.6
					s-1-0.2-1.3-0.6c-0.4-0.4-0.5-0.8-0.5-1.3s0.2-1,0.5-1.3c0.4-0.4,0.8-0.6,1.3-0.6s1,0.2,1.3,0.6c0.4,0.4,0.6,0.8,0.6,1.3
					S96.9,75.5,96.6,75.9z M117.1,75.9c-0.4,0.4-0.8,0.6-1.3,0.6c-0.5,0-1-0.2-1.3-0.6c-0.4-0.4-0.6-0.8-0.6-1.3s0.2-1,0.6-1.3
					c0.4-0.4,0.8-0.6,1.3-0.6s1,0.2,1.3,0.6c0.4,0.4,0.5,0.8,0.5,1.3S117.4,75.5,117.1,75.9z"/>
				
					<linearGradient id="SVGID_8_" gradientUnits="userSpaceOnUse" x1="53.5676" y1="144.4324" x2="119.8288" y2="24.7668" gradientTransform="matrix(1 0 0 -1 0 153.8898)">
					<stop  offset="0" style="stop-color:#1E3A93"/>
					<stop  offset="0.9987" style="stop-color:#182446"/>
				</linearGradient>
				<path class="st9" d="M83.2,118.7c0,1.5,0.5,2.8,1.6,3.8c1,1,2.3,1.6,3.8,1.6h3.6l0.1,11c0,1.4,0.5,2.6,1.5,3.6s2.1,1.5,3.5,1.5
					c1.4,0,2.6-0.5,3.6-1.5s1.5-2.2,1.5-3.6v-11h6.7v11c0,1.4,0.5,2.6,1.5,3.6s2.2,1.5,3.6,1.5s2.6-0.5,3.6-1.5s1.5-2.2,1.5-3.6v-11
					h3.7c1.5,0,2.7-0.5,3.8-1.6s1.6-2.3,1.6-3.8V86.3H83.2V118.7z"/>
				
					<linearGradient id="SVGID_9_" gradientUnits="userSpaceOnUse" x1="76.9929" y1="157.4034" x2="143.2541" y2="37.7378" gradientTransform="matrix(1 0 0 -1 0 153.8898)">
					<stop  offset="0" style="stop-color:#1E3A93"/>
					<stop  offset="0.9987" style="stop-color:#182446"/>
				</linearGradient>
				<path class="st10" d="M134.7,85.4c-1.4,0-2.5,0.5-3.5,1.4s-1.5,2.1-1.5,3.5v20.9c0,1.4,0.5,2.6,1.5,3.6s2.1,1.5,3.5,1.5
					c1.4,0,2.6-0.5,3.6-1.5s1.5-2.2,1.5-3.6V90.3c0-1.4-0.5-2.6-1.5-3.5C137.3,85.9,136.1,85.4,134.7,85.4z"/>
			</g>
		</g>
		
			<linearGradient id="SVGID_10_" gradientUnits="userSpaceOnUse" x1="42.5599" y1="138.3372" x2="108.8211" y2="18.6716" gradientTransform="matrix(1 0 0 -1 0 153.8898)">
			<stop  offset="0" style="stop-color:#1E3A93"/>
			<stop  offset="0.9987" style="stop-color:#182446"/>
		</linearGradient>
		<polygon class="st11" points="50.2,143.9 44.5,143.9 102.6,9.6 108.3,9.6 		"/>
	</g>
</g>
<g id="圖層_3" class="st0">
	<g id="KMpQuI.tif" class="st1">
		<g>
			
				<linearGradient id="SVGID_11_" gradientUnits="userSpaceOnUse" x1="15.1081" y1="136.0248" x2="129.5723" y2="21.5606" gradientTransform="matrix(1 0 0 -1 0 153.8898)">
				<stop  offset="0" style="stop-color:#1E3A93"/>
				<stop  offset="0.9987" style="stop-color:#182446"/>
			</linearGradient>
			<path class="st12" d="M121.1,101.7c-0.3,0.8-0.4,1.5-0.8,2.1c-6.6,10.5-15.3,18.5-27,23c-7.3,2.8-14.9,4-22.7,3.6
				c-9.6-0.6-18.5-3.4-26.4-9c-1.7-1.2-3.2-1.9-5.5-1.5c-3.8,0.7-7.4-3.1-7.1-7c0-0.7,0.2-1.4,0.4-2.2c-9-11.9-13.4-25.2-11.4-40.4
				c1.6-1,3.1-1.9,4.6-2.9c1.1,2.1,0.8,4.1,0.5,5.8c-0.8,5.3,0,10.6,1.2,15.7c1.6,6.5,4.6,12.5,8.9,17.9c2.3,0.8,5-0.5,7.2,1.9
				c1.9,2.1,1.8,4.6,2.3,7.2c3.7,2.3,7.3,5,12.4,6.1c-1.2-2-2.4-3.5-3.1-5.1c-1.8-4.1-3.5-8.3-5-12.5c-0.7-1.9-1.7-2.8-3.6-3.2
				c-3.1-0.7-6.2-1.6-9.3-2.3c-1.7-0.3-2.5-1.3-3-2.8c-0.3-1-0.8-2-1.4-3.4c3-0.2,5.2,1.2,7.5,1.8c2.4,0.6,4.8,1,7.7,1.6
				c-0.2-1.3-0.2-2.2-0.4-3.1c-0.2-1.9-0.5-3.8-0.6-5.7c-0.2-3-0.6-6.1-0.5-9.1c0.2-5.1,0.8-10.2,1.2-15.2c0.1-1.5,0.5-3.1,0.7-4.6
				c0.1-0.5-0.1-1-0.2-1.6c-1.8,0.2-3.6,0.1-5.2,0.5c-6.1,1.7-12.4,3-18.1,6.1c-3.6,1.9-7,4.1-9.5,7.4c-2.4,3.2-2.4,6.6-0.2,9.9
				c1.9,2.7,1.5,5.9,2.7,8.7c-0.2,0.2-0.4,0.3-0.5,0.4c-0.6-0.3-1.4-0.5-1.9-1c-3.1-2.6-5.8-5.7-6.7-9.7c-1.1-4.6-0.2-9,3.1-12.6
				c3.8-4.1,8.4-7.2,13.6-9.3c6.1-2.5,12.4-4.2,18.9-5.5c3.7-0.8,6.4-3.2,8-6.7c1.8-3.9,3.9-7.7,5.9-11.5c0.3-0.6,0.6-1.2,1.2-2.3
				c-1.1,0.2-1.7,0.2-2.3,0.4c-9,3.3-16.3,9-22.1,16.6c-2,2.7-5.1,2.7-8.2,3.8C37,28.8,73,10.6,105.9,33.4c7.3-1.5,11,2.8,9.8,8.6
				c2.6,4.5,5,8.7,7.2,13c2.7,5.1,3.8,10.7,4.4,16.4c0.3,3.1,0.9,6.1,0.2,9.3c-0.7,3-2.5,4.7-5.9,5.1c-0.2-6.9,0.9-13.8-1-20.6
				c-1.8-6.7-4.7-12.8-9.1-18.4c-2.4-0.2-4.9,0.1-7-1.8c-2.2-2-2.1-4.4-2.3-6.8c-3-2.7-8.8-5.9-12.2-6.6c0.2,0.5,0.3,0.9,0.5,1.2
				c3.4,4.9,5.6,10.3,7.2,16c0.5,1.9,1.4,2.9,3.5,3.2c3,0.5,5.9,1.4,8.8,2.1c1.8,0.4,3.2,1.2,3.7,3.2c0.3,1.1,1,2.2,1.8,3.8
				c-1.5-0.2-2.5-0.3-3.4-0.5c-3.9-1-7.8-2.2-12.1-3.4c1.7,13.3,1.8,26-0.8,39.1c1.4,0,2.5,0.2,3.6,0c8.2-1.8,16.3-4,23.6-8.4
				c2.5-1.5,4.8-3.4,6.4-6c1.7-2.8,1.9-5.7,0-8.3c-1.9-2.7-1.9-5.9-2.8-8.8c-0.1-0.4,0.1-0.8,0.2-1.4c0.5,0.1,1,0.1,1.3,0.3
				c3.7,3.1,7.1,6.4,8,11.4c0.8,4.5-0.5,8.4-3.4,11.8c-3.8,4.5-8.8,7.3-14.1,9.5c-6.1,2.6-12.4,4.2-19,5.4c-3,0.5-5.4,2.6-6.6,5
				c-2.6,5.2-4.7,10.6-8.2,15.4c3.2-0.7,6-2,8.8-3.5c6.3-3.3,11.3-8.3,15.7-13.8C114.4,103.2,117.9,101.7,121.1,101.7z M57.8,55
				c-1.1,1.1-2,1.8-2.7,2.7c-0.8,1-1.7,2.1-1.9,3.2c-0.6,3.7-1.1,7.4-1.3,11.1c-0.3,7.6-0.1,15.2,1,22.8c0.1,0.7,0.3,1.3,0.6,2.1
				c12.2,2.3,24.3,2.1,36.4,1.1c0.7-0.9,1.3-1.7,2.1-2.2c1.4-0.8,2.1-2,2.3-3.6c0.4-3.9,1-7.9,1.2-11.9c0.4-7.2-0.1-14.4-1.1-21.5
				c-0.1-0.9-0.5-1.8-0.8-2.5C81.6,54.1,69.6,55.2,57.8,55z M54.8,102.9c0.9,2.4,1.5,4.2,2.2,6.1c1.8,4.6,4.3,8.9,7.8,12.4
				c4.7,4.7,11.4,4.4,16.1,0.1c4.2-3.9,6.8-8.9,9.1-14.1c0.4-0.9,0.5-2,0.8-3.4c-4.3,0.1-8.2,0-12.2,0.2c-3.9,0.2-7.8,0-11.7-0.2
				C63.2,103.7,59.2,103.3,54.8,102.9z M92.4,50.3c-0.7-1.8-1.3-3.4-1.9-5c-1.7-5.1-4.3-9.5-8.2-13.3c-4.2-4-9.7-4.7-14.4-1.3
				c-6.3,4.6-9.1,11.5-11.8,18.9c6.3-0.1,12.1-0.4,18-0.3C80,49.4,86,49.9,92.4,50.3z"/>
		</g>
	</g>
</g>
<g id="圖層_4" class="st0">
	<g id="_x33_vKcqs.tif" class="st1">
		<g>
			
				<linearGradient id="SVGID_12_" gradientUnits="userSpaceOnUse" x1="34.4987" y1="124.0602" x2="109.516" y2="11.8847" gradientTransform="matrix(1 0 0 -1 0 153.8898)">
				<stop  offset="0" style="stop-color:#1E3A93"/>
				<stop  offset="0.9987" style="stop-color:#182446"/>
			</linearGradient>
			<path class="st13" d="M61.4,124.4c-1.1,0.9-2,1.8-3,2.4c-1.6,0.9-3.3,1.3-5.1,0.5c-1.4-0.6-2.5-1.5-3.4-2.6c-0.6-0.7-1-1.5-1-2.5
				c0-1-0.2-2.1,0.5-3.1c0.1-0.1,0.1-0.3,0.1-0.5c0-0.2-0.1-0.3-0.2-0.4c-0.1-0.1-0.3,0-0.4,0.1c-1,0.9-2.1,1.3-3.3,1.5
				c-0.8,0.2-1.7,0.1-2.5-0.1c-1.7-0.3-2.9-1.3-4-2.6c-1.2-1.4-1.5-3.1-1.2-4.9c0.1-0.9,0.4-1.7,0.6-2.7c-0.8,0.5-1.5,1-2.2,1.3
				c-1.5,0.6-3,1.2-4.7,0.6c-1.4-0.5-2.6-1.2-3.6-2.2c-0.6-0.6-1.1-1.2-1.2-2.1c-0.1-0.7-0.4-1.4-0.4-2.1c0-1.7,0.4-3.3,1.5-4.8
				c1.2-1.5,2.3-3.2,3.5-4.8c0.3-0.4,0.6-0.7,0.9-1.1c0.3-0.4,0.3-0.7,0-1.2c-1.2-1.4-2.2-2.9-3.4-4.3c-1.2-1.5-2.3-3-3.5-4.5
				c-0.4-0.5-0.4-0.9-0.1-1.4c0.6-1.2,1.2-2.5,1.8-3.7c0.1-0.2,0.3-0.5,0.5-0.5c0.2,0,0.6,0.2,0.7,0.4c1.4,1.8,2.8,3.6,4.2,5.3
				c1.3,1.6,2.6,3.2,3.8,4.8c0.4,0.5,0.9,0.6,1.5,0.5c1.2-0.3,2.5-0.3,3.7,0.2c0.6,0.3,1.3,0.5,1.9,0.8c1.1,0.5,1.6,1.6,2.1,2.6
				c0.8,1.4,0.7,3,0.6,4.6c0,0.6,0.1,1.1,0.6,1.6c0.6,0.6,1.1,0.9,2,0.9c1.3-0.1,2.7,0,3.9,0.7c1,0.6,1.8,1.4,2.5,2.4
				c0.7,1.2,1,2.5,1.1,3.8c0,0.1,0,0.3,0.1,0.3c0.9,0.5,1.4,1.8,2.7,1.6c0.4,0,0.7,0,1.1-0.1c2.2-0.1,3.8,1,5,2.7
				c0.7,1,1.2,2.1,1.3,3.3c0,0.3,0.2,0.7,0.5,0.8c1.1,0.8,2.2,1.6,3.4,2.4c0.2,0.1,0.5,0.2,0.7,0.3c1.4,0.3,2.5,1,3.1,2.4
				c0.3,0.6,0.9,1,1.4,1.3c0.8,0.6,1.6,1.1,2.4,1.6c1.2,0.8,3.6,0.7,4.7-0.7c0.4-0.5,0.6-1.2,0.9-1.8c0.2-0.6-0.2-0.9-0.6-1.2
				c-0.9-0.7-1.9-1.4-2.9-2.1c-1.2-0.9-2.3-1.8-3.4-2.7c-1.6-1.2-3.1-2.4-4.7-3.6c-1.2-0.9-1.6-1.9-1-3.2c0.1-0.3,0.4-0.5,0.7-0.6
				c1.4-0.5,2.7-0.2,3.9,0.8c1.1,0.9,2.3,1.6,3.5,2.4c1,0.7,1.9,1.4,2.8,2.1c1.1,0.8,2.3,1.6,3.4,2.3c1,0.7,1.9,1.4,2.9,2.1
				c1.1,0.8,2.2,1.6,3.3,2.3c0.3,0.2,0.7,0.4,1,0.7c1,0.9,2.3,0.7,3.4,0.4c1.1-0.3,1.9-1.2,2.4-2.2c0.6-1.2,0.4-2.4-0.1-3.5
				c-0.3-0.6-0.8-1.2-1.3-1.6c-1.5-1.2-3.2-2.2-4.7-3.4c-1.8-1.3-3.7-2.7-5.5-4.1c-1.1-0.8-2.2-1.5-3.3-2.3
				c-1.2-0.9-2.4-1.8-3.7-2.7c-0.7-0.6-1.5-1.1-2.2-1.6c-0.9-0.6-0.8-1.6-0.7-2.4c0.1-0.7,0.9-1.3,1.7-1.4c1-0.2,1.7,0.2,2.5,0.7
				c1.9,1.4,3.8,2.8,5.8,4.2c1.7,1.2,3.3,2.3,5,3.5c1.9,1.4,3.8,2.8,5.8,4.1c1.7,1.2,3.4,2.2,5,3.5c1.2,0.9,2.4,1.2,3.8,1.2
				c0.8,0,1.5-0.4,1.9-1c0.5-0.8,1-1.7,1.2-2.6c0.3-1.3-0.2-2.6-1.3-3.4c-2.2-1.7-4.4-3.3-6.6-4.9c-1.9-1.4-3.8-2.7-5.7-4.1
				c-1.5-1.1-2.9-2.1-4.4-3.2c-1.2-0.9-2.4-1.8-3.7-2.8c-1.7-1.2-3.3-2.4-5-3.6c-1.1-0.8-1.3-2.6-0.3-3.6c0.1-0.1,0.3-0.2,0.5-0.2
				c1.5-0.5,2.7-0.1,3.9,0.9c1,0.8,2,1.5,3.1,2.2c1.4,1,2.8,2,4.2,2.9c1.1,0.8,2.2,1.5,3.3,2.3c1.3,0.9,2.6,1.9,3.9,2.8
				c1.6,1.2,3.3,2.3,4.9,3.5c1.7,1.2,3.3,2.4,5,3.6c1.1,0.8,2.1,1.6,3.6,1.4c1.6-0.2,3-0.8,3.9-2.3c0.6-0.9,0.9-1.8,1-2.8
				c0.1-1.8-0.7-3.2-2.1-4.3c-2.6-2.2-5.2-4.5-7.8-6.8c-2.1-1.8-4.1-3.5-6.2-5.3c-1.2-1.1-2.5-2.2-3.7-3.3c-1.9-1.7-3.9-3.3-5.8-5
				c-1.5-1.3-3-2.6-4.5-3.9c-2.1-1.8-4.2-3.7-6.3-5.5c-1.1-1-2.2-1.9-3.2-2.9c-1.1-1-2.4-1.2-3.7-1.3c-3.4-0.3-6,1.1-7.9,3.8
				c-0.3,0.5-0.4,1-0.6,1.6c-0.4,1.6-0.9,3.2-1.7,4.7c-0.7,1.4-1.6,2.7-2.8,3.8c-1,0.9-2.2,1.7-3.4,2.4c-1.3,0.9-2.8,1.2-4.3,1.7
				c-1.2,0.3-2.4,0.3-3.6-0.1c-0.8-0.3-1.7-0.6-2.5-1c-2.4-1-3-3.7-1.6-5.8c0.3-0.4,0.5-1,0.7-1.5c0.3-0.7,0.5-1.4,0.7-2.2
				c0.3-1.8,0.5-3.5,0.6-5.3c0-1.8,0.3-3.6,0.9-5.3c0.6-1.5,1.5-2.8,2.2-4.2c0.1-0.2,0.2-0.5,0.3-0.8c-0.3-0.1-0.5-0.3-0.8-0.3
				c-3.8,0-7.7,0-11.5,0c-0.2,0-0.4,0-0.6,0c-0.4-0.1-0.5-0.2-0.3-0.6c0.4-0.7,0.7-1.5,1.1-2.3c0.5-1,0.9-1.9,1.4-2.9
				c0.2-0.5,0.7-0.6,1.2-0.6c2.5,0,4.9,0,7.4,0c3.8,0,7.7,0,11.5,0c1.1,0,2-0.5,2.9-0.9c0.6-0.2,1.1-0.6,1.7-0.9
				c0.8-0.3,1.6-0.6,2.4-0.9c0.8-0.3,1.6-0.5,2.4-0.8c3-1,6-1.4,9.2-0.7c0.5,0.1,1.1,0.1,1.6,0.2c1.8,0.2,3.5,0.5,5.2,0.8
				c0.6,0.1,1.1,0.4,1.7,0.6c1.1,0.3,2.2,0.7,3.2,1c0.2,0,0.3,0.1,0.5,0.2c1.3,0.3,2.7,0.4,4,0.8c2,0.6,4.2,0.5,6.2,0.8
				c0.3,0,0.5,0,0.8,0c0.9-0.1,1.3,0.2,1.7,1c0.6,1.3,1.2,2.5,1.8,3.8c0.5,1.1,1,2.2,1.5,3.2c0.5,1.1,1.1,2.1,1.6,3.2
				c0.2,0.5,0.5,1,0.7,1.5c0.9,2,1.8,4,2.8,6c0.7,1.5,1.5,3,2.3,4.6c0.5,1.1,1,2.2,1.5,3.3c0.5,1.1,1.1,2.1,1.6,3.2
				c0.5,1.1,1,2.2,1.5,3.2c0.5,1.1,1.1,2.2,1.6,3.2c0.3,0.6,0.6,1.1,0.8,1.7c0.1,0.4,0.2,1,0.1,1.4c-0.2,0.8-0.7,1.6-1,2.4
				c-0.3,0.7-0.6,1.3-0.8,2c-0.1,0.1-0.1,0.3-0.2,0.4c-0.9,1-0.3,1.8,0.3,2.6c1.5,2.1,2.1,4.4,1.9,6.9c-0.1,1.5-0.6,2.8-1.3,4.1
				c-1.1,2.2-2.9,3.5-5.2,4.2c-0.9,0.3-1.8,0.4-2.7,0.6c-0.6,0.1-0.9,0.4-0.9,1c0,0.6,0,1.3-0.1,1.9c-0.1,1.5-0.8,2.8-1.8,3.8
				c-0.7,0.7-1.3,1.3-2,1.8c-0.5,0.3-1,0.7-1.6,0.8c-1.5,0.2-3,0.4-4.5,0.5c-0.6,0-0.8,0.2-0.9,0.8c-0.2,2-1.1,3.7-2.5,5
				c-0.8,0.8-1.7,1.5-2.7,1.8c-1.1,0.3-2.3,0.6-3.5,0.5c-2.2,0-4.2-0.8-6-2c-0.4-0.3-0.8-0.1-0.9,0.3c-0.4,1.2-1.1,2.1-2.1,2.9
				c-1,0.8-2.1,1.5-3.4,1.7c-0.6,0.1-1.1,0.2-1.7,0.3c-1.4,0.2-2.8-0.2-4.1-0.5c-0.6-0.1-1-0.5-1.5-0.9c-0.3-0.2-0.5-0.2-0.7,0.1
				c-0.6,0.8-1.2,1.6-1.9,2.4c-1.1,1.2-2.5,1.9-4.1,2.1c-1.5,0.2-2.9-0.4-4.1-1.3c-1.5-1.2-2.3-2.8-2.3-4.8c0-0.4,0.1-0.7,0.2-1.1
				C61.3,125.2,61.3,124.9,61.4,124.4z"/>
			
				<linearGradient id="SVGID_13_" gradientUnits="userSpaceOnUse" x1="84.4935" y1="157.4942" x2="159.5109" y2="45.3187" gradientTransform="matrix(1 0 0 -1 0 153.8898)">
				<stop  offset="0" style="stop-color:#1E3A93"/>
				<stop  offset="0.9987" style="stop-color:#182446"/>
			</linearGradient>
			<path class="st14" d="M108.3,39.6c-0.1-1.6,1-2.5,2.3-3.1c0.7-0.3,1.4-0.7,2.2-1.1c0.6-0.3,1.3-0.6,1.9-0.9
				c0.6-0.3,1.3-0.6,1.9-1c1.1-0.5,2.1-1.1,3.3-1.1c1.5-0.1,2.4,0.7,3.1,1.8c1,1.8,1.8,3.6,2.7,5.4c0.7,1.5,1.5,2.9,2.3,4.4
				c0.5,1.1,1,2.2,1.5,3.2c0.5,1,1.1,2.1,1.6,3.1c0.5,1,1,2.1,1.5,3.2c0.3,0.6,0.6,1.2,1,1.8c0.2,0.5,0.5,0.9,0.7,1.4
				c0.5,1,1,2.1,1.5,3.2c0.5,1,1.1,2.1,1.6,3.1c0.3,0.6,0.6,1.2,0.9,1.9c0.2,0.4,0.4,0.9,0.7,1.3c0.5,1.1,1.1,2.1,1.6,3.2
				c0.2,0.5,0.5,1,0.7,1.4c0.5,1.1,1,2.1,1.5,3.2c0.3,0.6,0.5,1.2,0.8,1.8c0.6,1.1,0,2.9-1.1,3.6c-0.8,0.5-1.6,0.9-2.5,1.4
				c-1.1,0.5-2.2,1.1-3.3,1.6c-0.7,0.3-1.4,0.7-2.1,1c-0.5,0.2-1,0.5-1.6,0.6c-2,0.5-3.4-0.6-4.3-2.3c-0.6-1.1-1.2-2.3-1.7-3.4
				c-0.5-1.1-1-2.2-1.5-3.4c-0.5-1.1-1.1-2.1-1.6-3.1c-0.5-1.1-1-2.1-1.5-3.2c-0.5-1.1-1.1-2.2-1.6-3.3c-0.6-1.1-1.1-2.3-1.7-3.4
				c-0.6-1.1-1.1-2.2-1.7-3.3c-0.3-0.6-0.6-1.3-0.9-2c-0.2-0.5-0.4-0.9-0.7-1.3c-0.5-1.1-1.1-2.1-1.6-3.2c-0.5-1-1-2.1-1.5-3.2
				s-1.1-2.1-1.6-3.1c-0.2-0.5-0.5-0.9-0.7-1.4c-0.6-1.2-1.3-2.4-1.9-3.7C108.3,40.5,108.3,40,108.3,39.6z"/>
			
				<linearGradient id="SVGID_14_" gradientUnits="userSpaceOnUse" x1="12.2935" y1="109.2105" x2="87.3108" y2="-2.965" gradientTransform="matrix(1 0 0 -1 0 153.8898)">
				<stop  offset="0" style="stop-color:#1E3A93"/>
				<stop  offset="0.9987" style="stop-color:#182446"/>
			</linearGradient>
			<path class="st15" d="M38.7,39.7c0.2,1-0.5,1.8-0.9,2.8c-0.5,1.3-1.2,2.5-1.8,3.7c-0.5,1.1-1.1,2.2-1.6,3.2
				c-0.5,1.1-1,2.2-1.5,3.2c-0.5,1.1-1,2.1-1.5,3.2c-0.5,1.1-1.1,2.3-1.6,3.4s-1.1,2.2-1.7,3.4c-0.2,0.5-0.5,1-0.7,1.5
				c-0.7,1.5-1.4,3.1-2.1,4.6c-0.7,1.6-1.5,3.1-2.3,4.6c-0.5,1.1-1,2.2-1.5,3.3c-0.5,1.1-1.1,2.2-1.6,3.2c-0.3,0.5-0.5,1.1-0.8,1.6
				c-0.4,0.7-0.8,1.6-1.4,2.2c-0.8,0.8-2.3,1.2-3.3,0.7c-1.7-0.9-3.5-1.8-5.3-2.6c-1-0.5-2.1-1-3.1-1.5c-1.5-0.8-2.3-2-2-3.8
				c0.2-1.2,0.8-2.3,1.4-3.4c0.6-1,1-2.2,1.5-3.2c0.2-0.4,0.4-0.8,0.6-1.2c0.3-0.6,0.7-1.3,1-1.9c0.2-0.5,0.5-0.9,0.7-1.4
				c0.7-1.5,1.4-3,2.1-4.5c0.7-1.5,1.5-2.9,2.2-4.4c0.5-1,1-2.1,1.5-3.1c0.6-1.2,1.1-2.3,1.7-3.5c0.5-1.1,1-2.2,1.5-3.3
				c0.3-0.6,0.6-1.2,0.9-1.8c0.3-0.5,0.6-1.1,0.8-1.6c0.7-1.5,1.4-3,2.1-4.5c0.5-1.1,1.1-2.3,1.6-3.4c0.3-0.6,0.5-1.3,0.9-1.8
				c0.7-0.8,1.6-1.4,2.8-1.1c0.6,0.1,1.2,0.4,1.8,0.7c1.1,0.5,2.2,1.1,3.3,1.7c1.1,0.6,2.3,1.1,3.4,1.7c0.4,0.2,0.8,0.4,1.3,0.7
				C38.4,37.5,38.8,38.5,38.7,39.7z"/>
		</g>
	</g>
</g>
<g id="iRCQhr.tif">
	<g>
		<linearGradient id="SVGID_15_" gradientUnits="userSpaceOnUse" x1="23.3179" y1="7.743" x2="120.0957" y2="172.4711">
			<stop  offset="0" style="stop-color:#1E3A93"/>
			<stop  offset="0.9987" style="stop-color:#182446"/>
		</linearGradient>
		<path class="st16" d="M133.5,102.1c0.9,0.1,1.5,0.1,2.1,0.2c1.4,0.2,1.9,0.8,1.9,2.1c0,1.3-0.6,1.8-2,2c-0.7,0.1-1.4,0-2.1,0
			c-9.4,0-18.8,0.1-28.2,0c-2.1,0-3.4,0.6-4.6,2.3c-1.4,2-3,3.8-4.5,5.8c-0.4,0.5-0.8,1.2-0.9,1.8c-0.1,2.3,0,4.6,0,6.7
			c1.9,0.7,6,0.7,8.3,0.1c0-1.5,0.1-3.1,0-4.7c-0.1-1.4,0.4-2.5,1.4-3.4c5.2-4.9,2.9-4.2,10.1-4.2c6.2,0,12.4,0,18.6,0
			c0.7,0,1.4,0,2.1,0.1c1.4,0.2,1.8,0.8,1.8,2.2c0,1.3-0.6,1.8-2,2c-0.6,0.1-1.2,0-1.8,0c-7,0-14,0-21.1,0c-2.4,0-4.6,2.1-4.7,4.5
			c0,1.2,0,2.4,0,3.8c1.2,0.1,2.1,0.2,3,0.2c7.6,0,15.1,0,22.7,0c0.7,0,1.4,0,2.1,0c1.4,0.1,1.9,0.7,1.9,2c0,1.3-0.6,1.9-1.9,2.1
			c-0.6,0.1-1.2,0-1.8,0c-39.9,0-79.9,0-119.8,0c-0.5,0-1.1,0-1.6,0c-1.5-0.1-2.2-0.8-2.2-2.1c0-1.3,0.6-2,2.2-2
			c3.9-0.1,7.8,0,11.7,0c0.9,0,1.8-0.1,2.8-0.1c0-8.5,0-16.8,0-25.2c-0.7-0.1-1.3-0.1-1.9-0.1c-3.6,0-7.2,0-10.8,0
			c-0.8,0-1.7-0.1-2.5-0.3c-1.2-0.2-1.7-1-1.5-2.1c0.1-1.1,0.7-1.9,1.9-1.9c0.2,0,0.5,0,0.7,0c5.3,0,10.5,0,15.8,0
			c2.1,0,2.5,0.4,2.8,2.5c0.1,0.8,0.1,1.7,0.1,2.5c0,7.4,0,14.8,0,22.2c0,2.5,0,2.5,2.5,2.6c1.8,0,3.7,0,5.5,0
			c0.7,0,1.5-0.1,2.5-0.2c0-1,0-1.8,0-2.6c0-7.9,0-15.7,0-23.6c0-3,0.3-3.4,3.2-3.4c10.5,0,21.1,0,31.6,0c3,0,3.4,0.4,3.4,3.3
			c0,6.3,0,12.5,0,18.8c0,0.6-0.1,1.2-0.1,1.8c-0.1,1-0.8,1.4-1.7,1.5c-1,0.1-1.9-0.1-2.2-1.2c-0.2-0.7-0.2-1.5-0.3-2.2
			c0-5,0-9.9,0-14.9c0-0.8,0-1.5,0-2.4c-2.1,0-4,0-6.3,0c0,1.7,0,3.3,0,5c0,2.8-0.4,3.1-3.2,3.2c-3.6,0-7.2,0-10.8,0
			c-2.5,0-2.9-0.5-3-3c0-1.7,0-3.3,0-5.2c-2.2,0-4.1,0-6,0c-0.5,1.6-0.7,22.2-0.1,25c0.8,0.1,1.6,0.2,2.4,0.2c13.2,0,26.4,0,39.6,0
			c2.4,0,2.7-0.1,2.4-2.4c-0.6-4.9,0.8-8.9,4.4-12.3c1.4-1.3,2.5-2.9,3.6-4.5c1.1-1.5,2.4-2.1,4.3-2.1c4.2,0.1,8.4,0,12.6,0
			c0.8,0,1.6-0.1,2.7-0.1c0.1-1,0.1-1.8,0.1-2.6c0-3.2,0-6.4,0-9.6c0-1.7,0.6-2.3,1.8-2.4c1.6-0.1,2.3,0.5,2.4,2.3
			c0.1,2.3,0,4.6,0,6.9c0,1.7,0,3.5,0,5.4c2.2,0,4,0,6,0c0-9.1,0-18.2,0-27.5c-2,0.7-3.9,1.4-6.1,2.2c0,1.4,0.1,2.9,0,4.3
			c-0.1,1.6-1.2,2.3-2.7,1.9c-1.1-0.3-1.4-1.1-1.5-2.1c0-1.4,0-2.7,0-4c-2.1-0.9-4-1.6-6.2-2.5c-0.1,0.8-0.2,1.5-0.2,2.2
			c0,6,0,11.9,0,17.9c0,0.6,0,1.2-0.1,1.8c-0.1,0.9-0.6,1.6-1.6,1.6c-1,0-2.1-0.1-2.3-1.3c-0.2-0.9-0.3-1.8-0.3-2.7
			c0-7.3,0-14.7-0.1-22c0-1.5-0.5-3-0.8-4.4c-0.4-1.6-0.9-3.2-1.1-4.9c-0.1-1-0.3-1.7-1.1-2.4c-5.5-5.5-11-11-16.5-16.5
			c-1.4-1.4-3.4-1.4-4.6,0.1c-3.9,5-7.7,10-11.6,15.1c-0.1,0.2-0.2,0.4-0.3,0.9c1.8,1.2,3.6,2.4,5.5,3.6c2.4,1.5,4.8,3,7.2,4.5
			c2.3,1.5,2.5,2.2,1.6,4.7c-1.8,4.9-3.6,9.8-5.5,14.8c-0.8,2-1.6,2.4-3.7,1.8c-1.6-0.5-3.2-1-4.8-1.6c-2.2-0.8-2.6-1.6-2.1-3.8
			c0.4-2.1,0.8-4.2,1.3-6.3c0.3-1.2,0-1.9-1.1-2.4c-1.6-0.7-3.1-1.6-4.7-2.3c-0.7-0.3-1.6-0.3-2.4-0.4c-0.6,0-1.2,0.2-1.8,0.1
			c-3.7-0.8-6.4,1.6-9.4,2.9c-0.9,0.4-0.9,1.1-0.7,1.9c0.5,2,0.9,4,1.2,6c0.5,3,0.3,3.4-2.5,4.4c-1.5,0.5-3,1.1-4.6,1.5
			c-1.7,0.5-2.6,0-3.2-1.6c-2-5.3-4-10.5-6-15.8c-0.7-1.9-0.4-2.6,1.5-3.8c3.7-2.4,7.5-4.8,11.2-7.1c1.3-0.8,2.2-1.7,2.8-3.2
			c1.1-2.9,3.2-4.8,6.1-5.7c1.5-0.4,2.5-1.3,3.3-2.6c3.1-5,6.3-9.9,9.5-14.8c0.8-1.1,0.9-2.2,0.5-3.4c-2.7-10.5,6.8-19.8,16.4-17.9
			c1.3,0.3,2.7,0.6,3.9,1c1.6,0.6,2.1,1.6,1.6,2.7c-0.5,1.3-1.4,1.7-3,1.3c-1.3-0.3-2.6-0.8-4-0.9c-5.5-0.4-10.1,3.4-11,8.8
			c-0.9,5.3,2.3,10.3,7.5,11.8c4.1,1.2,7.5,0,10.4-2.9c3-3,3.5-6.6,2.5-10.6c-0.1-0.5-0.4-1-0.5-1.5c-0.2-1.2,0.4-1.9,1.4-2.3
			c1-0.4,2-0.1,2.5,1c1.2,2.5,1.7,5.1,1.4,7.8c-0.2,1.3,0.2,2.2,1.1,3c4.6,4.6,9.2,9.1,13.8,13.8c0.9,0.9,1.8,1.2,3,1
			c5.2-0.8,9.8,0.6,13.5,4.5c3.4,3.6,5.3,10.2,2.8,15.5c-0.8,1.6-1.1,3.3-1,5.1c0.1,8.9,0,17.9,0,26.8
			C133.4,100,133.5,100.9,133.5,102.1z M120.8,51.2c-6,0-10.9,4.8-10.8,10.7c0,5.6,4.9,10.4,10.6,10.4c5.9,0,10.6-4.7,10.6-10.6
			C131.2,56,126.5,51.3,120.8,51.2z M92.2,41.3c3.1,3.7,13.2,13.6,14.6,14.3c1.7-2,3.3-4.1,4.8-5.9C107,45.1,102.5,40.5,98,36
			C96.1,37.7,94.2,39.5,92.2,41.3z M73.8,37.4c-3.2,4.7-6.2,9.4-9.1,14.2c1.7,1.2,3.1,2.2,4.8,3.4c3.4-4.4,6.7-8.8,10.2-13.3
			c-1.3-0.8-2.3-1.3-3.2-1.9C75.6,39.1,74.8,38.3,73.8,37.4z M67.3,61.9c0.3-3.1-2.4-6.4-6.3-6.4c-3.4,0-6.3,3-6.2,6.3
			c0,3.3,3,6.3,6.3,6.2C65.2,68,67.5,64.7,67.3,61.9z M50.6,64.7c-3.5,2.2-6.8,4.3-10.3,6.5c1.7,4.5,3.3,8.8,4.9,13.1
			c2.6-0.2,2.6-0.3,2.3-2.4c-0.3-2-0.8-4-1.1-6.1c-0.3-1.9,0.1-2.6,1.7-3.5c0.8-0.4,1.6-0.8,2.4-1.3c0.9-0.5,1.8-0.9,2.9-1.5
			C52.5,67.8,51.7,66.4,50.6,64.7z M68.7,69.6c1.7,0.9,3.3,1.7,4.8,2.5c2.5,1.3,2.7,1.8,2.1,4.5c-0.4,2-0.8,4-1.2,6
			c-0.2,0.9,0.2,1.4,1.1,1.6c0.9,0.2,1.4,0,1.8-0.9c1.3-3.6,2.7-7.2,4.1-10.9c0.1-0.4,0.2-0.9,0.2-1.4c-3.4-2.2-6.7-4.3-10.1-6.4
			C70.6,66.2,69.8,67.7,68.7,69.6z M57,102.1c2.8,0.1,5.4,0.3,8-0.1c0-1.4,0-2.6,0-3.8c-2.8,0-5.3,0-8,0C57,99.4,57,100.6,57,102.1z
			"/>
		<linearGradient id="SVGID_16_" gradientUnits="userSpaceOnUse" x1="3.8687" y1="19.1695" x2="100.6464" y2="183.8975">
			<stop  offset="0" style="stop-color:#1E3A93"/>
			<stop  offset="0.9987" style="stop-color:#182446"/>
		</linearGradient>
		<path class="st17" d="M73.9,140.5c-19.8,0-39.7,0-59.5,0c-0.7,0-1.4,0.1-2.1,0c-1.4-0.2-2.2-1-2.2-2.2c0-1.1,0.8-1.9,2.1-2.1
			c0.5-0.1,1.1-0.1,1.6-0.1c40.1,0,80.1,0,120.2,0c0.7,0,1.4,0,2,0.1c1,0.2,1.6,1,1.6,2c0,1.1-0.6,1.9-1.7,2.1
			c-0.7,0.1-1.5,0.1-2.3,0.1C113.7,140.5,93.8,140.5,73.9,140.5z"/>
		<linearGradient id="SVGID_17_" gradientUnits="userSpaceOnUse" x1="18.3625" y1="10.6543" x2="115.1402" y2="175.3824">
			<stop  offset="0" style="stop-color:#1E3A93"/>
			<stop  offset="0.9987" style="stop-color:#182446"/>
		</linearGradient>
		<path class="st18" d="M33.7,59.7c-10.4,0-19.2-6.5-22.5-16.3c-3.1-9.4,0.3-19.7,8.3-25.9c7.7-5.9,17.8-6,25.8-1.4
			c0.4,0.2,0.8,0.5,1.1,0.8c0.8,0.8,1,1.7,0.4,2.7c-0.5,0.9-1.4,1.2-2.4,0.8c-0.7-0.2-1.4-0.7-2-1c-11-5.8-24.3-0.1-27.5,11.7
			C11.7,43.7,21,55.6,33.9,55.4c14-0.1,23.1-15.6,16.4-28c-0.3-0.5-0.6-1-0.9-1.6c-0.6-1.3-0.4-2.4,0.6-3c1-0.6,2.2-0.4,2.9,0.9
			c1,1.8,2,3.6,2.7,5.5c3.9,11.6-2.4,24.6-13.9,28.9c-1.3,0.5-2.7,0.9-4.2,1.2C36.3,59.6,34.9,59.6,33.7,59.7z"/>
		<linearGradient id="SVGID_18_" gradientUnits="userSpaceOnUse" x1="60.6626" y1="-14.1969" x2="157.4403" y2="150.5311">
			<stop  offset="0" style="stop-color:#1E3A93"/>
			<stop  offset="0.9987" style="stop-color:#182446"/>
		</linearGradient>
		<path class="st19" d="M79,27.9c0-3.6,2.7-6.4,6.3-6.4c3.5,0,6.3,2.6,6.3,6.1c0.1,3.6-2.7,6.5-6.2,6.6C82,34.3,79,31.4,79,27.9z
			 M87.4,28c0.1-1.1-0.7-2.1-1.8-2.2c-1.1-0.1-2.1,0.7-2.3,1.8c-0.2,1.2,0.7,2.3,1.9,2.3C86.4,29.9,87.3,29.1,87.4,28z"/>
		<linearGradient id="SVGID_19_" gradientUnits="userSpaceOnUse" x1="72.0517" y1="-20.8881" x2="168.8295" y2="143.84">
			<stop  offset="0" style="stop-color:#1E3A93"/>
			<stop  offset="0.9987" style="stop-color:#182446"/>
		</linearGradient>
		<path class="st20" d="M114.3,61.8c0-3.6,2.9-6.4,6.4-6.4c3.4,0.1,6.2,2.9,6.3,6.3c0.1,3.5-2.8,6.5-6.3,6.5
			C117.1,68.2,114.3,65.4,114.3,61.8z M120.6,59.8c-1.1,0-2,0.9-2.1,2c0,1.2,1,2.2,2.2,2.1c1.1-0.1,1.9-1,1.9-2.1
			C122.6,60.6,121.7,59.8,120.6,59.8z"/>
		<linearGradient id="SVGID_20_" gradientUnits="userSpaceOnUse" x1="27.7887" y1="5.1164" x2="124.5664" y2="169.8445">
			<stop  offset="0" style="stop-color:#1E3A93"/>
			<stop  offset="0.9987" style="stop-color:#182446"/>
		</linearGradient>
		<path class="st21" d="M61.1,59.7c1.1,0,2,0.9,2,2c0,1.2-0.9,2.2-2.1,2.2c-1.1,0-2-1-2.1-2.1C59,60.7,60,59.7,61.1,59.7z"/>
		<g>
			<linearGradient id="SVGID_21_" gradientUnits="userSpaceOnUse" x1="18.8682" y1="10.3572" x2="115.646" y2="175.0853">
				<stop  offset="0" style="stop-color:#1E3A93"/>
				<stop  offset="0.9987" style="stop-color:#182446"/>
			</linearGradient>
			<path class="st22" d="M43.3,30.1h-3.6c-0.3-1.7-1.5-2.5-3.6-2.5v7l5.1,3.4c1.4,0.9,2.1,2.1,2.1,3.6v1.3c0,3-2.4,4.7-7.2,5.1v2.6
				h-3.6V48c-4.8-0.3-7.2-2-7.2-5.1h3.6l0,0.4c0,1.2,1.2,1.9,3.6,2.1v-7L27.3,35c-1.4-0.9-2.1-2.1-2.1-3.6v-1.3c0-3,2.4-4.7,7.2-5.1
				v-2.6h3.6V25C40.6,25,43,26.7,43.3,30.1z M32.5,27.6c-1.5,0.4-2.2,1.2-2.2,2.4c0,0.5,0.2,0.9,0.6,1.3c0.4,0.4,0.9,0.9,1.7,1.4
				V27.6z M36.1,40.4v5.1c1.5-0.4,2.2-1.2,2.2-2.4C38.3,42.3,37.6,41.4,36.1,40.4z"/>
		</g>
	</g>
</g>
</svg>
