<?xml version="1.0" encoding="utf-8"?>
<!-- Generator: Adobe Illustrator 25.2.0, SVG Export Plug-In . SVG Version: 6.00 Build 0)  -->
<svg version="1.1" xmlns="http://www.w3.org/2000/svg" xmlns:xlink="http://www.w3.org/1999/xlink" x="0px" y="0px"
	 viewBox="0 0 147.69 153.46" style="enable-background:new 0 0 147.69 153.46;" xml:space="preserve">
<style type="text/css">
	.st0{display:none;}
	.st1{display:inline;}
	.st2{fill:url(#SVGID_1_);}
	.st3{fill:url(#SVGID_2_);}
	.st4{fill:url(#SVGID_3_);}
	.st5{fill:url(#SVGID_4_);}
	.st6{fill:url(#SVGID_5_);}
	.st7{fill:url(#SVGID_6_);}
	.st8{fill:url(#SVGID_7_);}
	.st9{fill:url(#SVGID_8_);}
	.st10{fill:url(#SVGID_9_);}
	.st11{fill:url(#SVGID_10_);}
	.st12{fill:url(#SVGID_11_);}
	.st13{fill:url(#SVGID_12_);}
	.st14{fill:url(#SVGID_13_);}
	.st15{fill:url(#SVGID_14_);}
	.st16{fill:url(#SVGID_15_);}
	.st17{fill:url(#SVGID_16_);}
	.st18{fill:url(#SVGID_17_);}
	.st19{fill:url(#SVGID_18_);}
	.st20{fill:url(#SVGID_19_);}
	.st21{fill:url(#SVGID_20_);}
</style>
<g id="圖層_1" class="st0">
	<g id="ZVYF79.tif" class="st1">
		<g>
			<linearGradient id="SVGID_1_" gradientUnits="userSpaceOnUse" x1="35.2788" y1="19.9319" x2="95.0191" y2="108.2436">
				<stop  offset="0" style="stop-color:#1E3A93"/>
				<stop  offset="0.9987" style="stop-color:#182446"/>
			</linearGradient>
			<path class="st2" d="M100.3,133.51c-0.41,1.41-0.72,2.59-1.1,3.74c-1.02,3.15-3.1,3.92-5.94,2.2c-0.64-0.39-1.24-0.83-1.81-1.31
				c-1.07-0.9-1.78-0.68-2.21,0.62c-0.05,0.16-0.08,0.32-0.15,0.48c-2.05,4.92-4.63,5.34-8.27,1.35c-0.38-0.42-0.77-0.83-0.97-1.05
				c-2.04,1.62-3.88,4.21-5.88,4.34c-1.79,0.12-3.76-2.48-5.72-3.92c-1.61,0.89-3.87,3.15-5.87,2.95c-1.79-0.18-3.31-3.08-5.29-5.14
				c-0.3,0.2-1.23,0.78-2.15,1.39c-3.28,2.2-5.74,1.25-6.62-2.58c-0.7-3.07-0.7-3.07-3.52-1.77c-4.01,1.84-6.23,0.5-6.47-3.91
				c-0.04-0.81-0.1-1.63-0.14-2.31c-2.62,0-5.72,0.9-7.33-0.27c-1.46-1.05-1.28-4.36-1.93-7.12c-0.65,0.03-1.92,0.12-3.2,0.13
				c-3.36,0.05-4.73-1.65-3.95-4.89c0.17-0.73,0.67-1.47,0.56-2.14c-0.1-0.64-0.73-1.62-1.25-1.7c-6.67-1.12-7.16-2.02-4.19-8.16
				c0.14-0.28,0.19-0.61,0.33-1.09c-1.19-0.35-2.29-0.65-3.37-0.99c-3.65-1.12-4.39-3.14-2.32-6.35c0.36-0.56,0.77-1.09,1.22-1.57
				c0.9-0.98,0.52-1.55-0.52-2.09c-6.2-3.2-6.34-4.25-1.29-9.09c0.17-0.16,0.28-0.39,0.31-0.43c-1.63-1.97-4.29-3.79-4.42-5.78
				c-0.12-1.79,2.54-3.76,4.05-5.74c-0.93-1.62-3.34-3.92-3.05-5.81c0.29-1.89,3.27-3.37,5.35-5.29c-0.28-0.38-0.91-1.21-1.49-2.06
				c-2.33-3.41-1.38-5.84,2.63-6.76c3.09-0.71,3.09-0.71,1.75-3.46c-1.92-3.94-0.57-6.27,3.8-6.53c0.81-0.05,1.63-0.09,2.82-0.16
				c-0.26-1.13-0.43-2.06-0.7-2.96c-1.22-4.11,0.39-6.11,4.63-5.76c3.08,0.26,3.08,0.26,2.83-2.77c-0.36-4.3,1.61-5.91,5.69-4.69
				c0.86,0.26,1.72,0.47,2.97,0.8c0.09-1.21,0.16-2.15,0.22-3.09c0.3-4.13,2.51-5.46,6.22-3.74c2.98,1.38,2.98,1.38,3.78-1.81
				c0.97-3.85,3.38-4.75,6.66-2.49c0.85,0.59,1.68,1.22,2.72,1.98c0.65-1.41,1.1-2.55,1.69-3.61c1.62-2.96,3.72-3.3,6.25-1.07
				c0.56,0.49,1.07,1.05,1.55,1.62c0.88,1.04,1.62,1.08,2.24-0.22c0.04-0.07,0.08-0.14,0.13-0.21c3.29-4.87,5.38-4.87,8.61-0.03
				c0.31,0.46,0.7,0.87,1.27,1.56c0.67-0.71,1.22-1.28,1.76-1.85c3.28-3.45,6-3.06,7.64,1.35c0.83,2.24,1.41,2.57,3.35,0.99
				c3.75-3.06,6.01-2.2,7.31,2.47c0.24,0.85,0.49,1.7,0.81,2.78c1.13-0.57,1.99-1.03,2.87-1.45c3.65-1.75,5.73-0.58,6.15,3.46
				c0.35,3.35,0.35,3.35,3.57,2.47c3.73-1.02,5.46,0.32,5.33,4.12c-0.02,0.66-0.1,1.33-0.17,1.99c-0.14,1.25,0.23,1.97,1.65,1.64
				c0.16-0.04,0.33-0.07,0.49-0.09c5.34-0.63,6.98,1.36,5.32,6.44c-0.2,0.6-0.3,1.24-0.52,2.15c1.14,0.07,2.02,0.13,2.91,0.19
				c4.29,0.28,5.61,2.41,3.9,6.32c-1.29,2.93-1.29,2.93,1.72,3.67c3.82,0.94,4.75,3.38,2.53,6.66c-0.59,0.87-1.21,1.71-1.5,2.13
				c2.01,1.88,4.89,3.33,5.26,5.27c0.35,1.8-1.96,4.12-2.98,5.98c1.32,1.69,4.01,3.62,3.99,5.53c-0.02,1.94-2.71,3.85-4.44,6.04
				c0.64,0.58,1.64,1.33,2.45,2.24c2.13,2.41,1.77,4.48-1.02,6.1c-0.71,0.41-1.64,0.52-2.23,1.04c-0.45,0.39-0.9,1.42-0.7,1.81
				c3.47,6.54,3.49,6.53-3.71,8.93c-0.15,0.05-0.26,0.19-0.08,0.05c0.36,2.63,1.67,5.58,0.73,7.32c-0.87,1.61-4.14,1.94-6.3,2.81
				c0,2.05,0.91,5.15-0.26,6.62c-1.16,1.46-4.39,1.27-7.09,1.89c0,0.37-0.05,1.33,0.01,2.27c0.25,4.52-1.63,6.19-5.84,4.66
				c-2.48-0.9-2.96-0.33-3.06,2.08c-0.19,4.73-2.47,5.91-6.77,3.76C101.9,134.28,101.25,133.97,100.3,133.51z M73.75,127.05
				c27.64,0.01,50.23-22.44,50.25-49.94c0.02-27.54-22.36-50.13-49.73-50.19c-28.02-0.07-50.39,22.18-50.45,50.17
				C23.76,104.48,46.29,127.03,73.75,127.05z"/>
			<linearGradient id="SVGID_2_" gradientUnits="userSpaceOnUse" x1="35.263" y1="19.9426" x2="95.0032" y2="108.2543">
				<stop  offset="0" style="stop-color:#1E3A93"/>
				<stop  offset="0.9987" style="stop-color:#182446"/>
			</linearGradient>
			<path class="st3" d="M73.94,119.25c-23.43-0.06-42.46-18.86-42.44-41.91c0.02-23.87,18.9-42.76,42.7-42.73
				c23.14,0.03,42.03,19.1,41.96,42.37C116.09,100.53,97.34,119.31,73.94,119.25z M73.95,41.05c-20.29,0.13-36.14,16.17-35.99,36.41
				c0.14,19.67,16.56,35.67,36.47,35.53c19.19-0.13,35.65-16.77,35.48-35.88C109.74,57.11,93.59,40.92,73.95,41.05z"/>
			<linearGradient id="SVGID_3_" gradientUnits="userSpaceOnUse" x1="38.258" y1="17.9165" x2="97.9982" y2="106.2282">
				<stop  offset="0" style="stop-color:#1E3A93"/>
				<stop  offset="0.9987" style="stop-color:#182446"/>
			</linearGradient>
			<path class="st4" d="M100.71,62.97c-0.47,0.67-0.82,1.24-1.24,1.74C90.62,75.26,81.74,85.8,72.92,96.38
				c-1.15,1.38-1.99,1.52-3.44,0.34c-6.88-5.61-13.82-11.16-20.82-16.63c-1.58-1.24-1.66-2.17-0.36-3.61
				c1.45-1.59,2.76-3.32,4.06-5.04c0.88-1.16,1.65-1.29,2.88-0.37c4.31,3.23,8.76,6.29,13.06,9.55c1.67,1.26,2.69,1.28,4.07-0.47
				c5.86-7.43,11.9-14.72,17.76-22.14c1.37-1.74,2.41-2.18,4.15-0.52c1.55,1.48,3.37,2.69,5.04,4.05
				C99.82,61.94,100.21,62.45,100.71,62.97z"/>
		</g>
	</g>
</g>
<g id="圖層_2" class="st0">
	<g class="st1">
		<g id="PAMslD.tif">
			<g>
				<linearGradient id="SVGID_4_" gradientUnits="userSpaceOnUse" x1="19.0342" y1="28.5793" x2="85.2953" y2="148.2449">
					<stop  offset="0" style="stop-color:#1E3A93"/>
					<stop  offset="0.9987" style="stop-color:#182446"/>
				</linearGradient>
				<path class="st5" d="M68.61,48.84c-0.9,0.84-1.77,1.64-2.63,2.46c-2.32,2.21-4.13,4.77-4.99,7.87
					c-1.63,5.93-0.36,13.01,5.14,17.28c1.19,0.92,2.56,1.6,3.88,2.34c0.43,0.24,0.63,0.47,0.42,0.96
					c-2.55,5.98-5.25,11.88-10.02,16.52c-1.64,1.6-3.55,2.72-5.8,3.21c-1.89,0.42-3.7-0.01-5.46-0.67
					c-1.52-0.57-3.01-1.26-4.54-1.81c-0.73-0.26-1.52-0.43-2.29-0.44c-2.29-0.04-4.62-0.28-6.84,0.53c-1.75,0.63-3.44,1.43-5.2,2.02
					c-2.42,0.82-4.82,0.69-7.1-0.53c-3.23-1.73-5.48-4.47-7.52-7.41c-3.14-4.52-5.61-9.39-7.17-14.68
					c-1.62-5.48-2.17-11.06-1.35-16.75c0.76-5.27,2.89-9.86,6.86-13.49c3.93-3.6,8.64-5.02,13.86-4.4c2.36,0.28,4.71,1.03,6.95,1.89
					c3.2,1.22,6.24,1.24,9.42-0.02c2.15-0.85,4.41-1.54,6.69-1.95C57.72,40.58,64.55,43.1,68.61,48.84z"/>
				<linearGradient id="SVGID_5_" gradientUnits="userSpaceOnUse" x1="37.6708" y1="18.2598" x2="103.932" y2="137.9254">
					<stop  offset="0" style="stop-color:#1E3A93"/>
					<stop  offset="0.9987" style="stop-color:#182446"/>
				</linearGradient>
				<path class="st6" d="M38.35,40.31c0.46-5.78,3.12-10.88,8.95-13.88c1.77-0.91,3.84-1.26,5.78-1.85
					c0.58-0.18,0.68,0.19,0.67,0.68c-0.02,4.26-1.32,8.06-4.05,11.35c-2.33,2.82-5.16,4.84-8.8,5.59c-0.34,0.07-0.69,0.11-1.03,0.14
					C38.29,42.46,38.29,42.45,38.35,40.31z"/>
			</g>
		</g>
		<g>
			<g>
				<linearGradient id="SVGID_6_" gradientUnits="userSpaceOnUse" x1="32.194" y1="21.2925" x2="98.4551" y2="140.9581">
					<stop  offset="0" style="stop-color:#1E3A93"/>
					<stop  offset="0.9987" style="stop-color:#182446"/>
				</linearGradient>
				<path class="st7" d="M76.26,85.39c-1.39,0-2.58,0.49-3.55,1.46c-0.97,0.97-1.46,2.14-1.46,3.5v20.92c0,1.4,0.49,2.58,1.46,3.55
					c0.97,0.97,2.16,1.46,3.55,1.46c1.39,0,2.57-0.49,3.53-1.46c0.96-0.97,1.44-2.16,1.44-3.55V90.35c0-1.36-0.49-2.53-1.46-3.5
					C78.79,85.88,77.62,85.39,76.26,85.39z"/>
				<linearGradient id="SVGID_7_" gradientUnits="userSpaceOnUse" x1="63.7344" y1="3.8279" x2="129.9955" y2="123.4935">
					<stop  offset="0" style="stop-color:#1E3A93"/>
					<stop  offset="0.9987" style="stop-color:#182446"/>
				</linearGradient>
				<path class="st8" d="M116.54,66.61l3.45-6.37c0.23-0.42,0.15-0.75-0.24-0.97c-0.42-0.2-0.75-0.1-0.97,0.29l-3.5,6.42
					c-3.08-1.36-6.34-2.05-9.78-2.05c-3.44,0-6.7,0.68-9.78,2.05l-3.5-6.42c-0.23-0.39-0.55-0.49-0.97-0.29
					c-0.39,0.23-0.47,0.55-0.24,0.97l3.45,6.37c-3.5,1.79-6.29,4.27-8.37,7.47c-2.08,3.2-3.11,6.69-3.11,10.48h45
					c0-3.79-1.04-7.29-3.11-10.48C122.78,70.89,120.01,68.4,116.54,66.61z M96.57,75.88c-0.37,0.37-0.82,0.56-1.34,0.56
					c-0.52,0-0.96-0.19-1.31-0.56c-0.36-0.37-0.53-0.82-0.53-1.34c0-0.52,0.18-0.96,0.53-1.34c0.36-0.37,0.79-0.56,1.31-0.56
					s0.96,0.19,1.34,0.56c0.37,0.37,0.56,0.82,0.56,1.34C97.13,75.06,96.94,75.51,96.57,75.88z M117.08,75.88
					c-0.36,0.37-0.8,0.56-1.31,0.56c-0.52,0-0.97-0.19-1.34-0.56c-0.37-0.37-0.56-0.82-0.56-1.34c0-0.52,0.19-0.96,0.56-1.34
					c0.37-0.37,0.82-0.56,1.34-0.56c0.52,0,0.96,0.19,1.31,0.56c0.36,0.37,0.53,0.82,0.53,1.34
					C117.61,75.06,117.43,75.51,117.08,75.88z"/>
				<linearGradient id="SVGID_8_" gradientUnits="userSpaceOnUse" x1="53.5618" y1="9.4607" x2="119.823" y2="129.1263">
					<stop  offset="0" style="stop-color:#1E3A93"/>
					<stop  offset="0.9987" style="stop-color:#182446"/>
				</linearGradient>
				<path class="st9" d="M83.17,118.71c0,1.49,0.52,2.76,1.56,3.79c1.04,1.04,2.3,1.56,3.79,1.56h3.6l0.05,11.04
					c0,1.39,0.49,2.58,1.46,3.55c0.97,0.97,2.14,1.46,3.5,1.46c1.39,0,2.58-0.49,3.55-1.46s1.46-2.16,1.46-3.55v-11.04h6.71v11.04
					c0,1.39,0.49,2.58,1.46,3.55s2.16,1.46,3.55,1.46c1.39,0,2.58-0.49,3.55-1.46s1.46-2.16,1.46-3.55v-11.04h3.65
					c1.46,0,2.71-0.52,3.75-1.56c1.04-1.04,1.56-2.3,1.56-3.79v-32.4H83.17V118.71z"/>
				<linearGradient id="SVGID_9_" gradientUnits="userSpaceOnUse" x1="76.9907" y1="-3.5124" x2="143.2519" y2="116.1533">
					<stop  offset="0" style="stop-color:#1E3A93"/>
					<stop  offset="0.9987" style="stop-color:#182446"/>
				</linearGradient>
				<path class="st10" d="M134.74,85.39c-1.36,0-2.53,0.48-3.5,1.44c-0.97,0.96-1.46,2.13-1.46,3.53v20.92
					c0,1.4,0.49,2.58,1.46,3.55c0.97,0.97,2.14,1.46,3.5,1.46c1.39,0,2.58-0.49,3.55-1.46c0.97-0.97,1.46-2.16,1.46-3.55V90.35
					c0-1.39-0.49-2.57-1.46-3.53C137.31,85.87,136.13,85.39,134.74,85.39z"/>
			</g>
		</g>
		<linearGradient id="SVGID_10_" gradientUnits="userSpaceOnUse" x1="42.5581" y1="15.5536" x2="108.8193" y2="135.2192">
			<stop  offset="0" style="stop-color:#1E3A93"/>
			<stop  offset="0.9987" style="stop-color:#182446"/>
		</linearGradient>
		<polygon class="st11" points="50.25,143.89 44.53,143.89 102.62,9.57 108.34,9.57 		"/>
	</g>
</g>
<g id="圖層_3" class="st0">
	<g id="KMpQuI.tif" class="st1">
		<g>
			<linearGradient id="SVGID_11_" gradientUnits="userSpaceOnUse" x1="15.1087" y1="17.8644" x2="129.5729" y2="132.3286">
				<stop  offset="0" style="stop-color:#1E3A93"/>
				<stop  offset="0.9987" style="stop-color:#182446"/>
			</linearGradient>
			<path class="st12" d="M121.08,101.72c-0.29,0.78-0.44,1.52-0.81,2.11c-6.61,10.46-15.26,18.5-26.98,23.03
				c-7.33,2.83-14.88,4.02-22.66,3.55c-9.6-0.58-18.52-3.41-26.44-9.01c-1.68-1.19-3.21-1.86-5.47-1.48
				c-3.84,0.65-7.38-3.09-7.13-7.03c0.04-0.69,0.22-1.36,0.37-2.2c-8.96-11.94-13.42-25.24-11.4-40.43c1.64-1.02,3.07-1.91,4.65-2.9
				c1.06,2.11,0.75,4.06,0.49,5.85c-0.77,5.34-0.03,10.55,1.23,15.67c1.61,6.54,4.63,12.47,8.93,17.87
				c2.27,0.75,5.03-0.46,7.16,1.95c1.89,2.13,1.77,4.59,2.34,7.15c3.68,2.35,7.29,4.99,12.4,6.08c-1.24-2.03-2.36-3.47-3.06-5.09
				c-1.78-4.11-3.5-8.26-4.99-12.48c-0.67-1.89-1.7-2.8-3.6-3.2c-3.12-0.65-6.17-1.61-9.29-2.26c-1.69-0.35-2.54-1.27-3-2.83
				c-0.31-1.04-0.81-2.03-1.38-3.44c2.98-0.15,5.15,1.21,7.49,1.75c2.41,0.55,4.85,1.02,7.7,1.62c-0.15-1.28-0.25-2.17-0.36-3.07
				c-0.22-1.89-0.5-3.77-0.64-5.66c-0.22-3.02-0.58-6.06-0.45-9.07c0.22-5.09,0.75-10.17,1.21-15.25c0.14-1.55,0.51-3.07,0.7-4.62
				c0.06-0.47-0.13-0.98-0.24-1.64c-1.83,0.17-3.59,0.09-5.2,0.54c-6.14,1.7-12.43,3.02-18.13,6.07c-3.6,1.93-7.03,4.06-9.54,7.39
				c-2.45,3.25-2.41,6.64-0.16,9.88c1.87,2.7,1.54,5.87,2.69,8.7c-0.17,0.15-0.35,0.29-0.52,0.44c-0.63-0.32-1.35-0.53-1.87-0.97
				c-3.08-2.62-5.78-5.66-6.73-9.65c-1.1-4.6-0.22-9.01,3.07-12.6c3.8-4.14,8.37-7.18,13.6-9.32c6.11-2.5,12.41-4.21,18.88-5.51
				c3.72-0.75,6.36-3.16,8.03-6.68c1.85-3.9,3.93-7.7,5.91-11.54c0.3-0.59,0.62-1.18,1.21-2.3c-1.11,0.2-1.74,0.22-2.3,0.43
				c-9.01,3.35-16.28,9.05-22.1,16.64c-2.04,2.66-5.07,2.73-8.18,3.77c10.47-23.14,46.48-41.36,79.36-18.55
				c7.3-1.5,11.03,2.76,9.79,8.61c2.55,4.54,4.99,8.71,7.25,12.98c2.71,5.13,3.82,10.74,4.4,16.45c0.31,3.08,0.91,6.14,0.17,9.29
				c-0.7,2.96-2.48,4.73-5.95,5.1c-0.25-6.87,0.89-13.79-0.96-20.59c-1.83-6.7-4.72-12.82-9.05-18.44
				c-2.38-0.25-4.91,0.06-7.02-1.85c-2.15-1.95-2.08-4.44-2.3-6.78c-3-2.72-8.8-5.87-12.19-6.61c0.19,0.47,0.29,0.89,0.51,1.22
				c3.42,4.89,5.57,10.35,7.23,16.03c0.54,1.86,1.42,2.89,3.5,3.21c2.98,0.47,5.88,1.41,8.82,2.13c1.78,0.44,3.16,1.23,3.68,3.21
				c0.3,1.13,0.97,2.17,1.77,3.85c-1.52-0.22-2.49-0.26-3.4-0.5c-3.91-1.05-7.81-2.17-12.11-3.37c1.67,13.28,1.75,26.04-0.81,39.13
				c1.41,0,2.53,0.19,3.57-0.03c8.23-1.78,16.34-3.99,23.61-8.38c2.5-1.51,4.83-3.36,6.4-5.98c1.68-2.8,1.91-5.66,0-8.31
				c-1.95-2.69-1.9-5.88-2.77-8.83c-0.11-0.36,0.09-0.82,0.18-1.39c0.54,0.13,1.03,0.1,1.31,0.33c3.74,3.05,7.05,6.38,7.99,11.44
				c0.84,4.54-0.46,8.36-3.4,11.78c-3.83,4.47-8.79,7.26-14.12,9.49c-6.1,2.55-12.45,4.25-18.96,5.37c-3.02,0.52-5.42,2.61-6.62,5
				c-2.59,5.17-4.72,10.57-8.17,15.38c3.19-0.65,6.03-2,8.82-3.47c6.34-3.33,11.28-8.26,15.73-13.77
				C114.36,103.17,117.92,101.65,121.08,101.72z M57.81,55.02c-1.14,1.12-2.05,1.82-2.73,2.71c-0.77,0.99-1.72,2.08-1.91,3.23
				c-0.61,3.66-1.11,7.36-1.27,11.06c-0.33,7.62-0.1,15.23,1.05,22.79c0.1,0.66,0.35,1.3,0.57,2.14
				c12.16,2.26,24.29,2.06,36.41,1.12c0.67-0.89,1.28-1.71,2.08-2.15c1.45-0.81,2.09-2.04,2.26-3.57c0.45-3.95,1-7.89,1.23-11.86
				c0.42-7.19-0.12-14.36-1.07-21.49c-0.12-0.9-0.53-1.76-0.77-2.54C81.56,54.14,69.6,55.22,57.81,55.02z M54.83,102.91
				c0.87,2.39,1.5,4.25,2.22,6.07c1.83,4.62,4.27,8.86,7.83,12.42c4.69,4.69,11.42,4.39,16.07,0.05c4.23-3.95,6.83-8.9,9.14-14.06
				c0.41-0.91,0.49-1.96,0.84-3.44c-4.32,0.07-8.25,0.01-12.21,0.22c-3.87,0.2-7.78-0.03-11.66-0.24
				C63.15,103.7,59.24,103.28,54.83,102.91z M92.44,50.32c-0.69-1.84-1.35-3.41-1.87-5.02c-1.66-5.11-4.32-9.53-8.25-13.29
				c-4.19-4.01-9.69-4.7-14.36-1.26c-6.3,4.63-9.09,11.46-11.8,18.87c6.27-0.13,12.11-0.44,17.95-0.32
				C80.04,49.41,85.96,49.94,92.44,50.32z"/>
		</g>
	</g>
</g>
<g id="圖層_4" class="st0">
	<g id="_x33_vKcqs.tif" class="st1">
		<g>
			<linearGradient id="SVGID_12_" gradientUnits="userSpaceOnUse" x1="34.5028" y1="29.8269" x2="109.5201" y2="142.0024">
				<stop  offset="0" style="stop-color:#1E3A93"/>
				<stop  offset="0.9987" style="stop-color:#182446"/>
			</linearGradient>
			<path class="st13" d="M61.38,124.44c-1.14,0.91-2.02,1.79-3.05,2.4c-1.59,0.93-3.28,1.27-5.12,0.49c-1.38-0.58-2.45-1.5-3.39-2.6
				c-0.59-0.7-1.02-1.52-1.01-2.49c0.01-1.04-0.15-2.11,0.48-3.06c0.09-0.14,0.12-0.34,0.11-0.51c-0.01-0.16-0.07-0.35-0.18-0.44
				c-0.07-0.06-0.31,0-0.4,0.08c-0.95,0.88-2.14,1.28-3.34,1.54c-0.79,0.17-1.69,0.06-2.5-0.1c-1.65-0.33-2.93-1.31-3.98-2.59
				c-1.16-1.42-1.47-3.09-1.2-4.86c0.13-0.88,0.38-1.74,0.6-2.68c-0.76,0.46-1.46,1.02-2.25,1.35c-1.5,0.61-2.99,1.23-4.73,0.59
				c-1.39-0.51-2.61-1.2-3.63-2.24c-0.57-0.58-1.09-1.22-1.2-2.11c-0.09-0.69-0.42-1.37-0.41-2.05c0.02-1.72,0.37-3.33,1.53-4.75
				c1.24-1.51,2.3-3.17,3.45-4.76c0.27-0.37,0.59-0.7,0.87-1.06c0.32-0.41,0.35-0.73-0.04-1.2c-1.17-1.41-2.25-2.89-3.37-4.33
				c-1.16-1.49-2.33-2.99-3.52-4.47c-0.38-0.47-0.4-0.91-0.14-1.45c0.6-1.23,1.16-2.48,1.75-3.71c0.1-0.21,0.33-0.5,0.49-0.49
				c0.25,0,0.57,0.17,0.73,0.37c1.42,1.76,2.81,3.55,4.22,5.32c1.27,1.6,2.56,3.19,3.81,4.81c0.4,0.52,0.86,0.6,1.45,0.46
				c1.24-0.29,2.48-0.26,3.68,0.22c0.64,0.26,1.3,0.47,1.91,0.77c1.08,0.53,1.56,1.57,2.1,2.57c0.8,1.45,0.67,3.01,0.6,4.55
				c-0.03,0.64,0.1,1.1,0.57,1.56c0.57,0.55,1.08,0.95,1.96,0.86c1.33-0.13,2.67-0.03,3.86,0.72c1,0.63,1.85,1.42,2.48,2.44
				c0.74,1.19,1,2.49,1.13,3.85c0.01,0.11,0.02,0.27,0.08,0.31c0.92,0.51,1.41,1.75,2.72,1.59c0.37-0.04,0.74-0.03,1.12-0.05
				c2.23-0.14,3.77,1,4.99,2.7c0.71,0.99,1.15,2.08,1.33,3.29c0.04,0.3,0.23,0.65,0.46,0.82c1.1,0.82,2.23,1.59,3.37,2.36
				c0.21,0.14,0.47,0.22,0.72,0.27c1.44,0.28,2.47,1.03,3.12,2.39c0.26,0.55,0.86,0.96,1.37,1.35c0.77,0.57,1.59,1.06,2.39,1.58
				c1.17,0.75,3.63,0.69,4.66-0.73c0.39-0.53,0.62-1.19,0.86-1.81c0.2-0.55-0.19-0.93-0.57-1.23c-0.94-0.74-1.93-1.41-2.88-2.14
				c-1.16-0.88-2.29-1.8-3.45-2.69c-1.55-1.19-3.1-2.41-4.69-3.55c-1.22-0.87-1.59-1.86-0.97-3.21c0.12-0.26,0.41-0.53,0.67-0.62
				c1.43-0.48,2.7-0.2,3.89,0.79c1.08,0.9,2.32,1.61,3.47,2.43c0.96,0.68,1.89,1.39,2.85,2.07c1.12,0.79,2.26,1.55,3.38,2.34
				c0.98,0.69,1.94,1.4,2.91,2.1c1.1,0.78,2.21,1.55,3.31,2.32c0.32,0.22,0.66,0.43,0.96,0.68c1.04,0.87,2.27,0.71,3.38,0.43
				c1.1-0.27,1.86-1.17,2.39-2.2c0.63-1.2,0.41-2.4-0.1-3.53c-0.28-0.61-0.78-1.18-1.32-1.59c-1.54-1.17-3.15-2.25-4.72-3.38
				c-1.85-1.34-3.67-2.72-5.52-4.06c-1.08-0.78-2.19-1.5-3.27-2.28c-1.23-0.89-2.44-1.82-3.67-2.72c-0.73-0.55-1.47-1.09-2.2-1.63
				c-0.86-0.64-0.81-1.56-0.65-2.45c0.12-0.7,0.95-1.27,1.73-1.39c0.96-0.15,1.72,0.16,2.48,0.73c1.9,1.42,3.84,2.78,5.78,4.15
				c1.65,1.17,3.33,2.3,4.98,3.47c1.93,1.37,3.84,2.77,5.78,4.14c1.65,1.17,3.39,2.22,4.96,3.49c1.17,0.95,2.38,1.25,3.82,1.18
				c0.83-0.04,1.49-0.42,1.9-1.01c0.54-0.77,1-1.67,1.21-2.58c0.31-1.32-0.18-2.55-1.26-3.38c-2.17-1.67-4.4-3.27-6.62-4.88
				c-1.88-1.37-3.78-2.71-5.67-4.07c-1.47-1.05-2.94-2.1-4.4-3.17c-1.23-0.9-2.42-1.85-3.65-2.75c-1.65-1.21-3.3-2.42-4.97-3.59
				c-1.08-0.76-1.29-2.62-0.32-3.55c0.12-0.11,0.3-0.17,0.46-0.22c1.47-0.46,2.73-0.06,3.9,0.88c0.98,0.79,2.03,1.5,3.05,2.23
				c1.38,0.99,2.77,1.96,4.15,2.93c1.09,0.76,2.19,1.51,3.27,2.28c1.31,0.93,2.61,1.89,3.92,2.83c1.63,1.16,3.27,2.31,4.9,3.47
				c1.66,1.19,3.3,2.42,4.96,3.6c1.06,0.75,2.09,1.6,3.55,1.4c1.64-0.22,2.98-0.82,3.9-2.29c0.55-0.88,0.91-1.83,0.97-2.81
				c0.11-1.77-0.73-3.17-2.05-4.32c-2.61-2.25-5.19-4.54-7.8-6.79c-2.06-1.78-4.14-3.54-6.2-5.33c-1.25-1.08-2.48-2.2-3.73-3.29
				c-1.92-1.67-3.86-3.33-5.79-5c-1.5-1.3-2.98-2.63-4.47-3.94c-2.1-1.84-4.21-3.66-6.3-5.5c-1.08-0.95-2.17-1.9-3.23-2.87
				c-1.05-0.96-2.42-1.17-3.7-1.3c-3.37-0.33-5.99,1.07-7.92,3.85c-0.34,0.5-0.44,1.01-0.57,1.56c-0.39,1.63-0.87,3.22-1.67,4.72
				c-0.74,1.41-1.61,2.72-2.79,3.76c-1.03,0.92-2.22,1.66-3.37,2.44c-1.3,0.88-2.82,1.25-4.3,1.68c-1.19,0.34-2.42,0.35-3.61-0.13
				c-0.82-0.33-1.67-0.61-2.49-0.96c-2.41-1.03-2.95-3.68-1.59-5.8c0.29-0.45,0.52-0.96,0.7-1.47c0.26-0.72,0.54-1.44,0.65-2.19
				c0.26-1.75,0.54-3.51,0.57-5.27c0.03-1.84,0.27-3.64,0.91-5.33c0.57-1.48,1.49-2.83,2.25-4.25c0.13-0.24,0.21-0.51,0.32-0.76
				c-0.28-0.09-0.55-0.26-0.83-0.26c-3.83-0.02-7.67-0.01-11.5-0.01c-0.2,0-0.4,0.02-0.59-0.01c-0.4-0.06-0.51-0.24-0.31-0.63
				c0.39-0.74,0.74-1.5,1.11-2.26c0.47-0.96,0.91-1.92,1.41-2.86c0.25-0.48,0.72-0.58,1.24-0.58c2.45,0.01,4.91,0,7.36,0
				c3.83,0,7.67-0.05,11.5,0.03c1.13,0.02,2-0.5,2.95-0.88c0.6-0.24,1.14-0.62,1.74-0.87c0.8-0.33,1.63-0.6,2.45-0.88
				c0.78-0.27,1.57-0.52,2.36-0.77c3-0.96,6.04-1.39,9.17-0.72c0.53,0.11,1.09,0.13,1.63,0.2c1.75,0.25,3.5,0.48,5.24,0.78
				c0.57,0.1,1.1,0.41,1.65,0.59c1.07,0.35,2.15,0.67,3.23,1.01c0.17,0.05,0.33,0.11,0.5,0.15c1.34,0.27,2.72,0.43,4.02,0.83
				c2.04,0.63,4.16,0.51,6.23,0.82c0.26,0.04,0.53,0.01,0.79-0.01c0.91-0.08,1.3,0.18,1.7,1.04c0.59,1.26,1.23,2.5,1.82,3.75
				c0.51,1.07,0.98,2.17,1.5,3.24c0.52,1.06,1.08,2.1,1.62,3.16c0.24,0.48,0.46,0.98,0.69,1.47c0.93,1.99,1.83,3.99,2.79,5.96
				c0.73,1.53,1.54,3.02,2.28,4.55c0.53,1.09,0.99,2.21,1.52,3.3c0.52,1.07,1.1,2.11,1.61,3.18c0.52,1.07,0.98,2.18,1.49,3.25
				c0.51,1.08,1.06,2.15,1.59,3.22c0.28,0.57,0.63,1.11,0.82,1.7c0.14,0.45,0.21,1.01,0.08,1.45c-0.25,0.82-0.67,1.59-1.01,2.39
				c-0.29,0.66-0.57,1.31-0.85,1.97c-0.06,0.14-0.05,0.33-0.15,0.43c-0.89,1-0.31,1.8,0.3,2.64c1.48,2.06,2.06,4.37,1.87,6.91
				c-0.11,1.47-0.59,2.77-1.26,4.07c-1.14,2.19-2.89,3.54-5.2,4.21c-0.89,0.26-1.82,0.43-2.74,0.56c-0.63,0.09-0.94,0.36-0.95,1
				c-0.01,0.63-0.03,1.27-0.08,1.9c-0.12,1.52-0.78,2.79-1.85,3.85c-0.65,0.65-1.31,1.29-2.04,1.85c-0.46,0.35-1.01,0.67-1.57,0.77
				c-1.48,0.25-2.98,0.43-4.48,0.53c-0.61,0.04-0.85,0.18-0.91,0.8c-0.19,2-1.09,3.65-2.53,5.03c-0.79,0.76-1.65,1.48-2.68,1.8
				c-1.12,0.34-2.32,0.56-3.48,0.54c-2.2-0.03-4.22-0.75-6.04-2.02c-0.41-0.29-0.8-0.07-0.95,0.35c-0.41,1.17-1.12,2.13-2.08,2.87
				c-1,0.77-2.05,1.47-3.36,1.66c-0.56,0.08-1.11,0.24-1.67,0.32c-1.4,0.2-2.75-0.16-4.08-0.49c-0.55-0.14-1.04-0.54-1.52-0.87
				c-0.32-0.22-0.49-0.24-0.74,0.09c-0.62,0.82-1.24,1.63-1.94,2.38c-1.1,1.17-2.47,1.94-4.07,2.15c-1.53,0.2-2.9-0.36-4.08-1.28
				c-1.53-1.19-2.29-2.83-2.35-4.77c-0.01-0.36,0.13-0.72,0.19-1.09C61.31,125.2,61.33,124.9,61.38,124.44z"/>
			<linearGradient id="SVGID_13_" gradientUnits="userSpaceOnUse" x1="84.485" y1="-3.5987" x2="159.5024" y2="108.5768">
				<stop  offset="0" style="stop-color:#1E3A93"/>
				<stop  offset="0.9987" style="stop-color:#182446"/>
			</linearGradient>
			<path class="st14" d="M108.26,39.6c-0.09-1.6,1.03-2.47,2.32-3.08c0.72-0.34,1.43-0.72,2.15-1.07c0.62-0.3,1.26-0.58,1.88-0.88
				c0.64-0.31,1.27-0.64,1.91-0.95c1.05-0.51,2.07-1.08,3.29-1.14c1.46-0.08,2.44,0.73,3.08,1.85c1,1.75,1.8,3.61,2.71,5.42
				c0.74,1.47,1.53,2.92,2.26,4.4c0.53,1.07,0.99,2.17,1.52,3.23c0.52,1.05,1.11,2.06,1.63,3.1c0.52,1.04,0.98,2.12,1.5,3.16
				c0.3,0.62,0.65,1.22,0.97,1.83c0.24,0.46,0.49,0.91,0.71,1.38c0.5,1.05,0.96,2.12,1.47,3.16c0.51,1.05,1.06,2.08,1.59,3.12
				c0.31,0.62,0.6,1.25,0.9,1.87c0.22,0.45,0.43,0.89,0.66,1.33c0.54,1.06,1.09,2.11,1.63,3.16c0.25,0.48,0.49,0.96,0.72,1.45
				c0.5,1.06,0.99,2.12,1.47,3.19c0.27,0.59,0.48,1.21,0.78,1.78c0.56,1.06,0.01,2.91-1.06,3.63c-0.78,0.53-1.64,0.94-2.49,1.36
				c-1.09,0.54-2.19,1.05-3.29,1.56c-0.71,0.33-1.42,0.65-2.14,0.97c-0.51,0.23-1.01,0.51-1.55,0.64c-2.04,0.49-3.4-0.62-4.29-2.3
				c-0.6-1.13-1.16-2.28-1.71-3.44c-0.53-1.11-1-2.25-1.53-3.36c-0.5-1.05-1.07-2.08-1.57-3.13c-0.51-1.05-0.98-2.13-1.48-3.19
				c-0.52-1.1-1.06-2.19-1.59-3.29c-0.55-1.13-1.09-2.27-1.65-3.4c-0.55-1.1-1.13-2.19-1.67-3.29c-0.31-0.64-0.58-1.3-0.87-1.95
				c-0.21-0.45-0.42-0.9-0.65-1.35c-0.54-1.06-1.11-2.1-1.64-3.16c-0.52-1.05-0.98-2.12-1.5-3.17c-0.52-1.05-1.08-2.07-1.62-3.11
				c-0.24-0.46-0.47-0.93-0.71-1.39c-0.64-1.23-1.32-2.43-1.92-3.68C108.3,40.51,108.33,40.03,108.26,39.6z"/>
			<linearGradient id="SVGID_14_" gradientUnits="userSpaceOnUse" x1="12.2918" y1="44.6805" x2="87.3091" y2="156.856">
				<stop  offset="0" style="stop-color:#1E3A93"/>
				<stop  offset="0.9987" style="stop-color:#182446"/>
			</linearGradient>
			<path class="st15" d="M38.7,39.71c0.16,1-0.48,1.85-0.86,2.76c-0.53,1.26-1.16,2.48-1.76,3.71c-0.53,1.09-1.1,2.16-1.62,3.25
				c-0.51,1.07-0.97,2.17-1.48,3.25c-0.5,1.06-1.03,2.11-1.54,3.16c-0.55,1.14-1.08,2.28-1.63,3.41c-0.55,1.13-1.11,2.25-1.67,3.38
				c-0.24,0.48-0.48,0.97-0.7,1.46c-0.71,1.53-1.39,3.08-2.11,4.6c-0.74,1.55-1.53,3.07-2.28,4.62c-0.53,1.09-0.99,2.22-1.52,3.31
				c-0.52,1.09-1.09,2.16-1.63,3.24c-0.26,0.52-0.46,1.07-0.75,1.58c-0.43,0.74-0.8,1.56-1.39,2.15c-0.75,0.75-2.29,1.23-3.26,0.72
				c-1.74-0.92-3.53-1.77-5.3-2.64c-1.03-0.5-2.07-0.98-3.09-1.5c-1.48-0.75-2.28-2.01-1.97-3.75c0.22-1.23,0.8-2.32,1.4-3.41
				c0.57-1.04,1-2.15,1.5-3.23c0.19-0.41,0.42-0.8,0.63-1.2c0.33-0.63,0.66-1.26,0.99-1.89c0.25-0.48,0.51-0.95,0.74-1.44
				c0.71-1.48,1.38-2.98,2.11-4.45c0.73-1.48,1.51-2.93,2.24-4.4c0.51-1.03,0.98-2.09,1.49-3.12c0.56-1.15,1.14-2.3,1.69-3.45
				c0.53-1.1,1.02-2.2,1.54-3.3c0.29-0.61,0.6-1.2,0.9-1.8c0.27-0.54,0.56-1.07,0.81-1.62c0.7-1.51,1.38-3.03,2.09-4.54
				c0.53-1.14,1.09-2.28,1.64-3.41c0.29-0.6,0.51-1.26,0.92-1.76c0.69-0.85,1.63-1.38,2.77-1.14c0.61,0.13,1.18,0.44,1.75,0.71
				c1.12,0.53,2.22,1.1,3.33,1.65c1.13,0.56,2.27,1.1,3.4,1.66c0.43,0.21,0.85,0.43,1.26,0.68C38.37,37.54,38.78,38.46,38.7,39.71z"
				/>
		</g>
	</g>
</g>
<g id="圖層_5">
	<g id="_x39_vNIHl.tif">
		<g>
			<linearGradient id="SVGID_15_" gradientUnits="userSpaceOnUse" x1="8.3219" y1="27.772" x2="115.5897" y2="149.0617">
				<stop  offset="0" style="stop-color:#1E3A93"/>
				<stop  offset="0.9987" style="stop-color:#182446"/>
			</linearGradient>
			<path class="st16" d="M138.62,88.42c0,8.18,0,16.17,0,24.32c-0.51,0-0.97,0-1.42,0c-8.78,0-17.56,0.02-26.34-0.01
				c-3.31-0.01-6.07,1.06-8.43,3.45c-5.32,5.39-10.68,10.74-16.14,15.98c-3.29,3.16-7.44,4.76-11.94,4.8
				c-14.41,0.14-28.83,0.1-43.25,0.07c-3.64-0.01-6.17-2.77-6.13-6.4c0.04-3.25,2.79-5.75,6.35-5.75c8.09,0,16.18,0.01,24.27-0.02
				c0.82,0,1.29,0.21,1.72,0.96c3.32,5.77,11.06,6.95,15.79,2.31c6.09-5.96,12.05-12.05,18.06-18.09c1.04-1.05,1.06-2.3,0.12-3.16
				c-0.89-0.81-1.86-0.69-2.93,0.37c-5.92,5.89-11.83,11.78-17.75,17.67c-2.67,2.66-6.32,2.7-8.96,0.11
				c-2.36-2.32-2.26-6.07,0.3-8.65c7.41-7.44,14.82-14.88,22.26-22.29c3.97-3.95,8.74-5.8,14.41-5.72
				c9.77,0.15,19.54,0.04,29.31,0.04C131.45,88.42,134.97,88.42,138.62,88.42z"/>
			<linearGradient id="SVGID_16_" gradientUnits="userSpaceOnUse" x1="24.8689" y1="17.5555" x2="132.1367" y2="138.8452">
				<stop  offset="0" style="stop-color:#1E3A93"/>
				<stop  offset="0.9987" style="stop-color:#182446"/>
			</linearGradient>
			<path class="st17" d="M8.79,55.7c0-8.19,0-16.18,0-24.32c0.56,0,1.06,0,1.56,0c12.87,0,25.74,0.05,38.61-0.02
				c5.7-0.03,10.52,1.95,14.5,5.91c7.39,7.34,14.7,14.76,22.02,22.16c1.82,1.84,2.46,4.02,1.58,6.5c-0.87,2.46-2.68,3.85-5.28,4.08
				c-1.95,0.17-3.6-0.56-4.98-1.95C71.06,62.3,65.3,56.55,59.55,50.8c-0.27-0.27-0.54-0.56-0.83-0.81
				c-0.85-0.73-1.75-0.71-2.57-0.01c-0.83,0.7-0.94,1.62-0.41,2.56c0.2,0.37,0.54,0.66,0.84,0.96c5.76,5.75,11.51,11.49,17.28,17.23
				C79,75.84,86.5,74.89,90.33,68.7c0.23-0.38,0.84-0.74,1.28-0.75c8.26-0.04,16.53-0.06,24.79-0.02c3.5,0.02,6.11,2.65,6.13,6.01
				c0.02,3.31-2.78,6.02-6.27,6.02c-13.94,0.01-27.89-0.02-41.83,0.02C68.65,80,63.8,77.95,59.75,73.86
				c-4.78-4.84-9.62-9.62-14.39-14.46c-2.49-2.53-5.41-3.76-9-3.73c-8.65,0.08-17.3,0.03-25.95,0.03C9.91,55.7,9.4,55.7,8.79,55.7z"
				/>
			<linearGradient id="SVGID_17_" gradientUnits="userSpaceOnUse" x1="-10.1907" y1="44.1445" x2="97.0771" y2="165.4342">
				<stop  offset="0" style="stop-color:#1E3A93"/>
				<stop  offset="0.9987" style="stop-color:#182446"/>
			</linearGradient>
			<path class="st18" d="M36.81,120.85c-13.27-0.07-23.77-10.84-23.44-24.26c0.3-12.11,10.24-22.6,23.26-22.73
				c11.86-0.13,23.67,9.04,23.65,23.8C60.26,110.52,49.8,120.73,36.81,120.85z M38.52,113.74c0.03-0.35,0.1-0.57,0.06-0.77
				c-0.37-1.97,0.22-3.24,2.36-3.64c0.68-0.13,1.31-0.63,1.89-1.07c3.69-2.74,3.71-8.57-0.03-11.24c-1.24-0.88-2.72-1.44-4.1-2.12
				c-1.04-0.51-2.19-0.86-3.09-1.54c-0.6-0.45-1.24-1.4-1.17-2.05c0.07-0.66,0.89-1.42,1.58-1.78c0.67-0.36,1.59-0.44,2.37-0.35
				c1.6,0.18,3.18,0.55,4.87,0.86c0.3-1.02,0.56-2.2,0.98-3.31c0.35-0.94,0.02-1.41-0.83-1.6c-1.62-0.37-3.24-0.69-5.02-1.06
				c0-1.06,0-2.2,0-3.31c-1.11,0-2.08,0-3.16,0c0,1.28,0,2.47,0,3.58c-0.14,0.11-0.17,0.15-0.21,0.16c-0.37,0.12-0.74,0.22-1.1,0.35
				c-2.61,0.95-4.67,2.5-5.24,5.36c-0.57,2.85,0.27,5.33,2.71,7.03c1.11,0.78,2.41,1.3,3.64,1.89c1.16,0.56,2.36,1.02,3.51,1.6
				c0.92,0.46,1.42,1.26,1.34,2.31c-0.09,1.08-0.67,2.01-1.72,2.16c-1.54,0.22-3.15,0.31-4.69,0.14c-1.33-0.15-2.61-0.74-3.98-1.15
				c-0.38,1.56-0.75,3.08-1.2,4.9c2.43,0.51,4.71,0.98,7.09,1.48c0,1.01,0,2.07,0,3.18C36.46,113.74,37.43,113.74,38.52,113.74z"/>
			<linearGradient id="SVGID_18_" gradientUnits="userSpaceOnUse" x1="63.4833" y1="-21.0123" x2="170.7511" y2="100.2774">
				<stop  offset="0" style="stop-color:#1E3A93"/>
				<stop  offset="0.9987" style="stop-color:#182446"/>
			</linearGradient>
			<path class="st19" d="M113.02,16.4c7.01,0,14.03,0,21.04,0c3.25,0,4.83,1.58,4.83,4.82c0,9.21,0,18.42,0,27.63
				c0,3.05-1.63,4.74-4.67,4.74c-14.16,0.02-28.31,0.02-42.47,0c-2.98,0-4.64-1.66-4.64-4.64c-0.02-9.34-0.02-18.68,0-28.01
				c0.01-2.91,1.69-4.52,4.61-4.52C98.82,16.4,105.92,16.4,113.02,16.4z M91.05,35.04c0,4.47,0.04,8.81-0.03,13.15
				c-0.02,1.19,0.41,1.42,1.5,1.42c13.68-0.03,27.36-0.03,41.04,0c1.1,0,1.5-0.27,1.48-1.44c-0.07-4-0.02-8-0.03-12
				c0-0.37-0.05-0.74-0.08-1.12C120.3,35.04,105.77,35.04,91.05,35.04z M91.19,24.3c14.61,0,29.14,0,43.82,0c0-0.7,0-1.33,0-1.97
				c0-1.92,0-1.92-1.89-1.92c-12.95,0-25.91,0-38.86,0C90.62,20.41,90.59,20.44,91.19,24.3z"/>
			<linearGradient id="SVGID_19_" gradientUnits="userSpaceOnUse" x1="59.1952" y1="-17.22" x2="166.463" y2="104.0698">
				<stop  offset="0" style="stop-color:#1E3A93"/>
				<stop  offset="0.9987" style="stop-color:#182446"/>
			</linearGradient>
			<path class="st20" d="M107.36,46.25c0-1.19,0-2.26,0-3.42c4.3,0,8.58,0,12.91,0c0,1.15,0,2.24,0,3.42
				C115.98,46.25,111.74,46.25,107.36,46.25z"/>
			<linearGradient id="SVGID_20_" gradientUnits="userSpaceOnUse" x1="51.0433" y1="-10.0105" x2="158.3111" y2="111.2793">
				<stop  offset="0" style="stop-color:#1E3A93"/>
				<stop  offset="0.9987" style="stop-color:#182446"/>
			</linearGradient>
			<path class="st21" d="M103.74,42.84c0,1.15,0,2.22,0,3.39c-2.96,0-5.89,0-8.91,0c0-1.1,0-2.2,0-3.39
				C97.74,42.84,100.67,42.84,103.74,42.84z"/>
		</g>
	</g>
</g>
</svg>
