<svg xmlns="http://www.w3.org/2000/svg" viewBox="0 0 185.48 201.78"><defs><style>.cls-1{fill:#304335;}.cls-2{fill:none;stroke:#f7f9fb;stroke-miterlimit:10;stroke-width:1.36px;}.cls-3{font-size:14.23px;fill:#f7f9fb;font-family:BrandonGrotesque-Medium, Brandon Grotesque;font-weight:500;}</style></defs><g id="Layer_2" data-name="Layer 2"><g id="Layer_2-2" data-name="Layer 2"><circle class="cls-1" cx="92.74" cy="107.56" r="92.74"/><path class="cls-2" d="M114.92,52.33C100.78,49.64,86.46,51,72.23,55c-10.6,3-24.13,10.19-23.64,14.42.6,5.23,18.59,5.37,24.76,7.54,5,1.76,9.81,4.28,13.11,8.53,4.75,6.1,3.39,11.52,3.39,11.52"/><path class="cls-2" d="M62.31,83.36c-1.28.27-2.59.59-3.64.9-2.35.7-5.4,2.5-5.54,2.17s1.76-2.07,5.35-3.6a14.19,14.19,0,0,1,6-1.16,44.72,44.72,0,0,1,7.47.75,26.11,26.11,0,0,1,7.22,2.45c.51.25,2.09,1,2.52.29.22-.4-.16-.85-.52-1.13a30.23,30.23,0,0,0-14.74-5.92c-3.65-.38-7.71-.26-11.12-1.83"/><path class="cls-2" d="M73,86.47a5.82,5.82,0,1,1-10.73-3.11,24.86,24.86,0,0,1,4.07-.57,16.22,16.22,0,0,1,6.07,1.13A5.76,5.76,0,0,1,73,86.47Z"/><path class="cls-2" d="M113.89,84.22l1,.11A20.16,20.16,0,0,1,122,86.55c1,.55,1.73-.35,1.05-1.09A8.53,8.53,0,0,0,119,83.15a29.7,29.7,0,0,0-7.14-.74,24.53,24.53,0,0,0-3.38.19c-.94.15-2.12.39-3.32.68a48.88,48.88,0,0,0-5.26,1.54c-1.94.74-2.48-.07-1.57-1.16,1.52-1.84,4-2.92,6.17-3.81,7-2.92,14.49-2.27,21.77-3.82a7.24,7.24,0,0,0,2.24-.76,3.4,3.4,0,0,0,1.65-2.55,5,5,0,0,0-.71-3.11c-2.93-5.16-9.73-7.52-15-9.22-1.65-.53-2.72.09-4.22.77a33.59,33.59,0,0,1-6.25,2.12c-1.87.43-4.53,1.18-6.37.31a1.25,1.25,0,0,1-.57-.47c-.26-.52.21-1.1.67-1.46a14.31,14.31,0,0,1,8.2-2.79,35,35,0,0,1,8.7,1.13c2.77.57,6,1.38,8.79,1.07a3.12,3.12,0,0,0,1.12-.31,1.51,1.51,0,0,0,.43-2.2c-.74-1.25-4.43-2.82-4.43-2.82"/><path class="cls-2" d="M114.92,87.54a5.81,5.81,0,1,1-10.87-2.88c.45-.12,1-.24,1.56-.35a35.48,35.48,0,0,1,8.28-.09A5.83,5.83,0,0,1,114.92,87.54Z"/><path class="cls-2" d="M40.81,114.85s-3.94-4.8-11.45-.62c-4.15,2.32-8.34,7.26-8.25,12.26.06,3.16,2.25,5.47,5,6.68,5.73,2.51,14.19.14,18.22-4.45,2-2.28,7-12.31.08-11a13.31,13.31,0,0,0-7.56,4.81c-5.1,6.22-8.37,15.92-.8,21.61a8,8,0,0,0,9.48.14c3.34-2.27,5.45-6.19,7.3-9.68s3.41-7,4.9-10.54c1.38-3.29,2.62-6.63,3.84-10,1.11-3.06,1.88-6.67,3.81-9.33a3.19,3.19,0,0,1,1.27-1.15c3.94-1.73,1.89,6.76,1.46,8.1-1.56,4.85-3.82,9.52-5.6,14.28C60.61,131.17,58,136.62,59,142.29a7.58,7.58,0,0,0,1.92,4c4.36,4.42,12.92,1.87,17.91.12,3.15-1.11,6.46-2.36,9.08-4.49,2.13-1.74,4.84-6.45,3.77-7s-3.08,2.12-3.86,3.79a5.92,5.92,0,0,0-.42,4.27c.71,2.28,3,3.69,5.34,4.32,4.75,1.28,10,0,14.11-2.59,11.28-7.15,14.79-21.34,18.53-33.26,1.21-3.83,2.58-10.53,6.53-12.64"/><path class="cls-2" d="M46,108.2c1.25-4.94,6.54-7.7,11.3-8.22a16.11,16.11,0,0,1,8.37,1.24,5.89,5.89,0,0,1,3.28,3.6"/><path class="cls-2" d="M52.45,125.31s2,3.08,8.28,1.85c5.75-1.13,11-4.44,15.74-7.77,4.93-3.48,8.78-9,11.3-14.44a11.25,11.25,0,0,0,1.16-3.76,2.88,2.88,0,0,0-.38-1.83c-2-2.81-6.78,6.77-7.45,8.17a47.81,47.81,0,0,0-3.39,9.36c-.7,2.86-1.91,6.52-.74,9.41a2.52,2.52,0,0,0,1.16,1.38c2.23,1,5-1.28,6.22-2.71,2.86-3.33,4.9-6.9,7.58-10.38s5.74-8.45,6.42-11.58c.2-1-.68-.22-1.75,1.23-2.81,3.82-4.11,8.29-5.9,12.64-1.17,2.85-2.73,6.42-.91,9.37A2.84,2.84,0,0,0,91,127.36a2.68,2.68,0,0,0,2,0,11.36,11.36,0,0,0,2.26-1.31,119.12,119.12,0,0,0,9.72-7.14c.75-.63,6.56-5,4.07-6.11a2.11,2.11,0,0,0-1.06-.11,8.14,8.14,0,0,0-5.58,3.4c-1.61,2.13-3.69,5.81-2.35,8.48s4.19,3.08,6.81,2.31c4.65-1.38,8.57-5.37,11.65-8.95"/><path class="cls-2" d="M87.7,111.16c13.49,1.19,25-6.94,37.1-11.55,7.61-2.89,18.42-2.19,19.31,8.06.85,9.68-11.44,14.8-19.38,15.21-.52,0-1.24-.17-1.17-.68s.65-.54,1.1-.51c4.45.36,9.34,3.1,7.76,8.18-1.31,4.21-5.66,7.23-4.73,12.08.8,4.22,5.79,6.61,10,5.87s7.69-3.77,10.49-7a30.58,30.58,0,0,0,6.8-12.17c1-3.88,1.78-14.16-4.54-13.78a8.85,8.85,0,0,0-4.46,1.88c-3.15,2.25-4.57,7.14-4.43,10.83.23,6.1,5,7.62,10.3,5.7a30.83,30.83,0,0,0,14.35-10.88c4-5.56,7.76-12.89,4.55-19.64a10.27,10.27,0,0,0-3.52-4.37,9.44,9.44,0,0,0-6.24-1.2c-2.24.26-5.18.87-7,2.25"/><circle class="cls-2" cx="91.76" cy="131.03" r="1.85"/><text class="cls-3" transform="translate(58.4 160.88) rotate(20.93)">A</text><text class="cls-3" transform="matrix(0.97, 0.26, -0.26, 0.97, 67.85, 164.39)">L</text><text class="cls-3" transform="translate(74.61 166.18) rotate(10.06)">T</text><text class="cls-3" transform="translate(82.07 167.51) rotate(4.4)">E</text><text class="cls-3" transform="translate(91.15 168.2) rotate(-2.14)">R</text><text class="cls-3" transform="translate(100.72 167.74) rotate(-7.31)">-</text><text class="cls-3" transform="matrix(0.98, -0.22, 0.22, 0.98, 106.66, 167.05)">A</text><text class="cls-3" transform="translate(116.33 164.74) rotate(-17.66)">I</text><text class="cls-3" transform="matrix(0.92, -0.39, 0.39, 0.92, 120.9, 163.38)">R</text></g></g></svg>