<?xml version="1.0" encoding="utf-8"?>
<!-- Generator: Adobe Illustrator 25.2.0, SVG Export Plug-In . SVG Version: 6.00 Build 0)  -->
<svg version="1.1" xmlns="http://www.w3.org/2000/svg" xmlns:xlink="http://www.w3.org/1999/xlink" x="0px" y="0px"
	 viewBox="0 0 147.69 153.46" style="enable-background:new 0 0 147.69 153.46;" xml:space="preserve">
<style type="text/css">
	.st0{display:none;}
	.st1{display:inline;}
	.st2{fill:url(#SVGID_1_);}
	.st3{fill:url(#SVGID_2_);}
	.st4{fill:url(#SVGID_3_);}
	.st5{fill:url(#SVGID_4_);}
	.st6{fill:url(#SVGID_5_);}
	.st7{fill:url(#SVGID_6_);}
	.st8{fill:url(#SVGID_7_);}
	.st9{fill:url(#SVGID_8_);}
	.st10{fill:url(#SVGID_9_);}
	.st11{fill:url(#SVGID_10_);}
	.st12{fill:url(#SVGID_11_);}
</style>
<g id="圖層_1" class="st0">
	<g id="ZVYF79.tif" class="st1">
		<g>
			<linearGradient id="SVGID_1_" gradientUnits="userSpaceOnUse" x1="35.2788" y1="19.9319" x2="95.0191" y2="108.2436">
				<stop  offset="0" style="stop-color:#1E3A93"/>
				<stop  offset="0.9987" style="stop-color:#182446"/>
			</linearGradient>
			<path class="st2" d="M100.3,133.51c-0.41,1.41-0.72,2.59-1.1,3.74c-1.02,3.15-3.1,3.92-5.94,2.2c-0.64-0.39-1.24-0.83-1.81-1.31
				c-1.07-0.9-1.78-0.68-2.21,0.62c-0.05,0.16-0.08,0.32-0.15,0.48c-2.05,4.92-4.63,5.34-8.27,1.35c-0.38-0.42-0.77-0.83-0.97-1.05
				c-2.04,1.62-3.88,4.21-5.88,4.34c-1.79,0.12-3.76-2.48-5.72-3.92c-1.61,0.89-3.87,3.15-5.87,2.95c-1.79-0.18-3.31-3.08-5.29-5.14
				c-0.3,0.2-1.23,0.78-2.15,1.39c-3.28,2.2-5.74,1.25-6.62-2.58c-0.7-3.07-0.7-3.07-3.52-1.77c-4.01,1.84-6.23,0.5-6.47-3.91
				c-0.04-0.81-0.1-1.63-0.14-2.31c-2.62,0-5.72,0.9-7.33-0.27c-1.46-1.05-1.28-4.36-1.93-7.12c-0.65,0.03-1.92,0.12-3.2,0.13
				c-3.36,0.05-4.73-1.65-3.95-4.89c0.17-0.73,0.67-1.47,0.56-2.14c-0.1-0.64-0.73-1.62-1.25-1.7c-6.67-1.12-7.16-2.02-4.19-8.16
				c0.14-0.28,0.19-0.61,0.33-1.09c-1.19-0.35-2.29-0.65-3.37-0.99c-3.65-1.12-4.39-3.14-2.32-6.35c0.36-0.56,0.77-1.09,1.22-1.57
				c0.9-0.98,0.52-1.55-0.52-2.09c-6.2-3.2-6.34-4.25-1.29-9.09c0.17-0.16,0.28-0.39,0.31-0.43c-1.63-1.97-4.29-3.79-4.42-5.78
				c-0.12-1.79,2.54-3.76,4.05-5.74c-0.93-1.62-3.34-3.92-3.05-5.81c0.29-1.89,3.27-3.37,5.35-5.29c-0.28-0.38-0.91-1.21-1.49-2.06
				c-2.33-3.41-1.38-5.84,2.63-6.76c3.09-0.71,3.09-0.71,1.75-3.46c-1.92-3.94-0.57-6.27,3.8-6.53c0.81-0.05,1.63-0.09,2.82-0.16
				c-0.26-1.13-0.43-2.06-0.7-2.96c-1.22-4.11,0.39-6.11,4.63-5.76c3.08,0.26,3.08,0.26,2.83-2.77c-0.36-4.3,1.61-5.91,5.69-4.69
				c0.86,0.26,1.72,0.47,2.97,0.8c0.09-1.21,0.16-2.15,0.22-3.09c0.3-4.13,2.51-5.46,6.22-3.74c2.98,1.38,2.98,1.38,3.78-1.81
				c0.97-3.85,3.38-4.75,6.66-2.49c0.85,0.59,1.68,1.22,2.72,1.98c0.65-1.41,1.1-2.55,1.69-3.61c1.62-2.96,3.72-3.3,6.25-1.07
				c0.56,0.49,1.07,1.05,1.55,1.62c0.88,1.04,1.62,1.08,2.24-0.22c0.04-0.07,0.08-0.14,0.13-0.21c3.29-4.87,5.38-4.87,8.61-0.03
				c0.31,0.46,0.7,0.87,1.27,1.56c0.67-0.71,1.22-1.28,1.76-1.85c3.28-3.45,6-3.06,7.64,1.35c0.83,2.24,1.41,2.57,3.35,0.99
				c3.75-3.06,6.01-2.2,7.31,2.47c0.24,0.85,0.49,1.7,0.81,2.78c1.13-0.57,1.99-1.03,2.87-1.45c3.65-1.75,5.73-0.58,6.15,3.46
				c0.35,3.35,0.35,3.35,3.57,2.47c3.73-1.02,5.46,0.32,5.33,4.12c-0.02,0.66-0.1,1.33-0.17,1.99c-0.14,1.25,0.23,1.97,1.65,1.64
				c0.16-0.04,0.33-0.07,0.49-0.09c5.34-0.63,6.98,1.36,5.32,6.44c-0.2,0.6-0.3,1.24-0.52,2.15c1.14,0.07,2.02,0.13,2.91,0.19
				c4.29,0.28,5.61,2.41,3.9,6.32c-1.29,2.93-1.29,2.93,1.72,3.67c3.82,0.94,4.75,3.38,2.53,6.66c-0.59,0.87-1.21,1.71-1.5,2.13
				c2.01,1.88,4.89,3.33,5.26,5.27c0.35,1.8-1.96,4.12-2.98,5.98c1.32,1.69,4.01,3.62,3.99,5.53c-0.02,1.94-2.71,3.85-4.44,6.04
				c0.64,0.58,1.64,1.33,2.45,2.24c2.13,2.41,1.77,4.48-1.02,6.1c-0.71,0.41-1.64,0.52-2.23,1.04c-0.45,0.39-0.9,1.42-0.7,1.81
				c3.47,6.54,3.49,6.53-3.71,8.93c-0.15,0.05-0.26,0.19-0.08,0.05c0.36,2.63,1.67,5.58,0.73,7.32c-0.87,1.61-4.14,1.94-6.3,2.81
				c0,2.05,0.91,5.15-0.26,6.62c-1.16,1.46-4.39,1.27-7.09,1.89c0,0.37-0.05,1.33,0.01,2.27c0.25,4.52-1.63,6.19-5.84,4.66
				c-2.48-0.9-2.96-0.33-3.06,2.08c-0.19,4.73-2.47,5.91-6.77,3.76C101.9,134.28,101.25,133.97,100.3,133.51z M73.75,127.05
				c27.64,0.01,50.23-22.44,50.25-49.94c0.02-27.54-22.36-50.13-49.73-50.19c-28.02-0.07-50.39,22.18-50.45,50.17
				C23.76,104.48,46.29,127.03,73.75,127.05z"/>
			<linearGradient id="SVGID_2_" gradientUnits="userSpaceOnUse" x1="35.263" y1="19.9426" x2="95.0032" y2="108.2543">
				<stop  offset="0" style="stop-color:#1E3A93"/>
				<stop  offset="0.9987" style="stop-color:#182446"/>
			</linearGradient>
			<path class="st3" d="M73.94,119.25c-23.43-0.06-42.46-18.86-42.44-41.91c0.02-23.87,18.9-42.76,42.7-42.73
				c23.14,0.03,42.03,19.1,41.96,42.37C116.09,100.53,97.34,119.31,73.94,119.25z M73.95,41.05c-20.29,0.13-36.14,16.17-35.99,36.41
				c0.14,19.67,16.56,35.67,36.47,35.53c19.19-0.13,35.65-16.77,35.48-35.88C109.74,57.11,93.59,40.92,73.95,41.05z"/>
			<linearGradient id="SVGID_3_" gradientUnits="userSpaceOnUse" x1="38.258" y1="17.9165" x2="97.9982" y2="106.2282">
				<stop  offset="0" style="stop-color:#1E3A93"/>
				<stop  offset="0.9987" style="stop-color:#182446"/>
			</linearGradient>
			<path class="st4" d="M100.71,62.97c-0.47,0.67-0.82,1.24-1.24,1.74C90.62,75.26,81.74,85.8,72.92,96.38
				c-1.15,1.38-1.99,1.52-3.44,0.34c-6.88-5.61-13.82-11.16-20.82-16.63c-1.58-1.24-1.66-2.17-0.36-3.61
				c1.45-1.59,2.76-3.32,4.06-5.04c0.88-1.16,1.65-1.29,2.88-0.37c4.31,3.23,8.76,6.29,13.06,9.55c1.67,1.26,2.69,1.28,4.07-0.47
				c5.86-7.43,11.9-14.72,17.76-22.14c1.37-1.74,2.41-2.18,4.15-0.52c1.55,1.48,3.37,2.69,5.04,4.05
				C99.82,61.94,100.21,62.45,100.71,62.97z"/>
		</g>
	</g>
</g>
<g id="圖層_2" class="st0">
	<g class="st1">
		<g id="PAMslD.tif">
			<g>
				<linearGradient id="SVGID_4_" gradientUnits="userSpaceOnUse" x1="19.0342" y1="28.5793" x2="85.2953" y2="148.2449">
					<stop  offset="0" style="stop-color:#1E3A93"/>
					<stop  offset="0.9987" style="stop-color:#182446"/>
				</linearGradient>
				<path class="st5" d="M68.61,48.84c-0.9,0.84-1.77,1.64-2.63,2.46c-2.32,2.21-4.13,4.77-4.99,7.87
					c-1.63,5.93-0.36,13.01,5.14,17.28c1.19,0.92,2.56,1.6,3.88,2.34c0.43,0.24,0.63,0.47,0.42,0.96
					c-2.55,5.98-5.25,11.88-10.02,16.52c-1.64,1.6-3.55,2.72-5.8,3.21c-1.89,0.42-3.7-0.01-5.46-0.67
					c-1.52-0.57-3.01-1.26-4.54-1.81c-0.73-0.26-1.52-0.43-2.29-0.44c-2.29-0.04-4.62-0.28-6.84,0.53c-1.75,0.63-3.44,1.43-5.2,2.02
					c-2.42,0.82-4.82,0.69-7.1-0.53c-3.23-1.73-5.48-4.47-7.52-7.41c-3.14-4.52-5.61-9.39-7.17-14.68
					c-1.62-5.48-2.17-11.06-1.35-16.75c0.76-5.27,2.89-9.86,6.86-13.49c3.93-3.6,8.64-5.02,13.86-4.4c2.36,0.28,4.71,1.03,6.95,1.89
					c3.2,1.22,6.24,1.24,9.42-0.02c2.15-0.85,4.41-1.54,6.69-1.95C57.72,40.58,64.55,43.1,68.61,48.84z"/>
				<linearGradient id="SVGID_5_" gradientUnits="userSpaceOnUse" x1="37.6708" y1="18.2598" x2="103.932" y2="137.9254">
					<stop  offset="0" style="stop-color:#1E3A93"/>
					<stop  offset="0.9987" style="stop-color:#182446"/>
				</linearGradient>
				<path class="st6" d="M38.35,40.31c0.46-5.78,3.12-10.88,8.95-13.88c1.77-0.91,3.84-1.26,5.78-1.85
					c0.58-0.18,0.68,0.19,0.67,0.68c-0.02,4.26-1.32,8.06-4.05,11.35c-2.33,2.82-5.16,4.84-8.8,5.59c-0.34,0.07-0.69,0.11-1.03,0.14
					C38.29,42.46,38.29,42.45,38.35,40.31z"/>
			</g>
		</g>
		<g>
			<g>
				<linearGradient id="SVGID_6_" gradientUnits="userSpaceOnUse" x1="32.194" y1="21.2925" x2="98.4551" y2="140.9581">
					<stop  offset="0" style="stop-color:#1E3A93"/>
					<stop  offset="0.9987" style="stop-color:#182446"/>
				</linearGradient>
				<path class="st7" d="M76.26,85.39c-1.39,0-2.58,0.49-3.55,1.46c-0.97,0.97-1.46,2.14-1.46,3.5v20.92c0,1.4,0.49,2.58,1.46,3.55
					c0.97,0.97,2.16,1.46,3.55,1.46c1.39,0,2.57-0.49,3.53-1.46c0.96-0.97,1.44-2.16,1.44-3.55V90.35c0-1.36-0.49-2.53-1.46-3.5
					C78.79,85.88,77.62,85.39,76.26,85.39z"/>
				<linearGradient id="SVGID_7_" gradientUnits="userSpaceOnUse" x1="63.7344" y1="3.8279" x2="129.9955" y2="123.4935">
					<stop  offset="0" style="stop-color:#1E3A93"/>
					<stop  offset="0.9987" style="stop-color:#182446"/>
				</linearGradient>
				<path class="st8" d="M116.54,66.61l3.45-6.37c0.23-0.42,0.15-0.75-0.24-0.97c-0.42-0.2-0.75-0.1-0.97,0.29l-3.5,6.42
					c-3.08-1.36-6.34-2.05-9.78-2.05c-3.44,0-6.7,0.68-9.78,2.05l-3.5-6.42c-0.23-0.39-0.55-0.49-0.97-0.29
					c-0.39,0.23-0.47,0.55-0.24,0.97l3.45,6.37c-3.5,1.79-6.29,4.27-8.37,7.47c-2.08,3.2-3.11,6.69-3.11,10.48h45
					c0-3.79-1.04-7.29-3.11-10.48C122.78,70.89,120.01,68.4,116.54,66.61z M96.57,75.88c-0.37,0.37-0.82,0.56-1.34,0.56
					c-0.52,0-0.96-0.19-1.31-0.56c-0.36-0.37-0.53-0.82-0.53-1.34c0-0.52,0.18-0.96,0.53-1.34c0.36-0.37,0.79-0.56,1.31-0.56
					s0.96,0.19,1.34,0.56c0.37,0.37,0.56,0.82,0.56,1.34C97.13,75.06,96.94,75.51,96.57,75.88z M117.08,75.88
					c-0.36,0.37-0.8,0.56-1.31,0.56c-0.52,0-0.97-0.19-1.34-0.56c-0.37-0.37-0.56-0.82-0.56-1.34c0-0.52,0.19-0.96,0.56-1.34
					c0.37-0.37,0.82-0.56,1.34-0.56c0.52,0,0.96,0.19,1.31,0.56c0.36,0.37,0.53,0.82,0.53,1.34
					C117.61,75.06,117.43,75.51,117.08,75.88z"/>
				<linearGradient id="SVGID_8_" gradientUnits="userSpaceOnUse" x1="53.5618" y1="9.4607" x2="119.823" y2="129.1263">
					<stop  offset="0" style="stop-color:#1E3A93"/>
					<stop  offset="0.9987" style="stop-color:#182446"/>
				</linearGradient>
				<path class="st9" d="M83.17,118.71c0,1.49,0.52,2.76,1.56,3.79c1.04,1.04,2.3,1.56,3.79,1.56h3.6l0.05,11.04
					c0,1.39,0.49,2.58,1.46,3.55c0.97,0.97,2.14,1.46,3.5,1.46c1.39,0,2.58-0.49,3.55-1.46s1.46-2.16,1.46-3.55v-11.04h6.71v11.04
					c0,1.39,0.49,2.58,1.46,3.55s2.16,1.46,3.55,1.46c1.39,0,2.58-0.49,3.55-1.46s1.46-2.16,1.46-3.55v-11.04h3.65
					c1.46,0,2.71-0.52,3.75-1.56c1.04-1.04,1.56-2.3,1.56-3.79v-32.4H83.17V118.71z"/>
				<linearGradient id="SVGID_9_" gradientUnits="userSpaceOnUse" x1="76.9907" y1="-3.5124" x2="143.2519" y2="116.1533">
					<stop  offset="0" style="stop-color:#1E3A93"/>
					<stop  offset="0.9987" style="stop-color:#182446"/>
				</linearGradient>
				<path class="st10" d="M134.74,85.39c-1.36,0-2.53,0.48-3.5,1.44c-0.97,0.96-1.46,2.13-1.46,3.53v20.92
					c0,1.4,0.49,2.58,1.46,3.55c0.97,0.97,2.14,1.46,3.5,1.46c1.39,0,2.58-0.49,3.55-1.46c0.97-0.97,1.46-2.16,1.46-3.55V90.35
					c0-1.39-0.49-2.57-1.46-3.53C137.31,85.87,136.13,85.39,134.74,85.39z"/>
			</g>
		</g>
		<linearGradient id="SVGID_10_" gradientUnits="userSpaceOnUse" x1="42.5581" y1="15.5536" x2="108.8193" y2="135.2192">
			<stop  offset="0" style="stop-color:#1E3A93"/>
			<stop  offset="0.9987" style="stop-color:#182446"/>
		</linearGradient>
		<polygon class="st11" points="50.25,143.89 44.53,143.89 102.62,9.57 108.34,9.57 		"/>
	</g>
</g>
<g id="圖層_3">
	<g id="KMpQuI.tif">
		<g>
			<linearGradient id="SVGID_11_" gradientUnits="userSpaceOnUse" x1="15.1087" y1="17.8644" x2="129.5729" y2="132.3286">
				<stop  offset="0" style="stop-color:#1E3A93"/>
				<stop  offset="0.9987" style="stop-color:#182446"/>
			</linearGradient>
			<path class="st12" d="M121.08,101.72c-0.29,0.78-0.44,1.52-0.81,2.11c-6.61,10.46-15.26,18.5-26.98,23.03
				c-7.33,2.83-14.88,4.02-22.66,3.55c-9.6-0.58-18.52-3.41-26.44-9.01c-1.68-1.19-3.21-1.86-5.47-1.48
				c-3.84,0.65-7.38-3.09-7.13-7.03c0.04-0.69,0.22-1.36,0.37-2.2c-8.96-11.94-13.42-25.24-11.4-40.43c1.64-1.02,3.07-1.91,4.65-2.9
				c1.06,2.11,0.75,4.06,0.49,5.85c-0.77,5.34-0.03,10.55,1.23,15.67c1.61,6.54,4.63,12.47,8.93,17.87
				c2.27,0.75,5.03-0.46,7.16,1.95c1.89,2.13,1.77,4.59,2.34,7.15c3.68,2.35,7.29,4.99,12.4,6.08c-1.24-2.03-2.36-3.47-3.06-5.09
				c-1.78-4.11-3.5-8.26-4.99-12.48c-0.67-1.89-1.7-2.8-3.6-3.2c-3.12-0.65-6.17-1.61-9.29-2.26c-1.69-0.35-2.54-1.27-3-2.83
				c-0.31-1.04-0.81-2.03-1.38-3.44c2.98-0.15,5.15,1.21,7.49,1.75c2.41,0.55,4.85,1.02,7.7,1.62c-0.15-1.28-0.25-2.17-0.36-3.07
				c-0.22-1.89-0.5-3.77-0.64-5.66c-0.22-3.02-0.58-6.06-0.45-9.07c0.22-5.09,0.75-10.17,1.21-15.25c0.14-1.55,0.51-3.07,0.7-4.62
				c0.06-0.47-0.13-0.98-0.24-1.64c-1.83,0.17-3.59,0.09-5.2,0.54c-6.14,1.7-12.43,3.02-18.13,6.07c-3.6,1.93-7.03,4.06-9.54,7.39
				c-2.45,3.25-2.41,6.64-0.16,9.88c1.87,2.7,1.54,5.87,2.69,8.7c-0.17,0.15-0.35,0.29-0.52,0.44c-0.63-0.32-1.35-0.53-1.87-0.97
				c-3.08-2.62-5.78-5.66-6.73-9.65c-1.1-4.6-0.22-9.01,3.07-12.6c3.8-4.14,8.37-7.18,13.6-9.32c6.11-2.5,12.41-4.21,18.88-5.51
				c3.72-0.75,6.36-3.16,8.03-6.68c1.85-3.9,3.93-7.7,5.91-11.54c0.3-0.59,0.62-1.18,1.21-2.3c-1.11,0.2-1.74,0.22-2.3,0.43
				c-9.01,3.35-16.28,9.05-22.1,16.64c-2.04,2.66-5.07,2.73-8.18,3.77c10.47-23.14,46.48-41.36,79.36-18.55
				c7.3-1.5,11.03,2.76,9.79,8.61c2.55,4.54,4.99,8.71,7.25,12.98c2.71,5.13,3.82,10.74,4.4,16.45c0.31,3.08,0.91,6.14,0.17,9.29
				c-0.7,2.96-2.48,4.73-5.95,5.1c-0.25-6.87,0.89-13.79-0.96-20.59c-1.83-6.7-4.72-12.82-9.05-18.44
				c-2.38-0.25-4.91,0.06-7.02-1.85c-2.15-1.95-2.08-4.44-2.3-6.78c-3-2.72-8.8-5.87-12.19-6.61c0.19,0.47,0.29,0.89,0.51,1.22
				c3.42,4.89,5.57,10.35,7.23,16.03c0.54,1.86,1.42,2.89,3.5,3.21c2.98,0.47,5.88,1.41,8.82,2.13c1.78,0.44,3.16,1.23,3.68,3.21
				c0.3,1.13,0.97,2.17,1.77,3.85c-1.52-0.22-2.49-0.26-3.4-0.5c-3.91-1.05-7.81-2.17-12.11-3.37c1.67,13.28,1.75,26.04-0.81,39.13
				c1.41,0,2.53,0.19,3.57-0.03c8.23-1.78,16.34-3.99,23.61-8.38c2.5-1.51,4.83-3.36,6.4-5.98c1.68-2.8,1.91-5.66,0-8.31
				c-1.95-2.69-1.9-5.88-2.77-8.83c-0.11-0.36,0.09-0.82,0.18-1.39c0.54,0.13,1.03,0.1,1.31,0.33c3.74,3.05,7.05,6.38,7.99,11.44
				c0.84,4.54-0.46,8.36-3.4,11.78c-3.83,4.47-8.79,7.26-14.12,9.49c-6.1,2.55-12.45,4.25-18.96,5.37c-3.02,0.52-5.42,2.61-6.62,5
				c-2.59,5.17-4.72,10.57-8.17,15.38c3.19-0.65,6.03-2,8.82-3.47c6.34-3.33,11.28-8.26,15.73-13.77
				C114.36,103.17,117.92,101.65,121.08,101.72z M57.81,55.02c-1.14,1.12-2.05,1.82-2.73,2.71c-0.77,0.99-1.72,2.08-1.91,3.23
				c-0.61,3.66-1.11,7.36-1.27,11.06c-0.33,7.62-0.1,15.23,1.05,22.79c0.1,0.66,0.35,1.3,0.57,2.14
				c12.16,2.26,24.29,2.06,36.41,1.12c0.67-0.89,1.28-1.71,2.08-2.15c1.45-0.81,2.09-2.04,2.26-3.57c0.45-3.95,1-7.89,1.23-11.86
				c0.42-7.19-0.12-14.36-1.07-21.49c-0.12-0.9-0.53-1.76-0.77-2.54C81.56,54.14,69.6,55.22,57.81,55.02z M54.83,102.91
				c0.87,2.39,1.5,4.25,2.22,6.07c1.83,4.62,4.27,8.86,7.83,12.42c4.69,4.69,11.42,4.39,16.07,0.05c4.23-3.95,6.83-8.9,9.14-14.06
				c0.41-0.91,0.49-1.96,0.84-3.44c-4.32,0.07-8.25,0.01-12.21,0.22c-3.87,0.2-7.78-0.03-11.66-0.24
				C63.15,103.7,59.24,103.28,54.83,102.91z M92.44,50.32c-0.69-1.84-1.35-3.41-1.87-5.02c-1.66-5.11-4.32-9.53-8.25-13.29
				c-4.19-4.01-9.69-4.7-14.36-1.26c-6.3,4.63-9.09,11.46-11.8,18.87c6.27-0.13,12.11-0.44,17.95-0.32
				C80.04,49.41,85.96,49.94,92.44,50.32z"/>
		</g>
	</g>
</g>
</svg>
