<?xml version="1.0" encoding="utf-8"?>
<!-- Generator: Adobe Illustrator 25.2.0, SVG Export Plug-In . SVG Version: 6.00 Build 0)  -->
<svg version="1.1" id="圖層_1" xmlns="http://www.w3.org/2000/svg" xmlns:xlink="http://www.w3.org/1999/xlink" x="0px" y="0px"
	 viewBox="0 0 147.7 153.5" style="enable-background:new 0 0 147.7 153.5;" xml:space="preserve">
<style type="text/css">
	.st0{display:none;}
	.st1{display:inline;}
	.st2{fill:url(#SVGID_1_);}
	.st3{fill:url(#SVGID_2_);}
	.st4{fill:url(#SVGID_3_);}
	.st5{fill:url(#SVGID_4_);}
	.st6{fill:url(#SVGID_5_);}
	.st7{fill:url(#SVGID_6_);}
	.st8{fill:url(#SVGID_7_);}
	.st9{fill:url(#SVGID_8_);}
	.st10{fill:url(#SVGID_9_);}
	.st11{fill:url(#SVGID_10_);}
	.st12{fill:url(#SVGID_11_);}
	.st13{fill:url(#SVGID_12_);}
	.st14{fill:url(#SVGID_13_);}
	.st15{fill:url(#SVGID_14_);}
	.st16{fill:url(#SVGID_15_);}
</style>
<g id="圖層_1_1_" class="st0">
	<g id="ZVYF79.tif" class="st1">
		<g>
			
				<linearGradient id="SVGID_1_" gradientUnits="userSpaceOnUse" x1="35.2765" y1="133.9564" x2="95.0168" y2="45.6447" gradientTransform="matrix(1 0 0 -1 0 153.8898)">
				<stop  offset="0" style="stop-color:#1E3A93"/>
				<stop  offset="0.9987" style="stop-color:#182446"/>
			</linearGradient>
			<path class="st2" d="M100.3,133.5c-0.4,1.4-0.7,2.6-1.1,3.7c-1,3.1-3.1,3.9-5.9,2.2c-0.6-0.4-1.2-0.8-1.8-1.3
				c-1.1-0.9-1.8-0.7-2.2,0.6c-0.1,0.2-0.1,0.3-0.2,0.5c-2.1,4.9-4.6,5.3-8.3,1.4c-0.4-0.4-0.8-0.8-1-1.1c-2,1.6-3.9,4.2-5.9,4.3
				c-1.8,0.1-3.8-2.5-5.7-3.9c-1.6,0.9-3.9,3.1-5.9,2.9c-1.8-0.2-3.3-3.1-5.3-5.1c-0.3,0.2-1.2,0.8-2.2,1.4
				c-3.3,2.2-5.7,1.2-6.6-2.6c-0.7-3.1-0.7-3.1-3.5-1.8c-4,1.8-6.2,0.5-6.5-3.9c0-0.8-0.1-1.6-0.1-2.3c-2.6,0-5.7,0.9-7.3-0.3
				c-1.5-1.1-1.3-4.4-1.9-7.1c-0.6,0-1.9,0.1-3.2,0.1c-3.4,0.1-4.7-1.7-4-4.9c0.2-0.7,0.7-1.5,0.6-2.1c-0.1-0.6-0.7-1.6-1.2-1.7
				c-6.7-1.1-7.2-2-4.2-8.2c0.1-0.3,0.2-0.6,0.3-1.1c-1.2-0.3-2.3-0.7-3.4-1c-3.7-1.1-4.4-3.1-2.3-6.3c0.4-0.6,0.8-1.1,1.2-1.6
				c0.9-1,0.5-1.6-0.5-2.1C6,89.1,5.9,88.1,11,83.3c0.2-0.2,0.3-0.4,0.3-0.4C9.6,80.9,7,79,6.8,77c-0.1-1.8,2.5-3.8,4.1-5.7
				c-0.9-1.6-3.3-3.9-3.1-5.8s3.3-3.4,5.4-5.3c-0.3-0.4-0.9-1.2-1.5-2.1c-2.3-3.4-1.4-5.8,2.6-6.8c3.1-0.7,3.1-0.7,1.8-3.5
				c-1.9-3.9-0.6-6.3,3.8-6.5c0.8,0,1.6-0.1,2.8-0.2c-0.3-1.1-0.4-2.1-0.7-3c-1.2-4.1,0.4-6.1,4.6-5.8c3.1,0.3,3.1,0.3,2.8-2.8
				c-0.4-4.3,1.6-5.9,5.7-4.7c0.9,0.3,1.7,0.5,3,0.8c0.1-1.2,0.2-2.1,0.2-3.1c0.3-4.1,2.5-5.5,6.2-3.7c3,1.4,3,1.4,3.8-1.8
				c1-3.9,3.4-4.8,6.7-2.5c0.8,0.6,1.7,1.2,2.7,2c0.7-1.4,1.1-2.6,1.7-3.6c1.6-3,3.7-3.3,6.2-1.1c0.6,0.5,1.1,1.1,1.6,1.6
				c0.9,1,1.6,1.1,2.2-0.2c0-0.1,0.1-0.1,0.1-0.2c3.3-4.9,5.4-4.9,8.6,0c0.3,0.5,0.7,0.9,1.3,1.6c0.7-0.7,1.2-1.3,1.8-1.9
				c3.3-3.4,6-3.1,7.6,1.4c0.8,2.2,1.4,2.6,3.3,1c3.8-3.1,6-2.2,7.3,2.5c0.2,0.9,0.5,1.7,0.8,2.8c1.1-0.6,2-1,2.9-1.5
				c3.7-1.8,5.7-0.6,6.2,3.5c0.3,3.4,0.3,3.4,3.6,2.5c3.7-1,5.5,0.3,5.3,4.1c0,0.7-0.1,1.3-0.2,2c-0.1,1.2,0.2,2,1.7,1.6
				c0.2,0,0.3-0.1,0.5-0.1c5.3-0.6,7,1.4,5.3,6.4c-0.2,0.6-0.3,1.2-0.5,2.2c1.1,0.1,2,0.1,2.9,0.2c4.3,0.3,5.6,2.4,3.9,6.3
				c-1.3,2.9-1.3,2.9,1.7,3.7c3.8,0.9,4.8,3.4,2.5,6.7c-0.6,0.9-1.2,1.7-1.5,2.1c2,1.9,4.9,3.3,5.3,5.3c0.4,1.8-2,4.1-3,6
				c1.3,1.7,4,3.6,4,5.5c0,1.9-2.7,3.8-4.4,6c0.6,0.6,1.6,1.3,2.4,2.2c2.1,2.4,1.8,4.5-1,6.1c-0.7,0.4-1.6,0.5-2.2,1
				c-0.4,0.4-0.9,1.4-0.7,1.8c3.5,6.5,3.5,6.5-3.7,8.9c-0.1,0.1-0.3,0.2-0.1,0.1c0.4,2.6,1.7,5.6,0.7,7.3c-0.9,1.6-4.1,1.9-6.3,2.8
				c0,2.1,0.9,5.2-0.3,6.6c-1.2,1.5-4.4,1.3-7.1,1.9c0,0.4-0.1,1.3,0,2.3c0.2,4.5-1.6,6.2-5.8,4.7c-2.5-0.9-3-0.3-3.1,2.1
				c-0.2,4.7-2.5,5.9-6.8,3.8C101.9,134.3,101.2,134,100.3,133.5z M73.8,127.1c27.6,0,50.2-22.4,50.2-49.9
				c0-27.5-22.4-50.1-49.7-50.2c-28-0.1-50.4,22.2-50.5,50.2C23.8,104.5,46.3,127,73.8,127.1z"/>
			
				<linearGradient id="SVGID_2_" gradientUnits="userSpaceOnUse" x1="35.2591" y1="133.9446" x2="94.9993" y2="45.6329" gradientTransform="matrix(1 0 0 -1 0 153.8898)">
				<stop  offset="0" style="stop-color:#1E3A93"/>
				<stop  offset="0.9987" style="stop-color:#182446"/>
			</linearGradient>
			<path class="st3" d="M73.9,119.2c-23.4-0.1-42.5-18.9-42.4-41.9c0-23.9,18.9-42.8,42.7-42.7c23.1,0,42,19.1,42,42.4
				C116.1,100.5,97.3,119.3,73.9,119.2z M73.9,41c-20.3,0.1-36.1,16.2-36,36.4c0.1,19.7,16.6,35.7,36.5,35.5
				c19.2-0.1,35.7-16.8,35.5-35.9C109.7,57.1,93.6,40.9,73.9,41z"/>
			
				<linearGradient id="SVGID_3_" gradientUnits="userSpaceOnUse" x1="38.2609" y1="135.9753" x2="98.0011" y2="47.6636" gradientTransform="matrix(1 0 0 -1 0 153.8898)">
				<stop  offset="0" style="stop-color:#1E3A93"/>
				<stop  offset="0.9987" style="stop-color:#182446"/>
			</linearGradient>
			<path class="st4" d="M100.7,63c-0.5,0.7-0.8,1.2-1.2,1.7c-8.8,10.6-17.7,21.1-26.6,31.7c-1.2,1.4-2,1.5-3.4,0.3
				c-6.9-5.6-13.8-11.2-20.8-16.6c-1.6-1.2-1.7-2.2-0.4-3.6c1.5-1.6,2.8-3.3,4.1-5c0.9-1.2,1.7-1.3,2.9-0.4
				c4.3,3.2,8.8,6.3,13.1,9.6c1.7,1.3,2.7,1.3,4.1-0.5c5.9-7.4,11.9-14.7,17.8-22.1c1.4-1.7,2.4-2.2,4.2-0.5c1.6,1.5,3.4,2.7,5,4
				C99.8,61.9,100.2,62.5,100.7,63z"/>
		</g>
	</g>
</g>
<g id="圖層_2_1_" class="st0">
	<g class="st1">
		<g id="PAMslD.tif">
			<g>
				
					<linearGradient id="SVGID_4_" gradientUnits="userSpaceOnUse" x1="19.0287" y1="125.3075" x2="85.2898" y2="5.6419" gradientTransform="matrix(1 0 0 -1 0 153.8898)">
					<stop  offset="0" style="stop-color:#1E3A93"/>
					<stop  offset="0.9987" style="stop-color:#182446"/>
				</linearGradient>
				<path class="st5" d="M68.6,48.8c-0.9,0.8-1.8,1.6-2.6,2.5c-2.3,2.2-4.1,4.8-5,7.9c-1.6,5.9-0.4,13,5.1,17.3
					c1.2,0.9,2.6,1.6,3.9,2.3c0.4,0.2,0.6,0.5,0.4,1c-2.6,6-5.2,11.9-10,16.5c-1.6,1.6-3.5,2.7-5.8,3.2c-1.9,0.4-3.7,0-5.5-0.7
					c-1.5-0.6-3-1.3-4.5-1.8c-0.7-0.3-1.5-0.4-2.3-0.4c-2.3,0-4.6-0.3-6.8,0.5c-1.8,0.6-3.4,1.4-5.2,2c-2.4,0.8-4.8,0.7-7.1-0.5
					c-3.2-1.7-5.5-4.5-7.5-7.4c-3.1-4.5-5.6-9.4-7.2-14.7C6.9,71,6.3,65.4,7.1,59.7c0.8-5.3,2.9-9.9,6.9-13.5
					c3.9-3.6,8.6-5,13.9-4.4c2.4,0.3,4.7,1,7,1.9c3.2,1.2,6.2,1.2,9.4,0c2.2-0.8,4.4-1.5,6.7-2C57.7,40.6,64.6,43.1,68.6,48.8z"/>
				
					<linearGradient id="SVGID_5_" gradientUnits="userSpaceOnUse" x1="37.6702" y1="135.6297" x2="103.9314" y2="15.9641" gradientTransform="matrix(1 0 0 -1 0 153.8898)">
					<stop  offset="0" style="stop-color:#1E3A93"/>
					<stop  offset="0.9987" style="stop-color:#182446"/>
				</linearGradient>
				<path class="st6" d="M38.3,40.3c0.5-5.8,3.1-10.9,9-13.9c1.8-0.9,3.8-1.3,5.8-1.9c0.6-0.2,0.7,0.2,0.7,0.7c0,4.3-1.3,8.1-4,11.4
					c-2.3,2.8-5.2,4.8-8.8,5.6c-0.3,0.1-0.7,0.1-1,0.1C38.3,42.5,38.3,42.5,38.3,40.3z"/>
			</g>
		</g>
		<g>
			<g>
				
					<linearGradient id="SVGID_6_" gradientUnits="userSpaceOnUse" x1="32.1964" y1="132.5987" x2="98.4575" y2="12.9331" gradientTransform="matrix(1 0 0 -1 0 153.8898)">
					<stop  offset="0" style="stop-color:#1E3A93"/>
					<stop  offset="0.9987" style="stop-color:#182446"/>
				</linearGradient>
				<path class="st7" d="M76.3,85.4c-1.4,0-2.6,0.5-3.6,1.5s-1.5,2.1-1.5,3.5v20.9c0,1.4,0.5,2.6,1.5,3.6s2.2,1.5,3.6,1.5
					s2.6-0.5,3.5-1.5s1.4-2.2,1.4-3.6V90.3c0-1.4-0.5-2.5-1.5-3.5C78.8,85.9,77.6,85.4,76.3,85.4z"/>
				
					<linearGradient id="SVGID_7_" gradientUnits="userSpaceOnUse" x1="63.7363" y1="150.063" x2="129.9974" y2="30.3974" gradientTransform="matrix(1 0 0 -1 0 153.8898)">
					<stop  offset="0" style="stop-color:#1E3A93"/>
					<stop  offset="0.9987" style="stop-color:#182446"/>
				</linearGradient>
				<path class="st8" d="M116.5,66.6l3.4-6.4c0.2-0.4,0.2-0.8-0.2-1c-0.4-0.2-0.8-0.1-1,0.3l-3.5,6.4c-3.1-1.4-6.3-2-9.8-2
					s-6.7,0.7-9.8,2l-3.5-6.4c-0.2-0.4-0.6-0.5-1-0.3c-0.4,0.2-0.5,0.5-0.2,1l3.4,6.4c-3.5,1.8-6.3,4.3-8.4,7.5
					C84,77.3,83,80.8,83,84.6h45c0-3.8-1-7.3-3.1-10.5C122.8,70.9,120,68.4,116.5,66.6z M96.6,75.9c-0.4,0.4-0.8,0.6-1.3,0.6
					s-1-0.2-1.3-0.6c-0.4-0.4-0.5-0.8-0.5-1.3s0.2-1,0.5-1.3c0.4-0.4,0.8-0.6,1.3-0.6s1,0.2,1.3,0.6c0.4,0.4,0.6,0.8,0.6,1.3
					S96.9,75.5,96.6,75.9z M117.1,75.9c-0.4,0.4-0.8,0.6-1.3,0.6c-0.5,0-1-0.2-1.3-0.6c-0.4-0.4-0.6-0.8-0.6-1.3s0.2-1,0.6-1.3
					c0.4-0.4,0.8-0.6,1.3-0.6s1,0.2,1.3,0.6c0.4,0.4,0.5,0.8,0.5,1.3S117.4,75.5,117.1,75.9z"/>
				
					<linearGradient id="SVGID_8_" gradientUnits="userSpaceOnUse" x1="53.5676" y1="144.4324" x2="119.8288" y2="24.7668" gradientTransform="matrix(1 0 0 -1 0 153.8898)">
					<stop  offset="0" style="stop-color:#1E3A93"/>
					<stop  offset="0.9987" style="stop-color:#182446"/>
				</linearGradient>
				<path class="st9" d="M83.2,118.7c0,1.5,0.5,2.8,1.6,3.8c1,1,2.3,1.6,3.8,1.6h3.6l0.1,11c0,1.4,0.5,2.6,1.5,3.6s2.1,1.5,3.5,1.5
					c1.4,0,2.6-0.5,3.6-1.5s1.5-2.2,1.5-3.6v-11h6.7v11c0,1.4,0.5,2.6,1.5,3.6s2.2,1.5,3.6,1.5s2.6-0.5,3.6-1.5s1.5-2.2,1.5-3.6v-11
					h3.7c1.5,0,2.7-0.5,3.8-1.6s1.6-2.3,1.6-3.8V86.3H83.2V118.7z"/>
				
					<linearGradient id="SVGID_9_" gradientUnits="userSpaceOnUse" x1="76.9929" y1="157.4034" x2="143.2541" y2="37.7378" gradientTransform="matrix(1 0 0 -1 0 153.8898)">
					<stop  offset="0" style="stop-color:#1E3A93"/>
					<stop  offset="0.9987" style="stop-color:#182446"/>
				</linearGradient>
				<path class="st10" d="M134.7,85.4c-1.4,0-2.5,0.5-3.5,1.4s-1.5,2.1-1.5,3.5v20.9c0,1.4,0.5,2.6,1.5,3.6s2.1,1.5,3.5,1.5
					c1.4,0,2.6-0.5,3.6-1.5s1.5-2.2,1.5-3.6V90.3c0-1.4-0.5-2.6-1.5-3.5C137.3,85.9,136.1,85.4,134.7,85.4z"/>
			</g>
		</g>
		
			<linearGradient id="SVGID_10_" gradientUnits="userSpaceOnUse" x1="42.5599" y1="138.3372" x2="108.8211" y2="18.6716" gradientTransform="matrix(1 0 0 -1 0 153.8898)">
			<stop  offset="0" style="stop-color:#1E3A93"/>
			<stop  offset="0.9987" style="stop-color:#182446"/>
		</linearGradient>
		<polygon class="st11" points="50.2,143.9 44.5,143.9 102.6,9.6 108.3,9.6 		"/>
	</g>
</g>
<g id="圖層_3" class="st0">
	<g id="KMpQuI.tif" class="st1">
		<g>
			
				<linearGradient id="SVGID_11_" gradientUnits="userSpaceOnUse" x1="15.1081" y1="136.0248" x2="129.5723" y2="21.5606" gradientTransform="matrix(1 0 0 -1 0 153.8898)">
				<stop  offset="0" style="stop-color:#1E3A93"/>
				<stop  offset="0.9987" style="stop-color:#182446"/>
			</linearGradient>
			<path class="st12" d="M121.1,101.7c-0.3,0.8-0.4,1.5-0.8,2.1c-6.6,10.5-15.3,18.5-27,23c-7.3,2.8-14.9,4-22.7,3.6
				c-9.6-0.6-18.5-3.4-26.4-9c-1.7-1.2-3.2-1.9-5.5-1.5c-3.8,0.7-7.4-3.1-7.1-7c0-0.7,0.2-1.4,0.4-2.2c-9-11.9-13.4-25.2-11.4-40.4
				c1.6-1,3.1-1.9,4.6-2.9c1.1,2.1,0.8,4.1,0.5,5.8c-0.8,5.3,0,10.6,1.2,15.7c1.6,6.5,4.6,12.5,8.9,17.9c2.3,0.8,5-0.5,7.2,1.9
				c1.9,2.1,1.8,4.6,2.3,7.2c3.7,2.3,7.3,5,12.4,6.1c-1.2-2-2.4-3.5-3.1-5.1c-1.8-4.1-3.5-8.3-5-12.5c-0.7-1.9-1.7-2.8-3.6-3.2
				c-3.1-0.7-6.2-1.6-9.3-2.3c-1.7-0.3-2.5-1.3-3-2.8c-0.3-1-0.8-2-1.4-3.4c3-0.2,5.2,1.2,7.5,1.8c2.4,0.6,4.8,1,7.7,1.6
				c-0.2-1.3-0.2-2.2-0.4-3.1c-0.2-1.9-0.5-3.8-0.6-5.7c-0.2-3-0.6-6.1-0.5-9.1c0.2-5.1,0.8-10.2,1.2-15.2c0.1-1.5,0.5-3.1,0.7-4.6
				c0.1-0.5-0.1-1-0.2-1.6c-1.8,0.2-3.6,0.1-5.2,0.5c-6.1,1.7-12.4,3-18.1,6.1c-3.6,1.9-7,4.1-9.5,7.4c-2.4,3.2-2.4,6.6-0.2,9.9
				c1.9,2.7,1.5,5.9,2.7,8.7c-0.2,0.2-0.4,0.3-0.5,0.4c-0.6-0.3-1.4-0.5-1.9-1c-3.1-2.6-5.8-5.7-6.7-9.7c-1.1-4.6-0.2-9,3.1-12.6
				c3.8-4.1,8.4-7.2,13.6-9.3c6.1-2.5,12.4-4.2,18.9-5.5c3.7-0.8,6.4-3.2,8-6.7c1.8-3.9,3.9-7.7,5.9-11.5c0.3-0.6,0.6-1.2,1.2-2.3
				c-1.1,0.2-1.7,0.2-2.3,0.4c-9,3.3-16.3,9-22.1,16.6c-2,2.7-5.1,2.7-8.2,3.8C37,28.8,73,10.6,105.9,33.4c7.3-1.5,11,2.8,9.8,8.6
				c2.6,4.5,5,8.7,7.2,13c2.7,5.1,3.8,10.7,4.4,16.4c0.3,3.1,0.9,6.1,0.2,9.3c-0.7,3-2.5,4.7-5.9,5.1c-0.2-6.9,0.9-13.8-1-20.6
				c-1.8-6.7-4.7-12.8-9.1-18.4c-2.4-0.2-4.9,0.1-7-1.8c-2.2-2-2.1-4.4-2.3-6.8c-3-2.7-8.8-5.9-12.2-6.6c0.2,0.5,0.3,0.9,0.5,1.2
				c3.4,4.9,5.6,10.3,7.2,16c0.5,1.9,1.4,2.9,3.5,3.2c3,0.5,5.9,1.4,8.8,2.1c1.8,0.4,3.2,1.2,3.7,3.2c0.3,1.1,1,2.2,1.8,3.8
				c-1.5-0.2-2.5-0.3-3.4-0.5c-3.9-1-7.8-2.2-12.1-3.4c1.7,13.3,1.8,26-0.8,39.1c1.4,0,2.5,0.2,3.6,0c8.2-1.8,16.3-4,23.6-8.4
				c2.5-1.5,4.8-3.4,6.4-6c1.7-2.8,1.9-5.7,0-8.3c-1.9-2.7-1.9-5.9-2.8-8.8c-0.1-0.4,0.1-0.8,0.2-1.4c0.5,0.1,1,0.1,1.3,0.3
				c3.7,3.1,7.1,6.4,8,11.4c0.8,4.5-0.5,8.4-3.4,11.8c-3.8,4.5-8.8,7.3-14.1,9.5c-6.1,2.6-12.4,4.2-19,5.4c-3,0.5-5.4,2.6-6.6,5
				c-2.6,5.2-4.7,10.6-8.2,15.4c3.2-0.7,6-2,8.8-3.5c6.3-3.3,11.3-8.3,15.7-13.8C114.4,103.2,117.9,101.7,121.1,101.7z M57.8,55
				c-1.1,1.1-2,1.8-2.7,2.7c-0.8,1-1.7,2.1-1.9,3.2c-0.6,3.7-1.1,7.4-1.3,11.1c-0.3,7.6-0.1,15.2,1,22.8c0.1,0.7,0.3,1.3,0.6,2.1
				c12.2,2.3,24.3,2.1,36.4,1.1c0.7-0.9,1.3-1.7,2.1-2.2c1.4-0.8,2.1-2,2.3-3.6c0.4-3.9,1-7.9,1.2-11.9c0.4-7.2-0.1-14.4-1.1-21.5
				c-0.1-0.9-0.5-1.8-0.8-2.5C81.6,54.1,69.6,55.2,57.8,55z M54.8,102.9c0.9,2.4,1.5,4.2,2.2,6.1c1.8,4.6,4.3,8.9,7.8,12.4
				c4.7,4.7,11.4,4.4,16.1,0.1c4.2-3.9,6.8-8.9,9.1-14.1c0.4-0.9,0.5-2,0.8-3.4c-4.3,0.1-8.2,0-12.2,0.2c-3.9,0.2-7.8,0-11.7-0.2
				C63.2,103.7,59.2,103.3,54.8,102.9z M92.4,50.3c-0.7-1.8-1.3-3.4-1.9-5c-1.7-5.1-4.3-9.5-8.2-13.3c-4.2-4-9.7-4.7-14.4-1.3
				c-6.3,4.6-9.1,11.5-11.8,18.9c6.3-0.1,12.1-0.4,18-0.3C80,49.4,86,49.9,92.4,50.3z"/>
		</g>
	</g>
</g>
<g id="圖層_4" class="st0">
	<g id="_x33_vKcqs.tif" class="st1">
		<g>
			
				<linearGradient id="SVGID_12_" gradientUnits="userSpaceOnUse" x1="34.4987" y1="124.0602" x2="109.516" y2="11.8847" gradientTransform="matrix(1 0 0 -1 0 153.8898)">
				<stop  offset="0" style="stop-color:#1E3A93"/>
				<stop  offset="0.9987" style="stop-color:#182446"/>
			</linearGradient>
			<path class="st13" d="M61.4,124.4c-1.1,0.9-2,1.8-3,2.4c-1.6,0.9-3.3,1.3-5.1,0.5c-1.4-0.6-2.5-1.5-3.4-2.6c-0.6-0.7-1-1.5-1-2.5
				c0-1-0.2-2.1,0.5-3.1c0.1-0.1,0.1-0.3,0.1-0.5c0-0.2-0.1-0.3-0.2-0.4c-0.1-0.1-0.3,0-0.4,0.1c-1,0.9-2.1,1.3-3.3,1.5
				c-0.8,0.2-1.7,0.1-2.5-0.1c-1.7-0.3-2.9-1.3-4-2.6c-1.2-1.4-1.5-3.1-1.2-4.9c0.1-0.9,0.4-1.7,0.6-2.7c-0.8,0.5-1.5,1-2.2,1.3
				c-1.5,0.6-3,1.2-4.7,0.6c-1.4-0.5-2.6-1.2-3.6-2.2c-0.6-0.6-1.1-1.2-1.2-2.1c-0.1-0.7-0.4-1.4-0.4-2.1c0-1.7,0.4-3.3,1.5-4.8
				c1.2-1.5,2.3-3.2,3.5-4.8c0.3-0.4,0.6-0.7,0.9-1.1c0.3-0.4,0.3-0.7,0-1.2c-1.2-1.4-2.2-2.9-3.4-4.3c-1.2-1.5-2.3-3-3.5-4.5
				c-0.4-0.5-0.4-0.9-0.1-1.4c0.6-1.2,1.2-2.5,1.8-3.7c0.1-0.2,0.3-0.5,0.5-0.5c0.2,0,0.6,0.2,0.7,0.4c1.4,1.8,2.8,3.6,4.2,5.3
				c1.3,1.6,2.6,3.2,3.8,4.8c0.4,0.5,0.9,0.6,1.5,0.5c1.2-0.3,2.5-0.3,3.7,0.2c0.6,0.3,1.3,0.5,1.9,0.8c1.1,0.5,1.6,1.6,2.1,2.6
				c0.8,1.4,0.7,3,0.6,4.6c0,0.6,0.1,1.1,0.6,1.6c0.6,0.6,1.1,0.9,2,0.9c1.3-0.1,2.7,0,3.9,0.7c1,0.6,1.8,1.4,2.5,2.4
				c0.7,1.2,1,2.5,1.1,3.8c0,0.1,0,0.3,0.1,0.3c0.9,0.5,1.4,1.8,2.7,1.6c0.4,0,0.7,0,1.1-0.1c2.2-0.1,3.8,1,5,2.7
				c0.7,1,1.2,2.1,1.3,3.3c0,0.3,0.2,0.7,0.5,0.8c1.1,0.8,2.2,1.6,3.4,2.4c0.2,0.1,0.5,0.2,0.7,0.3c1.4,0.3,2.5,1,3.1,2.4
				c0.3,0.6,0.9,1,1.4,1.3c0.8,0.6,1.6,1.1,2.4,1.6c1.2,0.8,3.6,0.7,4.7-0.7c0.4-0.5,0.6-1.2,0.9-1.8c0.2-0.6-0.2-0.9-0.6-1.2
				c-0.9-0.7-1.9-1.4-2.9-2.1c-1.2-0.9-2.3-1.8-3.4-2.7c-1.6-1.2-3.1-2.4-4.7-3.6c-1.2-0.9-1.6-1.9-1-3.2c0.1-0.3,0.4-0.5,0.7-0.6
				c1.4-0.5,2.7-0.2,3.9,0.8c1.1,0.9,2.3,1.6,3.5,2.4c1,0.7,1.9,1.4,2.8,2.1c1.1,0.8,2.3,1.6,3.4,2.3c1,0.7,1.9,1.4,2.9,2.1
				c1.1,0.8,2.2,1.6,3.3,2.3c0.3,0.2,0.7,0.4,1,0.7c1,0.9,2.3,0.7,3.4,0.4c1.1-0.3,1.9-1.2,2.4-2.2c0.6-1.2,0.4-2.4-0.1-3.5
				c-0.3-0.6-0.8-1.2-1.3-1.6c-1.5-1.2-3.2-2.2-4.7-3.4c-1.8-1.3-3.7-2.7-5.5-4.1c-1.1-0.8-2.2-1.5-3.3-2.3
				c-1.2-0.9-2.4-1.8-3.7-2.7c-0.7-0.6-1.5-1.1-2.2-1.6c-0.9-0.6-0.8-1.6-0.7-2.4c0.1-0.7,0.9-1.3,1.7-1.4c1-0.2,1.7,0.2,2.5,0.7
				c1.9,1.4,3.8,2.8,5.8,4.2c1.7,1.2,3.3,2.3,5,3.5c1.9,1.4,3.8,2.8,5.8,4.1c1.7,1.2,3.4,2.2,5,3.5c1.2,0.9,2.4,1.2,3.8,1.2
				c0.8,0,1.5-0.4,1.9-1c0.5-0.8,1-1.7,1.2-2.6c0.3-1.3-0.2-2.6-1.3-3.4c-2.2-1.7-4.4-3.3-6.6-4.9c-1.9-1.4-3.8-2.7-5.7-4.1
				c-1.5-1.1-2.9-2.1-4.4-3.2c-1.2-0.9-2.4-1.8-3.7-2.8c-1.7-1.2-3.3-2.4-5-3.6c-1.1-0.8-1.3-2.6-0.3-3.6c0.1-0.1,0.3-0.2,0.5-0.2
				c1.5-0.5,2.7-0.1,3.9,0.9c1,0.8,2,1.5,3.1,2.2c1.4,1,2.8,2,4.2,2.9c1.1,0.8,2.2,1.5,3.3,2.3c1.3,0.9,2.6,1.9,3.9,2.8
				c1.6,1.2,3.3,2.3,4.9,3.5c1.7,1.2,3.3,2.4,5,3.6c1.1,0.8,2.1,1.6,3.6,1.4c1.6-0.2,3-0.8,3.9-2.3c0.6-0.9,0.9-1.8,1-2.8
				c0.1-1.8-0.7-3.2-2.1-4.3c-2.6-2.2-5.2-4.5-7.8-6.8c-2.1-1.8-4.1-3.5-6.2-5.3c-1.2-1.1-2.5-2.2-3.7-3.3c-1.9-1.7-3.9-3.3-5.8-5
				c-1.5-1.3-3-2.6-4.5-3.9c-2.1-1.8-4.2-3.7-6.3-5.5c-1.1-1-2.2-1.9-3.2-2.9c-1.1-1-2.4-1.2-3.7-1.3c-3.4-0.3-6,1.1-7.9,3.8
				c-0.3,0.5-0.4,1-0.6,1.6c-0.4,1.6-0.9,3.2-1.7,4.7c-0.7,1.4-1.6,2.7-2.8,3.8c-1,0.9-2.2,1.7-3.4,2.4c-1.3,0.9-2.8,1.2-4.3,1.7
				c-1.2,0.3-2.4,0.3-3.6-0.1c-0.8-0.3-1.7-0.6-2.5-1c-2.4-1-3-3.7-1.6-5.8c0.3-0.4,0.5-1,0.7-1.5c0.3-0.7,0.5-1.4,0.7-2.2
				c0.3-1.8,0.5-3.5,0.6-5.3c0-1.8,0.3-3.6,0.9-5.3c0.6-1.5,1.5-2.8,2.2-4.2c0.1-0.2,0.2-0.5,0.3-0.8c-0.3-0.1-0.5-0.3-0.8-0.3
				c-3.8,0-7.7,0-11.5,0c-0.2,0-0.4,0-0.6,0c-0.4-0.1-0.5-0.2-0.3-0.6c0.4-0.7,0.7-1.5,1.1-2.3c0.5-1,0.9-1.9,1.4-2.9
				c0.2-0.5,0.7-0.6,1.2-0.6c2.5,0,4.9,0,7.4,0c3.8,0,7.7,0,11.5,0c1.1,0,2-0.5,2.9-0.9c0.6-0.2,1.1-0.6,1.7-0.9
				c0.8-0.3,1.6-0.6,2.4-0.9c0.8-0.3,1.6-0.5,2.4-0.8c3-1,6-1.4,9.2-0.7c0.5,0.1,1.1,0.1,1.6,0.2c1.8,0.2,3.5,0.5,5.2,0.8
				c0.6,0.1,1.1,0.4,1.7,0.6c1.1,0.3,2.2,0.7,3.2,1c0.2,0,0.3,0.1,0.5,0.2c1.3,0.3,2.7,0.4,4,0.8c2,0.6,4.2,0.5,6.2,0.8
				c0.3,0,0.5,0,0.8,0c0.9-0.1,1.3,0.2,1.7,1c0.6,1.3,1.2,2.5,1.8,3.8c0.5,1.1,1,2.2,1.5,3.2c0.5,1.1,1.1,2.1,1.6,3.2
				c0.2,0.5,0.5,1,0.7,1.5c0.9,2,1.8,4,2.8,6c0.7,1.5,1.5,3,2.3,4.6c0.5,1.1,1,2.2,1.5,3.3c0.5,1.1,1.1,2.1,1.6,3.2
				c0.5,1.1,1,2.2,1.5,3.2c0.5,1.1,1.1,2.2,1.6,3.2c0.3,0.6,0.6,1.1,0.8,1.7c0.1,0.4,0.2,1,0.1,1.4c-0.2,0.8-0.7,1.6-1,2.4
				c-0.3,0.7-0.6,1.3-0.8,2c-0.1,0.1-0.1,0.3-0.2,0.4c-0.9,1-0.3,1.8,0.3,2.6c1.5,2.1,2.1,4.4,1.9,6.9c-0.1,1.5-0.6,2.8-1.3,4.1
				c-1.1,2.2-2.9,3.5-5.2,4.2c-0.9,0.3-1.8,0.4-2.7,0.6c-0.6,0.1-0.9,0.4-0.9,1c0,0.6,0,1.3-0.1,1.9c-0.1,1.5-0.8,2.8-1.8,3.8
				c-0.7,0.7-1.3,1.3-2,1.8c-0.5,0.3-1,0.7-1.6,0.8c-1.5,0.2-3,0.4-4.5,0.5c-0.6,0-0.8,0.2-0.9,0.8c-0.2,2-1.1,3.7-2.5,5
				c-0.8,0.8-1.7,1.5-2.7,1.8c-1.1,0.3-2.3,0.6-3.5,0.5c-2.2,0-4.2-0.8-6-2c-0.4-0.3-0.8-0.1-0.9,0.3c-0.4,1.2-1.1,2.1-2.1,2.9
				c-1,0.8-2.1,1.5-3.4,1.7c-0.6,0.1-1.1,0.2-1.7,0.3c-1.4,0.2-2.8-0.2-4.1-0.5c-0.6-0.1-1-0.5-1.5-0.9c-0.3-0.2-0.5-0.2-0.7,0.1
				c-0.6,0.8-1.2,1.6-1.9,2.4c-1.1,1.2-2.5,1.9-4.1,2.1c-1.5,0.2-2.9-0.4-4.1-1.3c-1.5-1.2-2.3-2.8-2.3-4.8c0-0.4,0.1-0.7,0.2-1.1
				C61.3,125.2,61.3,124.9,61.4,124.4z"/>
			
				<linearGradient id="SVGID_13_" gradientUnits="userSpaceOnUse" x1="84.4935" y1="157.4942" x2="159.5109" y2="45.3187" gradientTransform="matrix(1 0 0 -1 0 153.8898)">
				<stop  offset="0" style="stop-color:#1E3A93"/>
				<stop  offset="0.9987" style="stop-color:#182446"/>
			</linearGradient>
			<path class="st14" d="M108.3,39.6c-0.1-1.6,1-2.5,2.3-3.1c0.7-0.3,1.4-0.7,2.2-1.1c0.6-0.3,1.3-0.6,1.9-0.9
				c0.6-0.3,1.3-0.6,1.9-1c1.1-0.5,2.1-1.1,3.3-1.1c1.5-0.1,2.4,0.7,3.1,1.8c1,1.8,1.8,3.6,2.7,5.4c0.7,1.5,1.5,2.9,2.3,4.4
				c0.5,1.1,1,2.2,1.5,3.2c0.5,1,1.1,2.1,1.6,3.1c0.5,1,1,2.1,1.5,3.2c0.3,0.6,0.6,1.2,1,1.8c0.2,0.5,0.5,0.9,0.7,1.4
				c0.5,1,1,2.1,1.5,3.2c0.5,1,1.1,2.1,1.6,3.1c0.3,0.6,0.6,1.2,0.9,1.9c0.2,0.4,0.4,0.9,0.7,1.3c0.5,1.1,1.1,2.1,1.6,3.2
				c0.2,0.5,0.5,1,0.7,1.4c0.5,1.1,1,2.1,1.5,3.2c0.3,0.6,0.5,1.2,0.8,1.8c0.6,1.1,0,2.9-1.1,3.6c-0.8,0.5-1.6,0.9-2.5,1.4
				c-1.1,0.5-2.2,1.1-3.3,1.6c-0.7,0.3-1.4,0.7-2.1,1c-0.5,0.2-1,0.5-1.6,0.6c-2,0.5-3.4-0.6-4.3-2.3c-0.6-1.1-1.2-2.3-1.7-3.4
				c-0.5-1.1-1-2.2-1.5-3.4c-0.5-1.1-1.1-2.1-1.6-3.1c-0.5-1.1-1-2.1-1.5-3.2c-0.5-1.1-1.1-2.2-1.6-3.3c-0.6-1.1-1.1-2.3-1.7-3.4
				c-0.6-1.1-1.1-2.2-1.7-3.3c-0.3-0.6-0.6-1.3-0.9-2c-0.2-0.5-0.4-0.9-0.7-1.3c-0.5-1.1-1.1-2.1-1.6-3.2c-0.5-1-1-2.1-1.5-3.2
				s-1.1-2.1-1.6-3.1c-0.2-0.5-0.5-0.9-0.7-1.4c-0.6-1.2-1.3-2.4-1.9-3.7C108.3,40.5,108.3,40,108.3,39.6z"/>
			
				<linearGradient id="SVGID_14_" gradientUnits="userSpaceOnUse" x1="12.2935" y1="109.2105" x2="87.3108" y2="-2.965" gradientTransform="matrix(1 0 0 -1 0 153.8898)">
				<stop  offset="0" style="stop-color:#1E3A93"/>
				<stop  offset="0.9987" style="stop-color:#182446"/>
			</linearGradient>
			<path class="st15" d="M38.7,39.7c0.2,1-0.5,1.8-0.9,2.8c-0.5,1.3-1.2,2.5-1.8,3.7c-0.5,1.1-1.1,2.2-1.6,3.2
				c-0.5,1.1-1,2.2-1.5,3.2c-0.5,1.1-1,2.1-1.5,3.2c-0.5,1.1-1.1,2.3-1.6,3.4s-1.1,2.2-1.7,3.4c-0.2,0.5-0.5,1-0.7,1.5
				c-0.7,1.5-1.4,3.1-2.1,4.6c-0.7,1.6-1.5,3.1-2.3,4.6c-0.5,1.1-1,2.2-1.5,3.3c-0.5,1.1-1.1,2.2-1.6,3.2c-0.3,0.5-0.5,1.1-0.8,1.6
				c-0.4,0.7-0.8,1.6-1.4,2.2c-0.8,0.8-2.3,1.2-3.3,0.7c-1.7-0.9-3.5-1.8-5.3-2.6c-1-0.5-2.1-1-3.1-1.5c-1.5-0.8-2.3-2-2-3.8
				c0.2-1.2,0.8-2.3,1.4-3.4c0.6-1,1-2.2,1.5-3.2c0.2-0.4,0.4-0.8,0.6-1.2c0.3-0.6,0.7-1.3,1-1.9c0.2-0.5,0.5-0.9,0.7-1.4
				c0.7-1.5,1.4-3,2.1-4.5c0.7-1.5,1.5-2.9,2.2-4.4c0.5-1,1-2.1,1.5-3.1c0.6-1.2,1.1-2.3,1.7-3.5c0.5-1.1,1-2.2,1.5-3.3
				c0.3-0.6,0.6-1.2,0.9-1.8c0.3-0.5,0.6-1.1,0.8-1.6c0.7-1.5,1.4-3,2.1-4.5c0.5-1.1,1.1-2.3,1.6-3.4c0.3-0.6,0.5-1.3,0.9-1.8
				c0.7-0.8,1.6-1.4,2.8-1.1c0.6,0.1,1.2,0.4,1.8,0.7c1.1,0.5,2.2,1.1,3.3,1.7c1.1,0.6,2.3,1.1,3.4,1.7c0.4,0.2,0.8,0.4,1.3,0.7
				C38.4,37.5,38.8,38.5,38.7,39.7z"/>
		</g>
	</g>
</g>
<g id="fFXNTN.tif">
	<g>
		<linearGradient id="SVGID_15_" gradientUnits="userSpaceOnUse" x1="16.2114" y1="25.618" x2="134.1851" y2="135.7269">
			<stop  offset="0" style="stop-color:#1E3A93"/>
			<stop  offset="0.9987" style="stop-color:#182446"/>
		</linearGradient>
		<path class="st16" d="M118.4,82.3c-0.4,4-0.8,7.9-1.2,11.8c-0.2,2-1,4.5-0.1,6c0.8,1.4,3.4,1.6,5.1,2.6c3,1.7,6.1,3.3,8.6,5.6
			c5.6,5.1,5.1,11.2-0.7,16.1c-5.5,4.7-12.1,7.1-19,8.9c-9.2,2.5-18.5,3.5-28,4c-10.6,0.5-21.2,0.3-31.7-1.1
			c-9.8-1.3-19.5-3.2-28.3-8.1c-2.8-1.5-5.4-3.6-7.6-5.9c-3.9-4.1-3.5-9.1,0.3-13.2c3.7-3.9,8.4-6.1,13.3-8c1.4-0.5,1.8-1.2,1.6-2.6
			c-0.5-4.6-0.9-9.3-1.3-13.9c-0.1-0.7-0.2-1.4-0.3-2.2c-0.7,0-1.4,0.1-2,0.1c-3.6,0.2-6.5-2-6.5-5.6c-0.1-7.8-0.1-15.7,0-23.5
			c0.1-3.6,2.5-6.3,6-7.3c1.8-0.5,3.5-1,5.3-1.5c2.4-0.7,3.3-3.1,1.7-5.1c-3.9-4.5-3.7-9.8-2.5-15c1.3-5.7,6.4-8.9,12.7-8.5
			c4.9,0.3,9.4,4.6,10.1,9.9c0.6,5,0.5,9.8-3.2,13.9c-1.5,1.7-0.7,3.9,1.4,4.5c1.9,0.6,3.8,1.1,5.7,1.7c4.3,1.4,6,3.8,6.1,8.3
			c0,0.5,0.1,0.9,0.2,1.4c1.8-0.1,2.8-2.5,1.4-4c-4-4-3.6-9-3.3-13.9c0.4-5.7,6.2-10.5,11.8-10.3c6.1,0.3,11.2,5.1,11.4,10.9
			c0.2,4.8,0.3,9.6-3.5,13.5c-1.3,1.4-0.3,3.6,1.6,3.8c0.1-0.6,0.2-1.2,0.2-1.8c0.1-4.2,1.9-6.7,6-7.9c1.7-0.5,3.4-1,5.1-1.5
			c3-0.8,3.8-3.2,1.6-5.3c-3.9-3.7-3.7-15.6-0.2-19.2c3.4-3.6,8.3-5.1,12.9-3.5c4.8,1.7,7.8,5.8,7.9,10.9c0.1,3.9,0.5,7.9-2.3,11.1
			c-1.4,1.6-1.8,3.1-1.4,5.2c2.4,0.7,5,1.5,7.5,2.2c4,1.2,6.1,3.9,6.1,8.1c0.1,7.3,0.1,14.7,0,22c0,4.6-2.7,6.8-7.2,6.3
			C119.3,82.3,119,82.3,118.4,82.3z M86.9,94.4c-0.5,4.7-1,9.6-1.4,14.4c-0.6,6.4-1.1,12.8-1.8,19.2c-0.1,0.6-0.8,1.8-1.3,1.8
			c-6,0.1-12,0.1-18.2,0.1c-1.2-12-2.3-23.8-3.4-35.4c-2.3-0.2-4.2-0.5-6.4-0.7c-0.2,1.9-0.4,3.9-0.6,5.9c-0.5,5.5-1,10.9-1.5,16.4
			c-0.1,1.1-0.3,2-1.8,2c-5.4-0.1-10.9,0-16.3-0.1c-0.5,0-1.4-0.9-1.5-1.5c-0.3-2.1-0.4-4.2-0.6-6.3c-0.2-1.8-0.4-3.6-0.6-5.3
			c-4.2,0.5-11.5,4.9-13.5,8.1c-1.2,1.8-1.6,3.9-0.2,5.5c1.9,2.2,4.1,4.3,6.6,5.7c9,5,19,6.9,29.1,8.2c9.8,1.3,19.7,1.4,29.5,0.9
			c11.6-0.5,23-2.2,34-6.1c4.5-1.6,8.9-3.6,12.2-7.3c2.1-2.4,2.4-4.9,0.4-7.3c-1.6-1.8-3.6-3.4-5.6-4.7c-2.3-1.4-4.8-2.3-7.6-3.6
			c-0.4,4.2-0.8,7.9-1,11.5c-0.1,1.7-0.8,2.3-2.5,2.2c-4.9-0.1-9.7-0.1-14.6,0c-1.9,0.1-2.6-0.6-2.8-2.5c-0.5-6.6-1.2-13.2-1.8-19.8
			c-0.1-0.7-0.3-1.4-0.4-2C91,94,89.1,94.2,86.9,94.4z M91.5,76.9c0-3.6,0.1-7.2,0-10.8c-0.1-2.8-1-3.9-3.7-4.7
			c-1.7-0.5-3.4-0.9-5.1-1.4c-1.4-0.5-2.4-0.4-3.6,0.8c-2.8,2.7-6.9,3.2-9.6,0.8c-2.3-2-4.3-1.8-6.7-1c-1.1,0.4-2.2,0.6-3.2,1
			c-2.4,0.8-3.4,2-3.5,4.4c-0.1,7.3,0,14.5,0,21.8c0,1.4,0.4,2.7,2,2.6c1.7-0.1,1.8-1.4,1.8-2.8c0-5.5,0-11,0-16.5
			c0-1.5,0.3-2.3,2.1-2.3c1.7,0,2,0.8,2,2.2c0,3.9,0,7.8,0,11.6c0,1.5,0.5,1.9,2,1.9c5.3-0.1,10.6-0.1,15.9,0c1.7,0,2-0.6,2-2.1
			c-0.1-3.7,0-7.5,0-11.2c0-1.4-0.1-2.4,1.9-2.4c1.9,0,2,0.9,2,2.3c-0.1,5.5,0,11,0,16.5c0,1.4,0.3,2.7,1.9,2.7c1.6,0,2-1.3,2-2.7
			C91.5,84.1,91.5,80.5,91.5,76.9z M123.1,65.1c0-3.5,0-6.9,0-10.4c-0.1-3.1-0.9-4.1-3.8-5.1c-1.7-0.6-3.5-0.9-5.3-1.6
			c-1.3-0.5-2.2-0.3-3.2,0.7c-2.9,2.8-7,3.4-9.8,0.9c-2.4-2.1-4.5-1.9-7-0.8c-0.6,0.2-1.2,0.3-1.8,0.5c-3.9,1.1-4.7,2.2-4.5,6.1
			c0,0.7,0.4,1.8,0.8,1.9c1.1,0.2,2,1.7,3.4,0.3c0.5-0.6,2-0.5,2.9-0.3c0.3,0,0.5,1.3,0.5,2c0,3.8,0.1,7.6,0,11.4
			c0,1.5,0.5,2.1,2.1,2.1c5.2-0.1,10.4-0.1,15.7,0c1.7,0,2.2-0.6,2.1-2.2c-0.1-3.7,0-7.5,0-11.2c0-1.4,0.1-2.4,2-2.4
			c2,0,2.2,1,2.1,2.5c-0.1,2,0,4.1,0,6.1c0,3.6-0.1,7.2,0.1,10.8c0,0.7,1,1.4,1.5,2.1c0.7-0.6,1.6-1.1,2.1-1.9
			c0.3-0.5,0.2-1.4,0.2-2.1C123.1,71.5,123.1,68.3,123.1,65.1z M57,58.2c0.7-0.3,2.2-0.5,2.8-1.3c1.5-2.1-0.2-6.2-2.7-7.1
			c-2.2-0.7-4.4-1.4-6.7-1.9c-0.6-0.1-1.5,0.2-2,0.6c-4,3.5-7.9,3.5-11.9,0.1c-0.5-0.5-1.5-0.8-2.2-0.6c-1.9,0.4-3.7,1-5.5,1.5
			c-3.5,1.1-4.3,2.2-4.3,5.8c0,6.6,0,13.3,0,19.9c0,0.8,0.1,1.7,0.5,2.4c0.3,0.5,1.1,1,1.7,0.9c0.5,0,1.2-0.7,1.5-1.2
			c0.3-0.6,0.3-1.4,0.3-2.1c0-5.4,0-10.9,0-16.3c0-1.5,0.6-1.9,2-1.9c1.4,0,2.1,0.3,2,1.9c-0.1,4,0,8-0.1,12.1
			c0,1.4,0.4,1.9,1.8,1.9c5.3-0.1,10.6-0.1,15.9,0c1.5,0,2-0.6,1.9-2c-0.1-3.8,0.1-7.6-0.1-11.4c-0.1-2.1,0.7-2.7,2.5-2.3
			C55.4,57.3,56,57.8,57,58.2z M50.3,29.7c-0.1-1.1,0-2.1-0.2-3.2c-0.5-3.4-3.2-6.3-6.4-6.7c-3.5-0.5-7,1.2-8.4,4.4
			c-1.3,2.9-1.3,6-0.5,9.1c1.1,4.7,6.2,7.3,10.6,5.4C49.3,37,50.5,33.7,50.3,29.7z M81.7,41.5c0-0.7,0-1.4,0-2.1
			c-0.1-3.7-2.7-6.9-6.1-7.6c-3.9-0.8-7.7,1-8.8,4.7c-0.8,2.5-0.8,5.3-0.6,7.9c0.4,4.7,5.3,7.7,9.8,6.4
			C79.9,49.7,81.7,46.8,81.7,41.5z M113.1,29.7c0-0.6,0-1.3,0-1.9c0-4.6-3.3-8-7.7-8c-4.4,0-7.8,3.4-7.9,7.9c0,1.4-0.1,2.8,0,4.2
			c0.3,5.2,5.5,8.7,10.5,7C111.5,37.6,113.1,34.8,113.1,29.7z M40.4,95.6c0-4.4,0-8.9,0-13.3c0-5.8,0-5.7-5.8-5.7
			c-1.6,0-1.9,0.6-1.7,2c0.2,1.8,0.4,3.6,0.6,5.5c0.9,9.4,1.9,18.8,2.6,28.2c0.2,2.4,1.7,1.6,3,1.8c1.7,0.2,1.3-1,1.3-2
			C40.4,106.6,40.4,101.1,40.4,95.6z M114.9,76.6c-1.9,0-3.5,0.1-5.1,0c-2-0.2-2.7,0.4-2.6,2.5c0.1,10.9,0.1,21.7,0,32.6
			c0,1.7,0.3,2.3,2.2,2.3c1.9,0,2.2-0.9,2.4-2.4c0.7-7.7,1.5-15.3,2.2-23C114.2,84.8,114.5,80.9,114.9,76.6z M71.9,125.7
			c0-0.8,0-1.5,0-2.2c0-10.2,0-20.3,0-30.5c0-4.6,0-4.6-4.7-4.6c-3,0-3,0-2.7,3.1c1,10.4,2,20.8,3,31.1
			C67.7,126.2,67.9,126.3,71.9,125.7z M75.8,107.2c0,5.6,0,11.3,0,16.9c0,1.4,0.6,1.9,1.9,1.8c1.2,0,2.3,0.1,2.5-1.7
			c0.9-10.2,1.9-20.3,2.9-30.5c0.5-5.4,0.5-5.4-5-5.4c-1.8,0-2.3,0.6-2.3,2.3C75.8,96.2,75.8,101.7,75.8,107.2z M103.3,95.3
			c0-4.4,0-8.9,0-13.3c0-5.4,0-5.4-5.5-5.4c-1.7,0-2.2,0.4-2,2.2C97,89.9,98,101,99,112.2c0.2,1.9,1.2,1.8,2.5,1.9
			c1.6,0.1,1.9-0.7,1.9-2C103.3,106.4,103.3,100.9,103.3,95.3z M44.5,95.5c0,5.6,0,11.1,0,16.7c0,0.6,0.3,1.5,0.7,1.7
			c2,0.9,3.4-0.1,3.5-2.3c0-0.4,0-0.8,0.1-1.3c0.9-9.5,2-18.9,2.8-28.4c0.5-5.4,0.3-5.4-5.1-5.3c-1.7,0-2,0.7-2,2.1
			C44.5,84.3,44.5,89.9,44.5,95.5z M70.2,55c-0.4,1,0,2,1,2.9c1.4,1.1,3,1.5,4.5,0.6c0.9-0.6,1.5-1.7,2.1-2.7c0.1-0.1-0.7-1-1.1-1
			C74.6,54.7,72.5,54.9,70.2,55z M101.7,43.1c-0.8,1.6,0.2,2.6,1.3,3.3c1.6,1.1,3.3,1,4.9-0.3c1-0.8,1.8-1.8,1.1-3
			C106.5,43.1,104.1,43.1,101.7,43.1z M38.7,43.1c-0.7,1.7,0.4,2.6,1.6,3.4c1.5,1,3.1,0.9,4.5-0.1c1.2-0.8,1.9-1.8,1.3-3.2
			C43.6,43.1,41.2,43.1,38.7,43.1z"/>
	</g>
</g>
</svg>
