<svg xmlns="http://www.w3.org/2000/svg" viewBox="0 0 168.05 201.78"><defs><style>.cls-1{fill:none;stroke:#f7f9fb;stroke-miterlimit:10;stroke-width:1.36px;}.cls-2{font-size:14.23px;fill:#f7f9fb;font-family:BrandonGrotesque-Medium, Brandon Grotesque;font-weight:500;}</style></defs><g id="Layer_2" data-name="Layer 2"><g id="Layer_2-2" data-name="Layer 2"><path class="cls-1" d="M106.21,52.33C92.06,49.64,77.74,51,63.51,55c-10.6,3-24.13,10.19-23.64,14.42.6,5.23,18.59,5.37,24.77,7.54,5,1.76,9.8,4.28,13.1,8.53,4.75,6.1,3.39,11.52,3.39,11.52"/><path class="cls-1" d="M53.59,83.36c-1.28.27-2.58.59-3.64.9-2.35.7-5.4,2.5-5.54,2.17s1.76-2.07,5.36-3.6a14.12,14.12,0,0,1,6-1.16,44.51,44.51,0,0,1,7.47.75,26.11,26.11,0,0,1,7.22,2.45c.51.25,2.09,1,2.52.29.22-.4-.16-.85-.52-1.13A30.23,30.23,0,0,0,57.7,78.11c-3.65-.38-7.71-.26-11.12-1.83"/><path class="cls-1" d="M64.32,86.47a5.82,5.82,0,1,1-10.73-3.11,25,25,0,0,1,4.07-.57,16.18,16.18,0,0,1,6.07,1.13A5.76,5.76,0,0,1,64.32,86.47Z"/><path class="cls-1" d="M105.17,84.22l1,.11a20.16,20.16,0,0,1,7.06,2.22c1,.55,1.73-.35,1-1.09a8.47,8.47,0,0,0-4-2.31,29.67,29.67,0,0,0-7.13-.74,24.59,24.59,0,0,0-3.39.19c-.94.15-2.12.39-3.32.68a48.88,48.88,0,0,0-5.26,1.54c-1.94.74-2.47-.07-1.57-1.16,1.53-1.84,4-2.92,6.18-3.81,7-2.92,14.48-2.27,21.76-3.82a7.24,7.24,0,0,0,2.24-.76,3.38,3.38,0,0,0,1.65-2.55,5,5,0,0,0-.71-3.11c-2.93-5.16-9.73-7.52-15-9.22-1.65-.53-2.72.09-4.22.77a33.59,33.59,0,0,1-6.25,2.12c-1.87.43-4.53,1.18-6.37.31a1.25,1.25,0,0,1-.57-.47c-.26-.52.21-1.1.67-1.46a14.31,14.31,0,0,1,8.2-2.79,35,35,0,0,1,8.7,1.13c2.77.57,6,1.38,8.79,1.07a3.06,3.06,0,0,0,1.12-.31,1.51,1.51,0,0,0,.43-2.2c-.74-1.25-4.43-2.82-4.43-2.82"/><path class="cls-1" d="M106.21,87.54a5.82,5.82,0,1,1-10.87-2.88c.44-.12,1-.24,1.55-.35a35.48,35.48,0,0,1,8.28-.09A5.76,5.76,0,0,1,106.21,87.54Z"/><path class="cls-1" d="M32.09,114.85s-3.94-4.8-11.45-.62c-4.15,2.32-8.34,7.26-8.25,12.26.06,3.16,2.25,5.47,5,6.68,5.74,2.51,14.19.14,18.22-4.45,2-2.28,7-12.31.08-11a13.31,13.31,0,0,0-7.56,4.81c-5.1,6.22-8.37,15.92-.8,21.61a8,8,0,0,0,9.48.14c3.34-2.27,5.46-6.19,7.3-9.68s3.41-7,4.91-10.54c1.37-3.29,2.61-6.63,3.83-10,1.11-3.06,1.88-6.67,3.81-9.33A3.26,3.26,0,0,1,58,103.63c3.95-1.73,1.89,6.76,1.46,8.1-1.56,4.85-3.82,9.52-5.59,14.28-1.93,5.16-4.58,10.61-3.53,16.28a7.58,7.58,0,0,0,1.92,4c4.36,4.42,12.92,1.87,17.91.12,3.15-1.11,6.46-2.36,9.08-4.49,2.13-1.74,4.84-6.45,3.77-7s-3.08,2.12-3.86,3.79a5.92,5.92,0,0,0-.42,4.27c.72,2.28,3,3.69,5.34,4.32,4.75,1.28,10,0,14.11-2.59,11.28-7.15,14.79-21.34,18.54-33.26,1.2-3.83,2.57-10.53,6.52-12.64"/><path class="cls-1" d="M37.26,108.2c1.25-4.94,6.54-7.7,11.3-8.22a16.1,16.1,0,0,1,8.37,1.24,5.94,5.94,0,0,1,3.29,3.6"/><path class="cls-1" d="M43.73,125.31s2,3.08,8.29,1.85c5.74-1.13,11-4.44,15.73-7.77,4.93-3.48,8.78-9,11.3-14.44a11,11,0,0,0,1.16-3.76,2.75,2.75,0,0,0-.38-1.83c-2-2.81-6.78,6.77-7.45,8.17A47.77,47.77,0,0,0,69,116.89c-.7,2.86-1.92,6.52-.75,9.41a2.56,2.56,0,0,0,1.16,1.38c2.23,1,5-1.28,6.22-2.71,2.86-3.33,4.91-6.9,7.58-10.38S89,106.14,89.63,103c.21-1-.68-.22-1.75,1.23-2.81,3.82-4.11,8.29-5.9,12.64-1.16,2.85-2.73,6.42-.91,9.37a2.84,2.84,0,0,0,1.17,1.11,2.68,2.68,0,0,0,2,0,11.36,11.36,0,0,0,2.26-1.31,119.12,119.12,0,0,0,9.72-7.14c.75-.63,6.56-5,4.07-6.11a2.11,2.11,0,0,0-1.06-.11,8.16,8.16,0,0,0-5.58,3.4c-1.61,2.13-3.69,5.81-2.35,8.48s4.19,3.08,6.81,2.31c4.65-1.38,8.57-5.37,11.65-8.95"/><path class="cls-1" d="M79,111.16c13.49,1.19,25-6.94,37.1-11.55,7.61-2.89,18.42-2.19,19.31,8.06.85,9.68-11.44,14.8-19.38,15.21-.52,0-1.24-.17-1.17-.68s.66-.54,1.1-.51c4.45.36,9.34,3.1,7.76,8.18-1.31,4.21-5.65,7.23-4.73,12.08.8,4.22,5.8,6.61,10,5.87s7.69-3.77,10.49-7a30.58,30.58,0,0,0,6.8-12.17c1-3.88,1.78-14.16-4.54-13.78a8.81,8.81,0,0,0-4.45,1.88c-3.15,2.25-4.58,7.14-4.44,10.83.23,6.1,5,7.62,10.3,5.7a30.91,30.91,0,0,0,14.36-10.88c4-5.56,7.76-12.89,4.54-19.64a10.32,10.32,0,0,0-3.51-4.37,9.48,9.48,0,0,0-6.25-1.2c-2.23.26-5.18.87-7,2.25"/><circle class="cls-1" cx="83.04" cy="131.03" r="1.85"/><text class="cls-2" transform="translate(49.68 160.88) rotate(20.93)">A</text><text class="cls-2" transform="matrix(0.97, 0.26, -0.26, 0.97, 59.13, 164.39)">L</text><text class="cls-2" transform="translate(65.89 166.18) rotate(10.06)">T</text><text class="cls-2" transform="translate(73.35 167.51) rotate(4.4)">E</text><text class="cls-2" transform="translate(82.43 168.2) rotate(-2.14)">R</text><text class="cls-2" transform="translate(92 167.74) rotate(-7.31)">-</text><text class="cls-2" transform="matrix(0.98, -0.22, 0.22, 0.98, 97.94, 167.05)">A</text><text class="cls-2" transform="translate(107.61 164.74) rotate(-17.66)">I</text><text class="cls-2" transform="matrix(0.92, -0.39, 0.39, 0.92, 112.18, 163.38)">R</text></g></g></svg>