<?xml version="1.0" encoding="utf-8"?>
<!-- Generator: Adobe Illustrator 19.0.0, SVG Export Plug-In . SVG Version: 6.00 Build 0)  -->
<svg version="1.1" xmlns="http://www.w3.org/2000/svg" xmlns:xlink="http://www.w3.org/1999/xlink" x="0px" y="0px"
	 viewBox="0 0 171.2 171.2" style="enable-background:new 0 0 171.2 171.2;" xml:space="preserve">
<style type="text/css">
	.st0{fill:#5F5F5F;}
	.st1{display:none;}
	.st2{display:inline;fill:#5F5F5F;}
</style>
<g id="圖層_1">
	<g id="XMLID_1_">
		<path id="XMLID_44_" class="st0" d="M85.8,47.1c21.4,0.1,38.5,17.3,38.3,38.7c-0.1,21.4-17.4,38.4-38.9,38.2
			C64,123.9,47,106.8,47.1,85.5C47.1,64.1,64.4,47,85.8,47.1z M112.2,86.2C112.7,71.6,101,59.4,86.1,59
			c-14.5-0.4-26.8,11.5-27.2,26.2c-0.3,14.5,11.7,26.7,26.4,27C99.8,112.5,111.8,100.9,112.2,86.2z"/>
		<path id="XMLID_43_" class="st0" d="M29,22.5c2.1,1.3,3.8,1.9,4.9,3c6.4,6.3,12.8,12.7,19.1,19.1c3.2,3.2,3.3,6.6,0.5,9.2
			c-2.5,2.3-6,2.1-9-0.9c-6.4-6.3-12.7-12.7-19.1-19.1c-2-2.1-2.9-4.7-1.3-7.1C25.1,25,27.2,23.9,29,22.5z"/>
		<path id="XMLID_42_" class="st0" d="M30.4,147.9c-5.6,0.1-8.5-4.6-6.4-8.6c0.5-1,1.3-1.8,2.1-2.6c6-6,12-12,18-18
			c0.3-0.3,0.5-0.5,0.8-0.8c2.8-2.5,6.4-2.6,8.7-0.2c2.5,2.6,2.4,5.7-0.4,8.7c-3.9,4.1-7.9,8-11.9,12c-2.5,2.5-4.9,5-7.5,7.4
			C32.7,146.8,31.1,147.5,30.4,147.9z"/>
		<path id="XMLID_41_" class="st0" d="M122.6,55.3c-5.1,0.1-8-4.4-6.1-8.3c0.4-0.9,1-1.7,1.7-2.4c6.3-6.4,12.7-12.7,19-19.1
			c2-2,4.3-2.9,7.1-1.8c3.8,1.5,5.1,6.2,2.2,9.3c-6.8,7.1-13.8,14-20.8,20.9C124.7,54.8,123.2,55,122.6,55.3z"/>
		<path id="XMLID_40_" class="st0" d="M121.2,115.1c2.2,1.3,4,1.9,5.3,3.1c6.4,6.2,12.7,12.6,19,19c3.1,3.1,3.2,6.7,0.5,9.2
			c-2.5,2.4-6,2.2-8.9-0.8c-6.4-6.3-12.7-12.6-19-19c-1.9-1.9-3.4-4.4-1.7-7C117.5,117.9,119.4,116.7,121.2,115.1z"/>
		<path id="XMLID_39_" class="st0" d="M20.1,79.6c4.5,0,9,0,13.5,0c3.9,0.1,6.8,2.5,6.9,5.9c0.1,3.4-2.9,6.1-7,6.1
			c-8.8,0-17.7,0-26.5,0c-4.4,0-7-2.4-6.9-6.1c0-3.7,2.6-5.9,7.1-5.9C11.4,79.6,15.8,79.6,20.1,79.6z"/>
		<path id="XMLID_38_" class="st0" d="M151.2,91.6c-4.5,0-9,0-13.5,0c-4.2,0-7.1-2.6-7-6.1c0.1-3.4,2.9-5.8,6.9-5.9
			c9,0,17.9-0.1,26.9,0c4.1,0,6.6,2.4,6.7,5.9c0,3.6-2.5,6-6.6,6C160.2,91.7,155.7,91.6,151.2,91.6z"/>
		<path id="XMLID_37_" class="st0" d="M79.7,20.1c0-4.5,0-9,0-13.5C79.8,2.3,81.9,0,85.6,0c3.7,0,6,2.4,6,6.6c0.1,9,0.1,18,0,27
			c0,4.1-2.4,6.7-5.9,6.7c-3.6,0-5.9-2.5-6-6.7C79.6,29.1,79.7,24.6,79.7,20.1z"/>
		<path id="XMLID_36_" class="st0" d="M91.6,151.2c0,4.4,0,8.7,0,13.1c-0.1,4.5-2.2,7-6,7c-3.8,0-5.9-2.4-5.9-7c0-8.7,0-17.5,0-26.2
			c0-4.4,2.3-7.1,6-7.1c3.6,0,5.9,2.7,5.9,7.1C91.6,142.4,91.6,146.8,91.6,151.2z"/>
	</g>
</g>
<g id="圖層_2" class="st1">
	<path id="XMLID_47_" class="st2" d="M12.5,87.1C12.5,44,40.8,8.8,80.6,0.4c3.3-0.7,6.5-0.7,8.9,2.2C92.5,6,92,9.8,88,13.6
		c-8.1,7.7-14.1,16.7-18.2,27.1C55.5,76.7,75,120,111.5,133c11.7,4.2,23.6,5.7,36,3.7c2.3-0.4,5.1-0.4,7.2,0.5
		c5.1,2.3,5.4,8.5,0.7,12.6c-8.1,7.2-17.2,12.6-27.4,16.2c-42.7,14.9-87.7-3.6-107.4-44.3C15,110.3,12.2,98,12.5,87.1z M123.3,151.6
		c-29.1-5.7-50.8-21.1-63.8-47.2c-13-26.1-11.9-52.7,1-79.3C33.9,39.6,17.4,79,33.4,114.2C51.1,153.1,94.3,164,123.3,151.6z"/>
</g>
</svg>
